<svg width="65" height="90" viewBox="0 0 65 90" fill="none" xmlns="http://www.w3.org/2000/svg">
<path d="M46.1557 86.8945H18.7617C17.8832 86.8945 17.1709 87.5897 17.1709 88.4472C17.1709 89.3048 17.8832 90 18.7617 90H46.1557C47.0342 90 47.7465 89.3048 47.7465 88.4472C47.7465 87.5897 47.0342 86.8945 46.1557 86.8945Z" fill="white"/>
<path d="M8.39222 79.7492C13.2773 83.1861 19.1644 84.9782 25.1768 84.9782H25.2896H29.4982H29.6109H35.3352H35.448H39.6566H39.7694C45.7818 84.9782 51.6689 83.1861 56.5539 79.7492C62.5788 75.5143 64.7708 70.543 64.9963 70.0029H0C0.225464 70.543 2.41747 75.5143 8.44238 79.7492H8.39222Z" fill="white"/>
<path d="M21.2566 0C21.5071 2.73729 24.0498 4.0998 24.0498 4.0998H40.7844C40.7844 4.0998 43.3145 2.73729 43.5776 0H21.2566Z" fill="white"/>
<path d="M16.6342 25.1257H48.2744C47.2598 23.9841 46.2452 22.8303 45.2807 21.6396H19.6279C18.6634 22.8303 17.6488 23.9841 16.6342 25.1257Z" fill="white"/>
<path d="M21.9952 18.4107C21.3814 19.3682 20.6924 20.301 19.9785 21.1971H23.6987L21.9952 18.4107Z" fill="white"/>
<path d="M44.9297 21.2094C44.2157 20.301 43.5392 19.3804 42.9129 18.4107L41.1969 21.2094H44.9171H44.9297Z" fill="white"/>
<path d="M41.6483 16.2259C39.9698 12.9117 39.1807 9.00833 40.308 5.47318H40.1952H24.6883H24.5756C25.7029 9.00833 24.9138 12.9117 23.2353 16.2259C23.085 16.5205 22.9347 16.7906 22.7719 17.0729H42.0992C41.9363 16.7906 41.786 16.5083 41.6357 16.2259H41.6483Z" fill="white"/>
<path d="M22.5467 17.5153C22.3714 17.8099 22.1834 18.1045 22.0081 18.3868H25.4402L23.7242 21.1978H27.2063L25.4903 18.3868H28.9599L27.2439 21.1978H30.726L29.01 18.3868H32.4797L30.7637 21.1978H34.2458L32.5298 18.3868H35.9994L34.2834 21.1978H37.7655L36.0495 18.3868H39.5192L37.8031 21.1978H41.2853L39.5692 18.3868H43.0138C42.826 18.0923 42.6506 17.8099 42.4752 17.5153H22.6594H22.5467Z" fill="white"/>
<path d="M23.711 21.2227L23.7237 21.2112H23.6982L23.711 21.2227Z" fill="white"/>
<path d="M27.2185 21.2112H27.1929L27.2057 21.2227L27.2185 21.2112Z" fill="white"/>
<path d="M30.714 21.2112H30.6885L30.7012 21.2227L30.714 21.2112Z" fill="white"/>
<path d="M34.2098 21.2112H34.1964V21.2227L34.2098 21.2112Z" fill="white"/>
<path d="M37.703 21.2112H37.6897L37.703 21.2227V21.2112Z" fill="white"/>
<path d="M41.2093 21.2112H41.1837L41.1965 21.2227L41.2093 21.2112Z" fill="white"/>
<path d="M16.0072 27.6911V46.3243H10.1702V35.4365H5.99905L13.7776 27.6911H16.0072Z" fill="white"/>
<path d="M16.5208 36.9843C16.5208 31.5588 20.9173 27.2626 26.5164 27.2626C32.1154 27.2626 36.5119 31.5465 36.5119 36.9843C36.5119 42.4711 32.1154 46.7551 26.5164 46.7551C20.9173 46.7551 16.5208 42.4711 16.5208 36.9843ZM30.2115 36.9843C30.2115 34.9344 28.5831 33.3387 26.5164 33.3387C24.4496 33.3387 22.8212 34.9344 22.8212 36.9843C22.8212 39.0342 24.4496 40.6545 26.5164 40.6545C28.5831 40.6545 30.2115 39.0342 30.2115 36.9843Z" fill="white"/>
<path d="M37.0372 36.9843C37.0372 31.5588 41.4338 27.2626 47.0329 27.2626C52.6319 27.2626 57.0284 31.5465 57.0284 36.9843C57.0284 42.4711 52.6319 46.7551 47.0329 46.7551C41.4338 46.7551 37.0372 42.4711 37.0372 36.9843ZM50.728 36.9843C50.728 34.9344 49.0996 33.3387 47.0329 33.3387C44.9661 33.3387 43.3377 34.9344 43.3377 36.9843C43.3377 39.0342 44.9661 40.6545 47.0329 40.6545C49.0996 40.6545 50.728 39.0342 50.728 36.9843Z" fill="white"/>
<path d="M9.63171 48.7923C13.6525 48.7923 16.7213 51.9101 16.7213 55.8503C16.7213 59.766 13.3017 62.9084 9.33103 62.9084H8.05345V67.4378H1.94086V48.8046H9.63171V48.7923ZM10.5836 55.8503C10.5836 54.7579 9.93228 53.9846 8.79243 53.9846H8.05345V57.7161H8.79243C9.93228 57.7161 10.5836 56.9428 10.5836 55.8503Z" fill="white"/>
<path d="M17.0473 58.0833C17.0473 52.6578 21.4439 48.3616 27.0429 48.3616C32.6419 48.3616 37.0385 52.6456 37.0385 58.0833C37.0385 63.5702 32.6419 67.8541 27.0429 67.8541C21.4439 67.8541 17.0473 63.5702 17.0473 58.0833ZM30.738 58.0833C30.738 56.0334 29.1096 54.4377 27.0429 54.4377C24.9761 54.4377 23.3478 56.0334 23.3478 58.0833C23.3478 60.1332 24.9761 61.7535 27.0429 61.7535C29.1096 61.7535 30.738 60.1332 30.738 58.0833Z" fill="white"/>
<path d="M50.5277 54.1196H46.7574V67.4378H40.6448V54.1196H36.8746V48.7923H50.5402V54.1196H50.5277Z" fill="white"/>
<path d="M58.8707 52.7806C58.1693 52.7806 57.6431 53.0997 57.6431 53.7871C57.6431 55.5424 64.0063 55.837 64.0063 61.8271C64.0063 65.5587 60.7746 67.8418 56.9668 67.8418C54.7622 67.8418 53.1965 67.3631 51.756 66.8844V60.256C52.9209 61.6185 54.5492 62.9441 56.2152 62.9441C57.0043 62.9441 57.8185 62.6495 57.8185 61.6921C57.8185 59.6422 51.2925 59.1635 51.2925 53.7626C51.2925 50.4115 54.2236 48.3616 57.5931 48.3616C59.1713 48.3616 60.6619 48.6808 61.7265 49.1595V54.6218H61.5637C60.9124 53.6398 59.9354 52.7806 58.8707 52.7806Z" fill="white"/>
</svg>
