<svg width="129" height="261" viewBox="0 0 129 261" fill="none" xmlns="http://www.w3.org/2000/svg">
<path d="M120.408 154.617L112.724 154.874C112.409 154.874 112.152 154.636 112.152 154.321V143.793L111.369 138.963C111.331 138.715 111.111 138.534 110.863 138.534H103.466C103.046 138.534 102.712 138.199 102.712 137.779V127.614C102.712 127.232 102.406 126.927 102.025 126.927H94.6178C94.1214 126.927 93.711 126.517 93.711 126.02V116.533C93.711 116.265 93.501 116.055 93.2338 116.046L86.3615 115.941C85.722 115.941 85.2066 115.416 85.1875 114.776L84.9011 103.924L84.7675 98.0348C84.7675 97.5671 84.3762 97.1949 83.9085 97.1949H77.6185C77.2557 97.1949 76.9694 96.9086 76.9694 96.5459L76.7785 49.8431L83.813 49.2799C84.0803 49.2608 84.2807 49.0318 84.2903 48.7645L84.4144 42.3886L84.2521 34.4473C84.2426 34.1514 84.0039 33.9128 83.708 33.9128H43.763C43.4862 33.9128 43.2667 34.1418 43.2667 34.4186V48.7931C43.2667 49.1845 43.5816 49.509 43.973 49.5185L50.6257 49.6235C50.9216 49.6331 51.1507 49.8622 51.1507 50.158V96.2309C51.1507 96.9467 50.5684 97.529 49.8526 97.529H44.0684C43.3526 97.529 42.7703 98.1017 42.7703 98.8175V115.254C42.7703 115.855 42.2835 116.332 41.6918 116.323L34.5713 116.208C34.2945 116.199 34.075 116.418 34.0655 116.695L33.9223 125.476C33.9127 126.078 33.4164 126.564 32.8151 126.564H25.7328C25.1888 126.564 24.7402 127.003 24.7402 127.547V137.274C24.7402 137.98 24.1675 138.543 23.4707 138.534L16.9898 138.429C16.6843 138.429 16.4266 138.658 16.4171 138.963L16.2357 144.108V153.643C16.2357 154.034 15.9112 154.359 15.5199 154.359H8.63806C8.29445 154.359 8.02719 154.626 8.01765 154.97L7.97947 161.842L7.72176 195.898C7.71221 196.356 8.08446 196.728 8.54261 196.728H14.0882C14.5368 196.728 14.8995 197.091 14.8995 197.54V212.334C14.8995 212.639 15.0522 212.926 15.3099 213.088C16.5984 213.918 17.9443 214.09 19.3473 213.623C20.1396 213.355 20.97 213.928 20.9986 214.758L21.3422 223.511C21.3708 224.303 22.0199 224.924 22.8121 224.924H28.3958C28.8635 224.924 29.2358 225.305 29.2358 225.773V232.454C29.2358 233.352 29.9612 234.077 30.8584 234.077H35.9553C36.3753 234.077 36.7189 234.421 36.7189 234.841V238.869C36.7189 239.298 37.053 239.642 37.4825 239.651C54.9781 240.081 72.6361 240.043 90.4562 239.556C90.8189 239.546 91.1148 239.25 91.1148 238.888V234.659C91.1148 234.297 91.4012 234.001 91.7639 234.01L97.4621 234.106C97.968 234.106 98.388 233.705 98.4071 233.199L98.6361 225.134L105.89 225.229C106.148 225.239 106.367 225.019 106.367 224.752V213.899C106.367 213.594 106.616 213.336 106.921 213.327L112.667 213.098C113.058 213.079 113.364 212.764 113.364 212.372V197.578C113.364 197.205 113.669 196.9 114.041 196.9H119.854C120.188 196.9 120.465 196.623 120.465 196.289L120.379 161.756L120.503 154.407L127.977 154.359C128.254 154.359 128.473 154.578 128.473 154.855V196.623C128.473 196.833 128.301 197.005 128.082 197.005H121.582C121.267 197.005 121.009 197.263 121.009 197.578V220.237C121.009 220.457 120.828 220.638 120.608 220.638H113.975C113.66 220.638 113.402 220.896 113.421 221.211L113.583 225.382C113.583 225.659 113.373 225.888 113.097 225.888H107.188C106.835 225.888 106.549 226.174 106.549 226.527V234.631C106.549 234.86 106.358 235.051 106.129 235.051H98.9416C98.7411 235.051 98.5789 235.213 98.5789 235.413V252.957C98.5789 253.167 98.4166 253.329 98.2066 253.329H91.9643C91.7352 253.329 91.5443 253.52 91.5443 253.749V259.695C91.5443 260.01 91.2866 260.268 90.9621 260.268H37.2057C36.9384 260.268 36.7189 260.058 36.7189 259.791V253.854C36.7189 253.415 36.3562 253.062 35.9171 253.081L30.1234 253.31C29.6939 253.329 29.3312 252.976 29.3312 252.546V235.824C29.3312 235.48 29.0449 235.203 28.7108 235.222L21.9244 235.49C21.6095 235.509 21.3518 235.261 21.3518 234.946V226.155C21.3518 225.783 21.0368 225.477 20.6645 225.496L15.0808 225.716C14.7181 225.735 14.4222 225.449 14.4222 225.095V221.268C14.4222 220.896 14.1168 220.6 13.7445 220.609L7.49268 220.858C7.20634 220.877 6.95817 220.638 6.95817 220.352V197.711C6.95817 197.234 6.56683 196.852 6.08959 196.871L0.477241 197.1C0.219531 197.11 0 196.9 0 196.633V154.502C0 154.263 0.200441 154.063 0.439062 154.063H7.38769C7.65494 154.063 7.87447 153.843 7.87447 153.576V138.295C7.87447 138.114 8.02719 137.961 8.21809 137.961H15.6535C15.9685 137.961 16.2262 137.703 16.2262 137.379V126.956C16.2262 126.707 16.4171 126.507 16.6652 126.497L24.072 126.202C24.4061 126.183 24.6734 125.906 24.6734 125.572V115.941C24.6734 115.616 24.9311 115.359 25.246 115.359H33.4737C33.7696 115.359 34.0177 115.111 34.0177 114.815V97.5958C34.0177 97.2617 34.2945 96.9849 34.6286 96.9849H42.3504C42.7131 96.9849 43.0089 96.689 43.0089 96.3263V50.3585C43.0089 50.0053 42.7226 49.7285 42.379 49.7476L35.8217 50.0053C35.4685 50.0244 35.1822 49.7476 35.1822 49.3945V34.8004C35.1822 34.4855 34.9149 34.2277 34.6 34.2468L25.8569 34.5904C25.5515 34.6095 25.2938 34.3614 25.2938 34.0464V28.0332C25.2938 27.6609 24.9883 27.365 24.6161 27.3841L18.7269 27.6227C18.3929 27.6323 18.1161 27.365 18.1161 27.031V13.8496C18.1161 13.5918 18.326 13.3723 18.5838 13.3628L24.6161 13.1242C24.9692 13.1146 25.2556 12.8187 25.2556 12.4656V0.629988C25.2556 0.286375 25.5324 3.05176e-05 25.876 3.05176e-05H101.309C101.652 3.05176e-05 101.929 0.27683 101.929 0.620444V12.3224C101.929 12.7424 102.273 13.086 102.702 13.086H109.288C109.632 13.086 109.909 13.3628 109.909 13.7064V26.8019C109.909 27.0691 109.689 27.2982 109.412 27.3078L102.416 27.5846C102.168 27.5941 101.967 27.8041 101.967 28.0618V33.7123C101.967 34.0464 101.69 34.3232 101.356 34.3232H92.9474C92.6897 34.3232 92.4797 34.5332 92.4797 34.7909V49.404C92.4797 49.719 92.2316 49.9671 91.9166 49.9671H85.3402C85.1589 49.9671 85.0061 50.1199 85.0061 50.3012V96.5936C85.0061 96.899 85.2543 97.1376 85.5597 97.1281L92.7756 96.8417C93.2051 96.8226 93.5583 97.1663 93.5583 97.5958V115.12C93.5583 115.435 93.8255 115.683 94.1405 115.674L102.311 115.349C102.626 115.33 102.884 115.578 102.884 115.893V126.192C102.884 126.545 103.17 126.832 103.523 126.812L110.376 126.545C110.663 126.536 110.911 126.765 110.92 127.051L111.34 137.522C111.35 137.894 111.665 138.19 112.037 138.171L119.387 137.875C119.902 137.856 120.332 138.266 120.332 138.782L120.408 154.617ZM90.5326 8.73354C90.5326 8.18948 90.1031 7.74088 89.559 7.74088L37.9597 7.37817C37.4157 7.37817 36.9766 7.81724 36.9671 8.35175L36.9384 12.1124C36.9384 12.6565 37.368 13.1051 37.912 13.1051L89.5113 13.4678C90.0553 13.4678 90.4944 13.0287 90.504 12.4942L90.5326 8.73354ZM51.6565 26.8401L100.908 27.1073C101.395 27.1073 101.795 26.716 101.795 26.2292V14.2314C101.795 13.9355 101.557 13.6968 101.261 13.6968H91.9739C91.5253 13.6968 91.1626 14.0691 91.1626 14.5177V19.9296C91.1626 20.2732 90.8858 20.55 90.5421 20.55L51.752 20.3687H37.4443C36.9098 20.3687 36.4707 19.9392 36.4707 19.4046V14.2027C36.4707 13.9068 36.2226 13.6587 35.9267 13.6587H26.1433C25.7519 13.6587 25.4274 13.9832 25.4274 14.3745V26.5823C25.4274 26.821 25.6278 27.0214 25.8665 27.0119L51.6565 26.8401ZM91.2294 248.184C91.2294 247.44 90.6185 246.829 89.874 246.829L38.332 246.915C37.5875 246.915 36.9862 247.526 36.9766 248.27V251.153C36.9766 251.897 37.5875 252.508 38.3415 252.508L89.8835 252.422C90.628 252.422 91.2294 251.811 91.2389 251.067V248.184H91.2294Z" fill="#0F1835"/>
<path d="M84.4142 42.3886L58.2805 42.4077C58.0705 42.4077 57.8987 42.5795 57.8987 42.7895V105.098C57.8987 105.718 57.4119 106.224 56.7915 106.253L52.7254 106.415C52.1814 106.434 51.7423 106.883 51.7328 107.427L51.6182 115.034C51.6087 115.559 51.1792 115.979 50.6542 115.979H47.0463C46.2731 115.979 45.6432 116.6 45.6241 117.373L45.5 125.495C45.4905 125.896 45.2518 126.249 44.8987 126.421C44.3164 126.698 43.5051 126.755 42.4552 126.574C41.8634 126.469 41.3289 126.917 41.3289 127.519V130.23C41.3289 130.793 40.8708 131.241 40.3076 131.232L35.1534 131.146C34.7048 131.146 34.3421 131.489 34.323 131.938L34.1703 136.042C34.1703 136.109 34.1608 136.166 34.1512 136.224L32.8818 144.031L16.2356 144.108L16.4169 138.963C16.4265 138.658 16.6842 138.419 16.9896 138.429L23.4706 138.534C24.1673 138.534 24.74 137.98 24.74 137.274V127.547C24.74 127.003 25.1886 126.564 25.7327 126.564H32.8149C33.4163 126.564 33.9126 126.078 33.9221 125.476L34.0653 116.695C34.0653 116.418 34.2944 116.199 34.5712 116.208L41.6916 116.323C42.2834 116.332 42.7702 115.855 42.7702 115.254V98.8175C42.7702 98.1017 43.3524 97.529 44.0683 97.529H49.8524C50.5683 97.529 51.1505 96.9468 51.1505 96.2309V50.1581C51.1505 49.8622 50.9215 49.6331 50.6256 49.6236L43.9728 49.5186C43.5815 49.509 43.2665 49.1845 43.2665 48.7932V34.4187C43.2665 34.1419 43.486 33.9128 43.7628 33.9128H83.7079C84.0038 33.9128 84.2424 34.1514 84.252 34.4473L84.4142 42.3886Z" fill="#721AE1"/>
<path d="M84.4136 42.3885L84.2895 48.7644C84.2799 49.0317 84.0795 49.2607 83.8122 49.2798L76.7777 49.843C75.0883 51.9237 74.1052 54.3767 73.8379 57.202L73.6375 55.1022C73.6088 54.7681 73.3702 54.4817 73.0361 54.4054C72.0053 54.1668 71.1176 54.1763 70.3827 54.4436C69.8959 54.6249 69.5714 55.0831 69.5714 55.608V103.475C69.5714 104.038 70.0391 104.497 70.6022 104.477L73.7234 104.382L84.9003 103.924L85.1867 114.776C85.2058 115.416 85.7212 115.931 86.3607 115.941L93.233 116.046C93.5002 116.046 93.7102 116.265 93.7102 116.533V126.02C93.7102 126.516 94.1206 126.927 94.617 126.927H102.024C102.406 126.927 102.711 127.232 102.711 127.614V137.779C102.711 138.199 103.045 138.533 103.465 138.533H110.862C111.11 138.533 111.33 138.715 111.368 138.963L112.16 143.793L95.371 144.279L95.4092 138.782C95.4092 138.438 95.1324 138.161 94.7983 138.161H93.0612C92.4598 138.161 91.9731 137.674 91.9731 137.073V127.118C91.9731 126.765 91.6867 126.488 91.3336 126.507L85.9503 126.717C85.9026 126.717 85.8644 126.707 85.8167 126.698C84.9099 126.44 84.7381 124.894 85.3108 122.04C85.4253 121.467 84.9958 120.933 84.4136 120.933H80.4238C79.708 120.933 79.1257 121.515 79.1257 122.231V131.537C79.1257 131.814 79.3453 132.033 79.6221 132.033H83.7168C84.3849 132.033 84.9481 132.53 85.0435 133.188L85.7594 138.343C85.7308 139.602 85.7594 140.881 85.8357 142.189C85.9217 143.535 85.2058 144.184 83.6786 144.146C70.7072 143.85 56.3136 143.898 40.4788 144.289C38.2262 144.346 35.42 143.945 32.8811 144.031L34.1506 136.224C34.1506 136.166 34.1697 136.109 34.1697 136.042L34.3224 131.938C34.3415 131.489 34.7042 131.136 35.1528 131.146L40.307 131.232C40.8701 131.241 41.3283 130.793 41.3283 130.229V127.519C41.3283 126.917 41.8628 126.469 42.4546 126.574C43.5045 126.755 44.3158 126.698 44.898 126.421C45.2512 126.249 45.4898 125.896 45.4993 125.495L45.6234 117.373C45.6425 116.599 46.2725 115.979 47.0456 115.979H50.6536C51.1785 115.979 51.608 115.559 51.6176 115.034L51.7321 107.427C51.7321 106.883 52.1807 106.434 52.7248 106.415L56.7909 106.253C57.4113 106.224 57.8981 105.718 57.8981 105.098V42.7893C57.8981 42.5794 58.0699 42.4075 58.2799 42.4075L84.4136 42.3885ZM78.0854 109.737C78.0663 109.288 77.694 108.935 77.2454 108.954L74.6492 109.049C74.2006 109.069 73.857 109.45 73.8665 109.889L74.0384 114.242C74.0574 114.69 74.4297 115.044 74.8783 115.025L77.4745 114.929C77.9231 114.91 78.2667 114.528 78.2572 114.089L78.0854 109.737Z" fill="#9838F6"/>
<path d="M76.7787 49.843L76.9696 96.5458C76.9696 96.9085 77.2559 97.1949 77.6187 97.1949H83.9087C84.3764 97.1949 84.7582 97.5671 84.7677 98.0348L84.9013 103.924L73.7244 104.382L73.8389 57.2021C74.1062 54.3768 75.0893 51.9238 76.7787 49.843Z" fill="#9836FC"/>
<path d="M73.8393 57.2021L73.7247 104.382L70.6036 104.478C70.0405 104.497 69.5728 104.039 69.5728 103.475V55.6081C69.5728 55.0832 69.8973 54.625 70.3841 54.4437C71.119 54.1764 72.0067 54.1669 73.0375 54.4055C73.3716 54.4818 73.6102 54.7682 73.6388 55.1022L73.8393 57.2021Z" fill="white"/>
<path d="M95.3703 144.279C95.0362 145.377 95.103 146.389 95.5803 147.334C95.8666 147.897 96.4488 148.26 97.0788 148.269L100.992 148.326C101.784 148.346 102.424 148.985 102.433 149.777L102.519 161.785L102.481 170.585C102.481 171.091 102.071 171.501 101.565 171.501H96.8306C96.3438 171.501 95.9334 171.11 95.9143 170.614L95.5516 161.756L94.7594 154.998C94.7117 154.597 94.3585 154.301 93.9576 154.321L90.5597 154.454C90.0729 154.473 89.672 154.082 89.6816 153.595C89.6911 150.149 89.4143 147.028 88.8321 144.222C88.5935 143.096 88.0112 142.37 87.0854 142.036C86.8372 141.95 86.6749 141.702 86.7036 141.435C86.8277 140.194 86.5127 139.163 85.7586 138.343L85.0428 133.188C84.9473 132.53 84.3842 132.033 83.7161 132.033H79.6213C79.3445 132.033 79.125 131.814 79.125 131.537V122.231C79.125 121.515 79.7072 120.933 80.4231 120.933H84.4128C84.9951 120.933 85.4246 121.467 85.31 122.04C84.7373 124.894 84.9092 126.44 85.8159 126.698C85.8636 126.707 85.9018 126.717 85.9495 126.717L91.3328 126.507C91.686 126.488 91.9723 126.765 91.9723 127.118V137.073C91.9723 137.674 92.4591 138.161 93.0604 138.161H94.7976C95.1317 138.161 95.4085 138.438 95.4085 138.782L95.3703 144.279Z" fill="white"/>
<path d="M95.5533 161.756L25.6089 161.975L26.1148 149.968C26.1339 149.586 26.4393 149.281 26.8211 149.281H31.4789C32.5671 149.281 33.3497 148.221 33.0252 147.181C32.6243 145.892 32.5766 144.843 32.882 144.031C35.421 143.945 38.2271 144.346 40.4797 144.289C56.3146 143.898 70.7081 143.85 83.6795 144.146C85.2067 144.184 85.9226 143.535 85.8367 142.189C85.7508 140.881 85.7317 139.602 85.7603 138.343C86.5144 139.163 86.8293 140.194 86.7053 141.435C86.6766 141.702 86.8389 141.95 87.087 142.036C88.0129 142.37 88.5951 143.096 88.8338 144.222C89.416 147.028 89.6928 150.149 89.6832 153.595C89.6832 154.082 90.0746 154.473 90.5614 154.454L93.9593 154.321C94.3602 154.301 94.7134 154.597 94.7611 154.998L95.5533 161.756Z" fill="#00FFFF"/>
<path d="M112.162 143.793V154.321C112.162 154.635 112.41 154.884 112.725 154.874L120.409 154.616C120.438 154.55 120.476 154.473 120.504 154.406L120.38 161.756L102.522 161.785L102.436 149.777C102.427 148.985 101.787 148.345 100.995 148.326L97.0814 148.269C96.4515 148.269 95.8692 147.897 95.5829 147.334C95.1056 146.389 95.0388 145.377 95.3729 144.279L112.162 143.793Z" fill="#00FFFF"/>
<path d="M32.8812 144.031C32.5758 144.843 32.6235 145.892 33.0244 147.181C33.3489 148.221 32.5662 149.281 31.4781 149.281H26.8202C26.4384 149.281 26.133 149.586 26.1139 149.968L25.608 161.975C25.608 161.975 25.4553 162.004 25.2931 161.975L7.97876 161.832L8.01694 154.96C8.01694 154.616 8.29374 154.349 8.63735 154.349H15.5192C15.9105 154.349 16.235 154.025 16.235 153.633V144.098L32.8812 144.022V144.031Z" fill="#01B6B6"/>
<path d="M120.38 161.756L120.465 196.289C120.465 196.623 120.189 196.9 119.855 196.9H114.042C113.67 196.9 113.364 197.205 113.364 197.578V212.372C113.364 212.763 113.059 213.078 112.667 213.098L106.921 213.327C106.616 213.336 106.368 213.594 106.368 213.899V224.752C106.368 225.019 106.148 225.239 105.891 225.229L98.6365 225.134L98.4074 226.279C98.3597 226.556 98.1401 226.775 97.8633 226.842C97.0329 227.033 96.3648 227.128 95.8589 227.128C76.2252 227.052 64.3133 226.976 60.1231 226.899C59.4645 226.899 58.8059 226.222 58.1378 224.895C58.0233 224.666 57.7846 224.523 57.5269 224.532L48.2303 224.905C47.8294 224.924 47.4953 224.609 47.4762 224.208L47.3522 221.211C47.3331 220.81 47.0276 220.485 46.6363 220.457L44.1928 220.266C43.3529 220.199 42.7134 219.483 42.7325 218.643L42.7802 215.398C42.7897 214.768 42.2934 214.252 41.6634 214.243L38.6855 214.195C37.9219 214.186 37.3206 213.565 37.3301 212.802L37.3874 209.308C37.3874 208.688 36.9006 208.172 36.2802 208.163L31.7846 208.096C31.4791 208.087 31.231 207.838 31.231 207.533V198.294C31.231 197.826 30.8587 197.454 30.391 197.444L25.7045 197.368C25.1986 197.368 24.7978 196.938 24.8073 196.432L25.2941 161.985C25.4563 162.004 25.5613 162.004 25.6091 161.985L95.5535 161.766L95.9162 170.623C95.9353 171.119 96.3457 171.511 96.8325 171.511H101.567C102.073 171.511 102.483 171.1 102.483 170.594L102.521 161.794L120.38 161.766M103.189 179.338C103.189 178.784 102.741 178.335 102.187 178.335H97.0711C96.5175 178.326 96.0689 178.774 96.0689 179.328L96.0498 191.183C96.0498 191.736 96.4984 192.185 97.052 192.185H102.168C102.722 192.194 103.17 191.746 103.17 191.192L103.189 179.338ZM102.015 200.517C102.034 199.773 101.443 199.172 100.708 199.153L96.718 199.076C95.983 199.067 95.3721 199.649 95.353 200.384L95.2576 205.519C95.2385 206.263 95.8303 206.865 96.5652 206.884L100.555 206.96C101.29 206.97 101.901 206.388 101.92 205.653L102.015 200.517ZM94.7994 208.907C94.7994 208.182 94.2077 207.6 93.4918 207.6H91.0102C90.2943 207.6 89.7121 208.192 89.7025 208.917V212.334C89.7025 213.059 90.2943 213.642 91.0197 213.642H93.5013C94.2172 213.642 94.7994 213.05 94.809 212.324V208.907H94.7994Z" fill="#9838F6"/>
<path d="M25.2939 161.985L24.8071 196.432C24.7975 196.938 25.1984 197.358 25.7043 197.368L30.3908 197.444C30.8585 197.454 31.2307 197.826 31.2307 198.294V207.533C31.2307 207.838 31.4789 208.087 31.7843 208.096L36.2799 208.163C36.9004 208.173 37.3967 208.688 37.3871 209.308L37.3299 212.802C37.3203 213.565 37.9217 214.186 38.6852 214.195L41.6632 214.243C42.2932 214.243 42.7895 214.768 42.78 215.398L42.7322 218.643C42.7132 219.483 43.3527 220.199 44.1926 220.266L46.6361 220.457C47.0274 220.485 47.3328 220.81 47.3519 221.211L47.476 224.208C47.4951 224.609 47.8292 224.924 48.2301 224.905L57.5267 224.532C57.7844 224.523 58.023 224.666 58.1376 224.895C58.8057 226.222 59.4643 226.89 60.1229 226.899C64.3131 226.976 76.225 227.052 95.8587 227.129C96.3646 227.129 97.0327 227.033 97.8631 226.842C98.1399 226.775 98.3594 226.556 98.4072 226.279L98.6362 225.134L98.4072 233.199C98.3881 233.705 97.9681 234.115 97.4622 234.106L91.764 234.01C91.4013 234.01 91.1054 234.297 91.1054 234.659V238.888C91.1054 239.25 90.819 239.546 90.4563 239.556C72.6362 240.043 54.9782 240.081 37.4826 239.651C37.0531 239.642 36.719 239.298 36.719 238.869V234.841C36.719 234.421 36.3754 234.077 35.9554 234.077H30.8585C29.9613 234.077 29.2359 233.352 29.2359 232.455V225.773C29.2359 225.305 28.8636 224.924 28.3959 224.924H22.8122C22.02 224.924 21.3709 224.303 21.3423 223.511L20.9987 214.758C20.9701 213.928 20.1397 213.355 19.3474 213.623C17.9444 214.09 16.5985 213.919 15.31 213.088C15.0523 212.926 14.8996 212.64 14.8996 212.334V197.54C14.8996 197.091 14.5369 196.728 14.0883 196.728H8.54271C8.08456 196.728 7.71231 196.356 7.72186 195.898L7.97957 161.842L25.2939 161.985Z" fill="#721AE1"/>
<path d="M90.5127 12.4942C90.5127 13.0287 90.0641 13.4677 89.52 13.4677L37.9207 13.105C37.3767 13.105 36.9376 12.6564 36.9472 12.1124L36.9758 8.35171C36.9758 7.8172 37.4244 7.37814 37.9685 7.37814L89.5677 7.74085C90.1118 7.74085 90.5509 8.18945 90.5413 8.73351L90.5127 12.4942Z" fill="#4F00B2"/>
<path d="M51.7526 20.3687L51.6571 26.8401L25.867 27.0119C25.6284 27.0215 25.428 26.821 25.428 26.5824V14.3746C25.428 13.9832 25.7525 13.6587 26.1438 13.6587H35.9273C36.2232 13.6587 36.4713 13.9069 36.4713 14.2028V19.4047C36.4713 19.9392 36.9104 20.3783 37.4449 20.3687H51.7526Z" fill="#721AE1"/>
<path d="M51.6558 26.8401L51.7512 20.3688L90.5413 20.5501C90.885 20.5501 91.1618 20.2733 91.1618 19.9297V14.5178C91.1618 14.0692 91.5245 13.6969 91.9731 13.6969H101.26C101.556 13.6969 101.795 13.9355 101.795 14.2314V26.2293C101.795 26.7161 101.394 27.1074 100.907 27.1074L51.6558 26.8401Z" fill="#9836FC"/>
<path d="M91.2297 251.067C91.2297 251.811 90.6283 252.422 89.8743 252.422L38.3323 252.508C37.5782 252.508 36.9674 251.897 36.9769 251.153V248.27C36.9769 247.526 37.5782 246.915 38.3227 246.915L89.8647 246.829C90.6188 246.829 91.2297 247.44 91.2201 248.184V251.067H91.2297Z" fill="#2C00B4"/>
<path d="M78.2587 114.08C78.2683 114.528 77.9247 114.91 77.4761 114.92L74.8799 115.015C74.4313 115.034 74.059 114.681 74.0399 114.232L73.8681 109.88C73.8586 109.431 74.2022 109.049 74.6508 109.04L77.247 108.944C77.6956 108.925 78.0678 109.279 78.0869 109.727L78.2587 114.08Z" fill="white"/>
<path d="M103.169 191.192C103.169 191.746 102.72 192.195 102.167 192.195H97.0505C96.4969 192.185 96.0483 191.736 96.0483 191.183L96.0674 179.328C96.0674 178.775 96.516 178.326 97.0696 178.326H102.186C102.739 178.335 103.188 178.784 103.188 179.338L103.169 191.192Z" fill="white"/>
<path d="M101.921 205.653C101.902 206.388 101.291 206.97 100.556 206.96L96.5661 206.884C95.8312 206.865 95.2394 206.263 95.2585 205.519L95.354 200.384C95.373 199.649 95.9839 199.067 96.7189 199.076L100.709 199.153C101.444 199.172 102.035 199.773 102.016 200.517L101.921 205.653Z" fill="white"/>
<path d="M94.7997 212.324C94.7997 213.04 94.2174 213.632 93.492 213.632H91.0104C90.285 213.632 89.6932 213.05 89.7028 212.334V208.917C89.7028 208.201 90.285 207.609 91.0008 207.609H93.4825C94.2079 207.609 94.7997 208.192 94.7901 208.907V212.324H94.7997Z" fill="white"/>
</svg>
