<svg width="81" height="177" viewBox="0 0 81 177" fill="none" xmlns="http://www.w3.org/2000/svg">
<path d="M67.4655 19.9625V30.8244C67.4655 31.0201 67.3001 31.1852 67.104 31.1852L61.3178 31.1852C61.0176 31.1852 60.7695 31.4268 60.7695 31.7265V51.2303C60.7695 51.3648 60.8767 51.4719 61.0115 51.4719H64.3104C64.482 51.4719 64.6168 51.6064 64.6168 51.7776V57.7071C64.6168 57.9487 64.8128 58.1444 65.0548 58.1444H67.0458C67.2051 58.1444 67.3399 58.2789 67.3399 58.4379V64.2206C67.3399 64.4377 67.5176 64.615 67.735 64.615H73.5029C73.6683 64.615 73.8031 64.7496 73.8031 64.9147V77.8224C73.8031 78.0701 74.0083 78.275 74.2565 78.275H79.9998C80.2479 78.275 80.444 78.4707 80.444 78.7123V133.487C80.444 133.692 80.2786 133.857 80.0733 133.857H74.2993C74.039 133.857 73.8276 134.068 73.8276 134.328V151.981C73.8276 152.223 73.6377 152.413 73.3957 152.413H67.9341C67.6217 152.413 67.3736 152.66 67.3736 152.966V163.027C67.3736 163.256 67.1898 163.44 66.9601 163.44H61.1095C60.892 163.44 60.7143 163.617 60.7143 163.834V176.054C60.7143 176.182 60.6133 176.283 60.4846 176.283H20.0605C19.9012 176.283 19.7725 176.155 19.7725 175.996V163.831C19.7725 163.666 19.6377 163.531 19.4723 163.531H13.4625C13.3215 163.531 13.2143 163.424 13.2143 163.284L13.2143 152.85C13.2143 152.679 13.0796 152.538 12.908 152.538H6.80321C6.65617 152.538 6.53671 152.425 6.53671 152.278L6.53671 134.205C6.53671 134.034 6.39582 133.893 6.22429 133.893H0.189913C0.0827031 133.893 0 133.805 0 133.698L0 78.6175C0 78.4585 0.128643 78.3301 0.278737 78.3301H6.30087C6.48465 78.3301 6.63167 78.1833 6.63167 77.9998V65.0921C6.63167 64.9086 6.7787 64.7618 6.95636 64.7618H12.7947C12.9907 64.7618 13.1561 64.6028 13.1561 64.4071V58.6183C13.1561 58.4226 13.3154 58.2636 13.5115 58.2636H16.1274C16.3694 58.2636 16.5654 58.0679 16.5654 57.8263V52.2975C16.5654 51.8143 17.0249 51.4657 17.4874 51.585C18.2134 51.7685 18.8689 51.7685 19.4601 51.5728C19.65 51.5086 19.7848 51.3373 19.7848 51.1355V31.751C19.7848 31.5338 19.6071 31.3565 19.3896 31.3565H13.4441C13.2603 31.3565 13.1071 31.2036 13.1071 31.0201V20.1918C13.1071 20.0267 12.9724 19.8921 12.8008 19.8921H6.57654C6.39275 19.8921 6.24571 19.7454 6.24571 19.5619L6.24571 6.18935C6.24571 6.03033 6.37437 5.89578 6.53365 5.89578H10.2707C10.5127 5.89578 10.7087 5.70007 10.7087 5.45849V0.348609C10.7087 0.159015 10.868 0 11.0579 0L69.4075 0C69.6495 0 69.8455 0.195713 69.8455 0.437293V5.44014C69.8455 5.76429 70.1059 6.02421 70.4306 6.02421H73.5427C74.0145 6.02421 74.3943 6.40646 74.3943 6.87433V19.2469C74.3943 19.4243 74.2534 19.5649 74.0757 19.5649H67.8576C67.634 19.5649 67.4563 19.7423 67.4563 19.9655M17.1566 13.082L43.3403 12.9689L66.8253 13.027C67.0305 13.027 67.1959 12.8618 67.1959 12.657V7.22906C67.1959 7.01194 67.0183 6.83458 66.8008 6.83458C59.1429 6.82235 51.4851 6.81011 43.8212 6.804C43.5853 6.804 43.377 6.88656 43.1963 7.04558L17.4721 6.92632C16.446 6.68474 15.2054 6.68474 13.7535 6.9202C13.5298 6.9569 13.3644 7.15567 13.3644 7.3789V12.5713C13.3644 12.8068 13.5543 13.0025 13.7902 13.0086L17.1566 13.0851M26.9004 31.3565L26.8483 58.282C26.8483 58.4777 26.6891 58.6367 26.493 58.6367H20.4893C20.2779 58.6367 20.1125 58.8018 20.1125 59.0128L20.1125 64.4774C20.1125 64.7649 19.8828 64.9912 19.5979 64.9912H13.7657C13.6003 64.9912 13.4655 65.1257 13.4655 65.297V78.4279C13.4655 78.5411 13.3706 78.6389 13.2542 78.6389H7.2443C7.06051 78.6389 6.91349 78.7857 6.91349 78.9692L6.91961 101.396L6.97781 120.524L6.97169 133.007C6.97169 133.325 7.23204 133.585 7.55061 133.585H12.9938C13.2725 133.585 13.5023 133.814 13.5023 134.092V151.651C13.5023 152.088 13.8576 152.446 14.3048 152.446H19.748C19.895 152.446 20.0084 152.565 20.0084 152.712V162.632C20.0084 162.987 20.2963 163.275 20.6516 163.275H26.3184C26.5022 163.275 26.6554 163.421 26.6554 163.605V168.91C26.6554 169.1 26.8085 169.253 26.9923 169.253L32.5366 169.247L53.225 169.21C53.467 169.21 53.6569 169.02 53.6569 168.785V163.632C53.6569 163.314 53.9173 163.054 54.2358 163.054H59.2532C59.7311 163.054 60.1201 162.678 60.1385 162.204L60.4754 153.364C60.4938 152.773 60.9839 152.302 61.5781 152.302H65.9309C66.375 152.302 66.7334 151.932 66.715 151.495C66.4914 145.63 66.6201 139.918 67.1102 134.367C67.1408 134.019 67.4349 133.744 67.784 133.744H72.3604C73.0281 133.744 73.5642 133.196 73.5519 132.53L73.3344 120.2L73.359 101.191L73.4539 79.0884C73.4539 78.7459 73.1813 78.4646 72.8413 78.4524L67.6278 78.2475C67.2204 78.2353 66.9019 77.905 66.9019 77.4983V65.6395C66.9019 65.3275 66.6476 65.0737 66.3352 65.0737H60.8277C60.5673 65.0737 60.356 64.8627 60.356 64.6089V58.9853C60.356 58.7437 60.1599 58.548 59.9179 58.548H57.6206C57.2316 58.548 56.913 58.23 56.913 57.8416V52.377C56.913 51.8816 56.4352 51.5177 55.9573 51.6523C55.3539 51.8235 54.7535 51.8358 54.1562 51.689C53.8315 51.6125 53.6538 51.1232 53.6354 50.2273C53.47 42.6894 53.5405 36.4236 53.8468 31.4299C53.8591 31.1761 54.0765 30.9773 54.3308 30.9773H60.065C60.3314 30.9773 60.5489 30.7602 60.5489 30.4941V20.3845C60.5489 20.1062 60.3253 19.8768 60.0466 19.8768H20.4893C20.284 19.8768 20.1187 20.042 20.1187 20.253V30.5553C20.1187 30.9437 20.425 31.2556 20.814 31.2617L26.8943 31.3565H26.9004Z" fill="#081636"/>
<path d="M17.4696 6.92329L17.1571 13.0821L13.7908 13.0056C13.5549 12.9995 13.365 12.8007 13.365 12.5683V7.37587C13.365 7.15264 13.5304 6.95693 13.754 6.91717C15.2059 6.68171 16.4465 6.68171 17.4726 6.92329H17.4696Z" fill="#9837FD"/>
<path d="M43.196 7.04254L43.34 12.9658L17.1594 13.082L17.4719 6.92328L43.196 7.04254Z" fill="#C291FF"/>
<path d="M43.3379 12.9662L43.1909 7.04285C43.3686 6.88383 43.5799 6.80127 43.8158 6.80127C51.4797 6.80739 59.1376 6.81961 66.7954 6.83185C67.0129 6.83185 67.1906 7.00921 67.1906 7.22633V12.6542C67.1906 12.8591 67.0251 13.0242 66.8199 13.0242L43.3349 12.9662H43.3379Z" fill="#9838F9"/>
<path d="M73.3697 101.195L60.9824 101.482C60.9365 100.155 61.255 98.7178 61.9442 97.1613C62.0514 96.9136 62.0912 96.302 62.0576 95.3234C62.0514 95.1063 61.8799 94.9289 61.6624 94.9228L59.6438 94.8464C59.2364 94.828 58.9178 94.4855 58.9362 94.0788C59.0067 92.6936 58.9178 91.2074 58.6697 89.6173C58.6054 89.2044 58.3695 88.9323 57.9621 88.7855C57.5854 88.6571 57.3587 88.5622 57.2668 88.5072C57.0769 88.3879 56.9483 88.1892 56.9115 87.9659C56.4735 85.1709 56.3693 82.3668 56.5991 79.5504C56.6174 79.2843 56.7185 79.0305 56.887 78.8195L57.8978 77.5413C58.0816 77.312 58.1919 77.0276 58.198 76.734L58.345 72.9788C58.3634 72.5599 58.0265 72.2112 57.6007 72.2112H53.5329C53.0489 72.2112 52.6599 71.8045 52.6813 71.3214L53.1469 59.0681C53.1592 58.7378 52.8927 58.4565 52.5618 58.4565H48.9198C48.6656 58.4565 48.4542 58.2455 48.4542 57.9917V28.892C48.4542 28.4791 48.785 28.1489 49.1924 28.1489H51.6552C52.1146 28.1489 52.4822 27.7789 52.4822 27.3232V27.0449C52.4822 26.4333 51.986 25.938 51.3733 25.938L32.8046 25.9563C30.7217 23.0145 27.6433 23.5741 24.3382 23.5864C23.9553 23.5925 23.652 23.8983 23.652 24.2805V25.9441C23.652 26.3508 23.9706 26.6872 24.378 26.7116L26.8806 26.8523C27.2114 26.8706 27.4932 26.941 27.726 27.0633C27.9036 27.152 27.9925 27.3507 27.9434 27.5403L26.9051 31.3597L20.8247 31.2649C20.4357 31.2588 20.1294 30.9469 20.1294 30.5586V20.2562C20.1294 20.0452 20.2948 19.8801 20.5 19.8801H60.0573C60.3361 19.8801 60.5597 20.1094 60.5597 20.3877V30.4974C60.5597 30.7634 60.3422 30.9806 60.0757 30.9806H54.3415C54.0873 30.9806 53.8698 31.1763 53.8576 31.4331C53.5512 36.4268 53.4808 42.6957 53.6462 50.2305C53.6646 51.1265 53.8422 51.6158 54.1669 51.6922C54.7643 51.839 55.3646 51.8268 55.968 51.6555C56.4459 51.521 56.9238 51.8849 56.9238 52.3803V57.8449C56.9238 58.2332 57.2423 58.5513 57.6313 58.5513H59.9287C60.1707 58.5513 60.3667 58.747 60.3667 58.9886V64.6122C60.3667 64.866 60.5781 65.077 60.8384 65.077H66.3459C66.6584 65.077 66.9126 65.3308 66.9126 65.6427V77.5015C66.9126 77.9083 67.2312 78.2385 67.6386 78.2508L72.852 78.4556C73.189 78.4679 73.4647 78.7492 73.4647 79.0917L73.3697 101.195Z" fill="#9838F9"/>
<path d="M32.8074 25.9564C32.7431 25.9502 32.6788 25.938 32.6114 25.9319C32.0906 25.886 31.5669 25.8952 31.04 25.9625C30.4733 26.0328 30.2313 26.4212 30.3263 27.1123C29.2328 26.7575 28.0841 26.6689 26.8833 26.8523L24.3807 26.7117C23.9733 26.6872 23.6548 26.3508 23.6548 25.9441V24.2806C23.6548 23.8983 23.9611 23.5956 24.3409 23.5864C27.646 23.5742 30.7245 23.0146 32.8074 25.9564Z" fill="#C291FF"/>
<path d="M32.6078 25.932C32.8191 26.0512 32.9264 26.198 32.9386 26.3693C32.9692 26.8463 33.0152 28.3783 33.0734 30.9562C33.0856 31.4271 32.7028 31.8155 32.2341 31.8155H31.3244C30.8465 31.8155 30.4514 31.4333 30.4391 30.9562L30.3258 27.1123C30.2308 26.4182 30.4728 26.0329 31.0395 25.9625C31.5663 25.8922 32.0901 25.8861 32.6109 25.932H32.6078Z" fill="white"/>
<path d="M32.806 25.9565L51.3748 25.9382C51.9874 25.9382 52.4836 26.4335 52.4836 27.0451V27.3234C52.4836 27.7821 52.113 28.1491 51.6566 28.1491H49.1938C48.7864 28.1491 48.4556 28.4793 48.4556 28.8922V57.9919C48.4556 58.2457 48.6669 58.4567 48.9212 58.4567H52.5633C52.8941 58.4567 53.1606 58.7349 53.1483 59.0683L52.6827 71.3216C52.6643 71.8047 53.0534 72.2114 53.5343 72.2114H57.6021C58.0279 72.2114 58.3648 72.5601 58.3464 72.979L58.1994 76.7342C58.1933 77.0278 58.0861 77.3121 57.8992 77.5415L56.8884 78.8197C56.723 79.0307 56.6219 79.2845 56.6005 79.5506C56.3707 82.367 56.4718 85.1681 56.9129 87.9661C56.9497 88.1894 57.0783 88.3851 57.2682 88.5074C57.3571 88.5655 57.5868 88.6603 57.9636 88.7857C58.371 88.9325 58.6068 89.2046 58.6711 89.6175C58.9193 91.2076 59.0081 92.6938 58.9376 94.079C58.9193 94.4857 59.2378 94.8282 59.6452 94.8466L61.6638 94.923C61.8813 94.9291 62.0528 95.1065 62.059 95.3236C62.0896 96.3022 62.0528 96.9138 61.9456 97.1615C61.2595 98.718 60.9409 100.155 60.9838 101.482C60.9011 101.476 60.8307 101.501 60.7878 101.559L20.0971 101.623L20.0144 91.4614C20.0083 91.174 20.2442 90.9477 20.529 90.9477H22.9152C23.4298 90.9477 23.8525 90.5287 23.8525 90.015L23.8525 86.061C23.8525 85.7185 24.0945 85.4188 24.4315 85.3546L25.7945 85.0886C26.012 85.0427 26.1836 84.8776 26.2264 84.6635L28.5636 73.7129C28.6004 73.5355 28.6647 73.3643 28.7535 73.1992C29.2498 72.291 29.5162 71.8017 29.5499 71.7191C29.939 70.7773 30.3831 68.8477 30.9008 65.9304C30.959 65.6123 31.1734 65.3463 31.4797 65.2301L32.512 64.8417C32.8244 64.7286 33.0327 64.435 33.048 64.1047L33.2257 59.478C33.2441 58.9949 33.6392 58.6126 34.1232 58.6126H36.6503C36.8984 58.6126 37.1036 58.4169 37.1036 58.1692V33.1427C37.1036 32.684 36.7269 32.3171 36.2705 32.3171H34.1048C33.6852 32.3171 33.336 32.6229 33.2839 33.0357C32.6988 37.7633 33.7036 45.2187 33.2533 52.3101C33.1583 53.7841 33.0879 55.5761 33.0297 57.6799C33.0174 58.105 32.6682 58.4475 32.2332 58.4475H30.4903C30.135 58.4475 29.8348 58.7258 29.8226 59.0836L29.6633 63.38C29.6388 63.9702 29.2099 64.4656 28.631 64.5818L26.9065 64.9182C26.7012 64.9549 26.5511 65.1353 26.545 65.3432L26.3336 70.8262C26.3153 71.3216 25.9079 71.7161 25.4055 71.7161H20.4402C20.2166 71.7161 20.0389 71.8934 20.0389 72.1166V78.1042C20.0389 78.4222 19.7785 78.6821 19.46 78.6821H15.2635C14.804 78.6821 14.4426 79.0705 14.4732 79.5261C14.6846 82.6514 14.6846 85.7338 14.4793 88.7734C14.4273 89.5746 13.9127 89.7979 13.2326 89.8529C12.9325 89.8774 12.7027 90.1465 12.7303 90.4431C13.009 93.8191 13.1561 97.3633 13.1744 101.088C13.1744 101.317 13.0979 101.507 12.9447 101.66L6.93484 101.4L6.92871 78.9726C6.92871 78.7892 7.07575 78.6424 7.25953 78.6424H13.2694C13.3827 78.6424 13.4808 78.5476 13.4808 78.4314L13.4808 65.3004C13.4808 65.1292 13.6155 64.9946 13.7809 64.9946H19.6131C19.9011 64.9946 20.1277 64.7653 20.1277 64.4809V59.0163C20.1277 58.8053 20.2932 58.6401 20.5045 58.6401H26.5082C26.7043 58.6401 26.8636 58.4811 26.8636 58.2854L26.9156 31.3599L27.9541 27.5405C28.0061 27.3509 27.9173 27.1522 27.7366 27.0635C27.5007 26.9442 27.222 26.8739 26.8911 26.8525C28.095 26.669 29.2406 26.7577 30.3341 27.1124L30.4474 30.9563C30.4597 31.4333 30.8548 31.8156 31.3327 31.8156H32.2424C32.7142 31.8156 33.094 31.4272 33.0817 30.9563C33.0235 28.3754 32.9807 26.8433 32.947 26.3693C32.9347 26.1981 32.8275 26.0513 32.6161 25.932C32.6866 25.9382 32.7509 25.9504 32.8122 25.9565H32.806Z" fill="#C291FF"/>
<path d="M20.0918 101.62L20.1163 120.411C20.0152 120.347 19.9203 120.43 19.8223 120.659L13.4755 120.482C13.2519 120.222 13.1691 119.974 13.2273 119.738L12.9333 101.657C13.0864 101.504 13.163 101.314 13.163 101.085C13.1446 97.3602 12.9976 93.816 12.7189 90.44C12.6944 90.1403 12.921 89.8742 13.2212 89.8498C13.9012 89.7917 14.4189 89.5715 14.4679 88.7703C14.6731 85.7337 14.6731 82.6513 14.4618 79.523C14.4311 79.0643 14.7926 78.679 15.2521 78.679H19.4486C19.7671 78.679 20.0275 78.4191 20.0275 78.101V72.1135C20.0275 71.8903 20.2052 71.7129 20.4288 71.7129H25.3941C25.8965 71.7129 26.3039 71.3184 26.3222 70.8231L26.5336 65.3401C26.5397 65.1291 26.6929 64.9517 26.895 64.9151L28.6196 64.5787C29.1985 64.4655 29.6243 63.9671 29.6519 63.3769L29.8112 59.0804C29.8234 58.7257 30.1236 58.4444 30.4789 58.4444H32.2218C32.6537 58.4444 33.006 58.1019 33.0182 57.6768C33.0764 55.5729 33.1469 53.781 33.2418 52.307C33.6952 45.2156 32.6874 37.7602 33.2725 33.0326C33.3246 32.6198 33.6738 32.314 34.0934 32.314H36.259C36.7185 32.314 37.0922 32.684 37.0922 33.1396V58.1661C37.0922 58.4138 36.887 58.6095 36.6389 58.6095H34.1118C33.6278 58.6095 33.2327 58.9918 33.2143 59.4749L33.0366 64.1016C33.0244 64.4319 32.813 64.7255 32.5006 64.8386L31.4683 65.227C31.162 65.3401 30.9476 65.6092 30.8894 65.9272C30.3748 68.8446 29.9275 70.7772 29.5385 71.716C29.5079 71.7986 29.2383 72.2878 28.7421 73.196C28.6533 73.3612 28.5889 73.5324 28.5522 73.7098L26.215 84.6604C26.1691 84.8775 25.9975 85.0426 25.7831 85.0855L24.42 85.3515C24.0831 85.4157 23.8411 85.7123 23.8411 86.0579V90.0119C23.8411 90.5256 23.4214 90.9445 22.9038 90.9445H20.5176C20.2297 90.9445 19.9969 91.1739 20.003 91.4583L20.0857 101.62H20.0918Z" fill="white"/>
<path d="M73.3677 101.195L73.3432 120.203L58.3339 120.157L58.0337 114.846C58.0092 114.402 58.3645 114.026 58.8117 114.026H60.4107C60.7599 114.026 61.0417 113.739 61.0356 113.39L60.7874 101.556C60.8334 101.498 60.9008 101.473 60.9835 101.479L73.3708 101.192L73.3677 101.195Z" fill="#05B8B8"/>
<path d="M20.0916 101.62L60.7822 101.555L61.0303 113.39C61.0365 113.738 60.7577 114.026 60.4054 114.026H58.8065C58.3623 114.026 58.004 114.402 58.0285 114.845L58.3286 120.157C58.0162 120.252 57.8447 120.374 57.814 120.518L20.1161 120.411L20.0916 101.62Z" fill="#08F8F8"/>
<path d="M12.9386 101.66L13.2326 119.741C13.1316 120.029 12.9141 120.167 12.5833 120.173C10.7699 120.203 8.90443 120.326 6.98691 120.527L6.92871 101.4L12.9386 101.66Z" fill="#08F8F8"/>
<path d="M13.2287 119.738C13.1705 119.974 13.2532 120.221 13.4768 120.481C13.4247 121.506 13.3818 122.539 13.342 123.576C13.2961 124.542 13.3481 125.573 13.4952 126.658C13.6606 127.918 13.8566 129.576 14.0925 131.634C14.1231 131.921 14.2518 132.065 14.4754 132.077L14.653 132.242C14.7939 132.371 14.9777 132.438 15.1676 132.438H19.4468C19.6306 132.438 19.7838 132.291 19.796 132.101L20.0442 126.325C20.0442 124.481 20.4822 122.683 19.8205 120.655C19.9155 120.426 20.0104 120.344 20.1146 120.408L57.8126 120.515C58.3547 124.233 58.4742 128.325 58.1893 132.786C58.171 133.156 57.8585 133.447 57.4879 133.447H55.6684C55.2304 133.447 54.872 133.796 54.8536 134.236L54.6759 138.792C54.6637 139.129 54.4523 139.428 54.1337 139.548L52.2377 140.26C52.0018 140.349 51.8487 140.572 51.8487 140.82V151.122C51.8487 151.911 51.2115 152.547 50.4212 152.547H47.9248C47.3703 152.547 46.9262 152.991 46.9262 153.544V157.651C46.9262 158.146 46.5188 158.553 46.0226 158.553H43.4955C42.9748 158.553 42.5459 158.978 42.5459 159.501V162.767C42.5459 163.192 42.1967 163.528 41.7679 163.51L33.2493 163.186C32.943 163.174 32.6826 163.415 32.6765 163.721L32.5356 169.25L26.9913 169.256C26.8075 169.256 26.6544 169.103 26.6544 168.913V163.608C26.6544 163.424 26.5012 163.278 26.3174 163.278H20.6506C20.2953 163.278 20.0074 162.99 20.0074 162.635V152.715C20.0074 152.569 19.894 152.449 19.747 152.449H14.3038C13.8597 152.449 13.5013 152.095 13.5013 151.654V134.095C13.5013 133.817 13.2716 133.588 12.9928 133.588H7.54962C7.23106 133.588 6.9707 133.328 6.9707 133.01L6.97682 120.527C8.89434 120.322 10.7567 120.203 12.5732 120.172C12.904 120.166 13.1215 120.026 13.2225 119.741M25.4107 133.34C25.4107 133.117 25.2423 132.939 25.0156 132.933L20.6629 132.857C20.4423 132.857 20.2555 133.028 20.2555 133.251L20.1575 138.857C20.1575 139.08 20.326 139.257 20.5526 139.263L24.9053 139.34C25.1259 139.34 25.3127 139.168 25.3127 138.945L25.4107 133.34ZM25.2545 139.655C24.9666 139.655 24.7338 139.89 24.7338 140.175V145.939C24.7338 146.226 24.9697 146.459 25.2545 146.459H30.5691C30.857 146.459 31.0898 146.223 31.0898 145.939V140.175C31.0898 139.887 30.8539 139.655 30.5691 139.655H25.2545Z" fill="#9637F9"/>
<path d="M73.3416 120.203L73.559 132.533C73.5713 133.199 73.0383 133.747 72.3675 133.747H67.7912C67.442 133.747 67.1479 134.019 67.1173 134.371C66.6272 139.918 66.4985 145.633 66.7221 151.498C66.7405 151.936 66.3852 152.306 65.938 152.306H61.5853C60.9941 152.306 60.504 152.777 60.4825 153.367L60.1456 162.207C60.1272 162.684 59.7382 163.057 59.2603 163.057H54.2429C53.9244 163.057 53.664 163.317 53.664 163.635V168.788C53.664 169.024 53.4741 169.213 53.2321 169.213L32.5437 169.25L32.6846 163.721C32.6907 163.415 32.9511 163.174 33.2574 163.186L41.776 163.51C42.2018 163.528 42.554 163.192 42.554 162.767V159.501C42.554 158.981 42.9798 158.553 43.5036 158.553H46.0307C46.5269 158.553 46.9343 158.146 46.9343 157.651V153.544C46.9343 152.991 47.3785 152.547 47.9329 152.547H50.4293C51.2196 152.547 51.8567 151.911 51.8567 151.122V140.82C51.8567 140.572 52.0099 140.349 52.2458 140.26L54.1419 139.548C54.4604 139.428 54.6687 139.129 54.684 138.792L54.8617 134.236C54.8801 133.799 55.2385 133.447 55.6765 133.447H57.496C57.8666 133.447 58.176 133.153 58.1974 132.787C58.4854 128.325 58.3629 124.233 57.8207 120.515C57.8513 120.368 58.0259 120.249 58.3353 120.154L73.3446 120.2L73.3416 120.203Z" fill="#6D0FCD"/>
<path d="M13.4727 120.482L19.8195 120.659C20.4811 122.686 20.0431 124.485 20.0431 126.328L14.0516 126.359C13.7852 126.359 13.6197 126.647 13.7514 126.873L14.2599 127.75C14.3549 127.916 14.407 128.105 14.4131 128.304L14.4713 132.077C14.2477 132.065 14.1221 131.918 14.0884 131.634C13.8525 129.576 13.6565 127.916 13.4911 126.659C13.3441 125.573 13.295 124.543 13.3379 123.576C13.3747 122.54 13.4206 121.506 13.4727 120.482Z" fill="#9837FD"/>
<path d="M20.0465 126.328L19.7984 132.105C19.7861 132.294 19.6329 132.441 19.4492 132.441H15.17C14.98 132.441 14.7932 132.371 14.6553 132.245L14.4777 132.08L14.4195 128.307C14.4134 128.111 14.3613 127.918 14.2663 127.753L13.7579 126.876C13.6231 126.646 13.7885 126.362 14.058 126.362L20.0495 126.331L20.0465 126.328Z" fill="#B8FFFF"/>
<path d="M25.3183 138.946C25.3183 139.169 25.1315 139.34 24.9109 139.34L20.5582 139.264C20.3346 139.257 20.1631 139.08 20.1631 138.857L20.2611 133.252C20.2611 133.028 20.4479 132.857 20.6685 132.857L25.0212 132.934C25.2448 132.94 25.4163 133.117 25.4163 133.34L25.3183 138.946Z" fill="#B8FFFF"/>
<path d="M25.2524 139.655H30.567C30.8549 139.655 31.0877 139.89 31.0877 140.175V145.939C31.0877 146.226 30.8518 146.459 30.567 146.459H25.2524C24.9645 146.459 24.7317 146.223 24.7317 145.939V140.175C24.7317 139.887 24.9676 139.655 25.2524 139.655Z" fill="#B8FFFF"/>
</svg>
