<svg width="129" height="193" viewBox="0 0 129 193" fill="none" xmlns="http://www.w3.org/2000/svg">
<path d="M103.483 23.5598L102.99 21.8308L102.477 11.9918C102.901 10.2542 102.768 9.16286 102.066 8.71349C101.976 8.65786 101.886 8.63646 101.787 8.63646L95.3443 8.73489L27.4703 8.81192C26.948 8.81192 26.567 9.30409 26.6997 9.81338C26.9437 10.8063 26.8667 12.454 26.4643 14.7736C25.9163 16.3999 25.9505 18.8436 26.5627 22.0961L24.8032 23.41L19.0064 23.3201C18.6811 23.3073 18.4285 23.0548 18.4285 22.7424V8.65785C18.4285 8.45671 18.5954 8.30264 18.7966 8.30264H25.3426C25.7793 8.30264 26.1218 7.95598 26.1218 7.52373V0.556362C26.1218 0.243943 26.3786 0 26.6912 0L102.836 0C103.226 0 103.538 0.312419 103.538 0.689033V7.37394C103.538 7.77623 103.864 8.09721 104.262 8.09721H110.727C111.039 8.09721 111.296 8.35399 111.296 8.66641V22.7638C111.296 23.1318 110.996 23.4314 110.628 23.4443L103.483 23.5555V23.5598Z" fill="black"/>
<path d="M102.485 11.9917C103.5 14.8463 101.103 15.7707 95.293 14.7564C95.37 14.658 95.4385 14.5681 95.5156 14.4654C95.5841 14.3669 95.6269 14.2428 95.6141 14.1102L95.3486 8.73912L101.792 8.64069C101.89 8.64069 101.98 8.66208 102.07 8.71772C102.772 9.16281 102.905 10.2541 102.481 11.996L102.485 11.9917Z" fill="#02D8D8"/>
<path d="M95.3461 8.73923L95.6115 14.1103C95.6244 14.2429 95.5773 14.367 95.5131 14.4655C95.436 14.5639 95.3675 14.6538 95.2904 14.7565L26.4661 14.7779C26.8685 12.4583 26.9456 10.8106 26.7015 9.81771C26.5688 9.30415 26.9456 8.81626 27.4721 8.81626L95.3461 8.73923Z" fill="#00FFFF"/>
<path d="M102.484 11.9918L102.998 21.8308C103.019 22.109 102.985 22.3658 102.886 22.6012C102.741 22.9478 102.394 23.1704 102.017 23.149C93.8788 22.7124 88.6943 22.5027 86.4638 22.5241C84.2461 22.5584 67.2412 22.6568 35.4577 22.8366C31.0866 22.858 28.5907 22.8708 27.9528 22.858C27.6403 22.8451 27.3406 22.7338 27.0923 22.5327L26.57 22.0962C25.9578 18.8436 25.9235 16.3999 26.4715 14.7736L95.2959 14.7522C101.105 15.7665 103.503 14.8421 102.488 11.9875L102.484 11.9918Z" fill="#01C4C4"/>
<path d="M102.993 21.8351L103.485 23.5641L103.609 30.9423C103.622 31.289 103.331 31.5757 102.984 31.5757H96.0955C95.8943 31.5757 95.7273 31.7298 95.7273 31.931V59.1157C95.7273 59.7191 96.2068 60.1984 96.8105 60.1984H102.427C102.761 60.1984 103.04 60.4638 103.04 60.8019V68.1459C103.04 68.4454 103.284 68.6937 103.588 68.6937H111.003C111.302 68.6937 111.551 68.9376 111.551 69.2415V75.8493C111.551 76.0847 111.739 76.273 111.962 76.273H119.043C119.3 76.273 119.501 76.4742 119.501 76.7181V92.2449C119.501 92.5573 119.758 92.8013 120.07 92.8013H127.661C127.986 92.8013 128.239 93.0666 128.239 93.3919V129.769C128.239 130.026 128.037 130.227 127.781 130.227H121.483C121.183 130.227 120.948 130.463 120.948 130.762V148.117C120.948 148.382 120.725 148.609 120.455 148.609H114.513C114.214 148.609 113.978 148.844 113.978 149.144V159.385C113.978 159.787 113.653 160.108 113.255 160.108H107.646C107.244 160.108 106.91 160.442 106.91 160.853V172.365C106.91 172.644 106.674 172.879 106.396 172.879H100.064C99.6832 172.879 99.3835 173.179 99.3835 173.559V183.946C99.3835 184.246 99.148 184.481 98.8483 184.481H92.0156C91.7929 184.481 91.6131 184.661 91.6131 184.884V191.907C91.6131 192.163 91.4119 192.364 91.1679 192.364H38.0897C37.7772 192.364 37.5332 192.121 37.5332 191.808V185.187C37.5332 184.806 37.2335 184.507 36.8525 184.507H29.8741C29.583 184.507 29.3518 184.272 29.3518 183.985V173.174C29.3518 172.896 29.1292 172.674 28.8509 172.674H21.8041C21.5472 172.674 21.346 172.464 21.346 172.207V160.75C21.346 160.541 21.1662 160.361 20.9564 160.361H14.7573C14.5218 160.361 14.3334 160.172 14.3334 159.937V149.306C14.3334 149.05 14.1236 148.84 13.8539 148.84H7.65476C7.41073 148.84 7.20952 148.652 7.20952 148.403L7.20952 130.762C7.20952 130.437 6.94409 130.172 6.61872 130.172H0.492337C0.226903 130.172 0 129.962 0 129.692L0 93.4604C0 93.0923 0.299683 92.8013 0.667865 92.8013H8.09144C8.36972 92.8013 8.60519 92.5659 8.60519 92.2877V76.9407C8.60519 76.6154 8.86206 76.3629 9.18315 76.3629L15.9731 76.3757C16.5639 76.2859 16.8636 76.4185 16.8893 76.7866C17.1333 81.9693 17.2703 87.1863 17.2917 92.4247C17.2917 92.7242 17.5357 92.9725 17.8483 92.981L26.9329 93.2164L29.0864 93.0837L40.7612 93.0709L100.586 92.9725L110.51 93.1608C110.836 93.1736 111.088 92.9168 111.088 92.5916V77.2574C111.088 77.022 110.9 76.8337 110.664 76.8465L103.361 77.0134C103.035 77.0263 102.783 76.7695 102.77 76.4442L102.624 70.3371C102.603 69.6138 102.012 69.0446 101.289 69.0574L96.4851 69.1687C95.6503 69.1901 94.9696 68.5353 94.9482 67.6965L94.824 62.471C94.8026 61.6107 94.0791 60.9559 93.2186 61.0116C90.7655 61.1913 86.5399 61.7006 86.8867 57.6777C87.6573 48.9086 87.6787 40.469 86.9552 32.3675C86.9124 31.8454 86.4757 31.4431 85.9534 31.4431H42.2039C41.9471 31.4431 41.7459 31.6528 41.7373 31.9096L41.5917 43.1096L41.6131 60.5194C41.626 61.0886 41.1679 61.5465 40.5985 61.5679L34.1639 61.7135C33.8984 61.7263 33.6844 61.936 33.6844 62.2056V68.3342C33.6844 68.9034 33.2263 69.3613 32.6569 69.3613H25.8798C25.4902 69.3613 25.1777 69.6866 25.1905 70.0632L25.3232 76.0162C25.3361 76.3287 25.0792 76.5854 24.7667 76.5726L17.2061 76.3715C17.1718 76.3715 17.1504 76.3586 17.129 76.3501C16.9835 76.273 16.9278 76.1618 16.9621 76.0034L16.7951 69.2714C16.7823 68.9034 17.0862 68.591 17.4544 68.591H24.2444C24.5783 68.591 24.8566 68.3128 24.8566 67.9661V60.8575C24.8566 60.5579 25.1134 60.3225 25.4131 60.3354L32.2459 60.7377C32.6569 60.7591 33.0037 60.4253 33.0037 60.0144V31.7598C33.0037 31.4901 32.7939 31.2676 32.5242 31.2676H26.5947C26.2822 31.2676 26.0382 31.0237 26.0382 30.7112C26.051 28.4387 26.1067 26.2432 26.2051 24.1248C26.2266 23.5684 25.7599 23.3459 24.8095 23.4443L26.569 22.1304L27.0914 22.5669C27.3354 22.7681 27.6393 22.8794 27.9519 22.8922C28.5855 22.905 31.0857 22.8922 35.4568 22.8708C67.2403 22.6911 84.2452 22.5926 86.4629 22.5584C88.6934 22.537 93.8779 22.7467 102.016 23.1832C102.397 23.2046 102.74 22.9821 102.885 22.6354C102.984 22.4 103.018 22.1433 102.997 21.8651M21.1962 129.226L29.6344 129.324L91.155 129.269L119.004 129.547C119.351 129.547 119.638 129.256 119.638 128.913V100.56C119.638 100.351 119.471 100.179 119.27 100.179L106.203 100.312L28.684 100.257L21.3246 100.235L9.35011 100.201C8.93912 100.188 8.60519 100.535 8.60519 100.946L8.60519 128.374C8.60519 128.708 8.87062 128.978 9.19599 128.986L21.1919 129.222M99.5034 135.949L24.0688 135.825L15.7719 135.915C15.4251 135.928 15.1597 136.206 15.1682 136.54L15.4037 146.828C15.4166 147.509 15.9603 148.065 16.641 148.078L21.3332 148.189C21.8255 148.202 22.2022 148.6 22.1937 149.092L21.9839 158.152C21.9625 158.931 22.5875 159.569 23.3667 159.59L28.6754 159.715C29.1977 159.727 29.6215 160.172 29.613 160.695L29.3904 170.213C29.3689 171.338 30.2808 172.263 31.4068 172.241L36.724 172.117C37.1607 172.104 37.516 172.451 37.5246 172.888L37.7601 183.206C37.7729 183.54 38.0383 183.796 38.3723 183.796H89.4554C90.2688 183.796 90.9367 183.137 90.9624 182.324L91.1722 173.452C91.185 172.849 91.6859 172.37 92.2853 172.395L98.1505 172.528C98.5743 172.541 98.9297 172.194 98.9425 171.77L99.2079 160.391C99.2208 159.899 99.6104 159.509 100.098 159.501L105.039 159.389C105.63 159.376 106.109 158.897 106.122 158.307L106.332 149.122C106.345 148.519 106.824 148.04 107.424 148.031L111.379 147.941C112.081 147.92 112.651 147.363 112.659 146.661L112.882 137.066C112.903 136.441 112.39 135.919 111.769 135.919L99.4948 135.954L99.5034 135.949Z" fill="black"/>
<path d="M100.588 92.951L100.533 84.7725C100.533 84.4044 100.233 84.1049 99.8648 84.1049H95.909C95.4509 84.1049 95.0955 83.724 95.1169 83.2703L95.4295 77.9977C95.4637 77.497 95.0185 77.0947 94.5261 77.1717L92.073 77.5612C91.5036 77.651 90.9899 77.1931 91.0241 76.6239L91.2895 72.1003C91.3238 71.5439 90.7672 71.1416 90.2407 71.3556L86.82 72.7379C86.1864 72.9947 85.48 72.5282 85.48 71.8349V62.0515C85.48 61.4951 85.0219 61.0372 84.4653 61.0372H80.0942C79.893 61.0372 79.7389 60.8703 79.7389 60.6692V42.5917C79.7389 42.2664 79.482 42.0139 79.1609 42.0139L54.1074 42.1594H47.9853C45.8105 42.061 43.6699 42.3691 41.585 43.0967L41.7305 31.8967C41.7434 31.6399 41.9403 31.4302 42.1972 31.4302H85.9466C86.4689 31.4302 86.9056 31.8325 86.9484 32.3546C87.6719 40.4561 87.6505 48.8957 86.8799 57.6648C86.5331 61.6877 90.7587 61.1742 93.2118 60.9987C94.068 60.9431 94.7958 61.6021 94.8172 62.4581L94.9414 67.6836C94.9628 68.5181 95.6435 69.1772 96.4783 69.1558L101.282 69.0445C102.005 69.0317 102.596 69.6009 102.618 70.3242L102.763 76.4313C102.776 76.7566 103.029 77.0091 103.354 77.0005L110.658 76.8336C110.893 76.8208 111.081 77.0134 111.081 77.2445V92.5787C111.081 92.9039 110.825 93.1564 110.504 93.1479L100.58 92.9596L100.588 92.951Z" fill="#7119E0"/>
<path d="M47.9852 42.1509L48.1307 60.9988C48.1436 61.4224 47.7754 61.7691 47.3387 61.7434L43.2031 61.508C42.7236 61.4738 42.3126 61.8419 42.2783 62.3212L41.9102 68.7065C41.8888 69.173 41.4863 69.5325 41.0068 69.5068L37.8858 69.3185C37.5733 69.2971 37.3164 69.5411 37.295 69.8535L36.9954 74.9806C36.9739 75.3914 36.64 75.7252 36.2247 75.7381C35.8137 75.7509 35.1973 75.661 34.3624 75.4727C33.7845 75.3401 33.2365 75.798 33.2493 76.3886L33.3949 82.4273C33.4077 82.7953 33.1038 83.0949 32.7356 83.0863L27.4611 83.0307C25.5774 85.3375 25.4105 88.727 26.9388 93.195L17.8542 92.9596C17.5416 92.9468 17.2976 92.7028 17.2976 92.4033C17.2762 87.1649 17.1435 81.9479 16.8952 76.7652C16.8738 76.3971 16.5741 76.2645 15.979 76.3544C16.4799 76.41 16.8053 76.2773 16.9594 75.9735C16.9251 76.1275 16.9808 76.2388 17.1264 76.3201C17.1478 76.333 17.1692 76.3415 17.2034 76.3415L24.764 76.5427C25.0765 76.5555 25.3334 76.2987 25.3206 75.9863L25.1878 70.0332C25.175 69.6523 25.4875 69.3313 25.8771 69.3313H32.6542C33.2236 69.3313 33.6817 68.8734 33.6817 68.3042V62.1757C33.6817 61.9061 33.8958 61.6963 34.1612 61.6835L40.5958 61.538C41.1652 61.5166 41.6233 61.0587 41.6105 60.4895L41.5891 43.0796C43.674 42.3563 45.8146 42.0439 47.9894 42.1424L47.9852 42.1509Z" fill="#9837FA"/>
<path d="M54.1063 42.1508L53.8965 73.29C53.8965 73.6024 53.6525 73.8464 53.34 73.8592L48.6221 73.9705C48.0527 73.9833 47.5946 74.4626 47.6203 75.0276L47.7444 80.5655C47.7573 80.7752 47.5775 80.955 47.3549 80.9678L42.9966 81.0662C42.3844 81.0791 41.9135 81.644 42.0162 82.2603C42.363 84.3445 42.0162 85.4016 40.9588 85.4572C40.5349 85.4786 40.1882 85.8039 40.1239 86.2147C39.7215 88.8211 39.9356 91.0979 40.7704 93.0451L29.0956 93.058L28.6375 92.9039C28.402 92.814 28.2822 92.5701 28.3378 92.3262C29.1299 89.1378 28.8387 86.0393 27.4688 83.0306L32.7432 83.0863C33.1114 83.0991 33.411 82.7952 33.4025 82.4272L33.2569 76.3885C33.2441 75.7979 33.7921 75.34 34.37 75.4727C35.2049 75.661 35.8213 75.7508 36.2323 75.738C36.6433 75.7252 36.9815 75.3913 37.003 74.9805L37.3026 69.8534C37.324 69.541 37.5809 69.297 37.8934 69.3184L41.0144 69.5067C41.4939 69.5281 41.8964 69.1729 41.9178 68.7064L42.2859 62.3211C42.3202 61.8418 42.7312 61.4737 43.2107 61.508L47.3463 61.7433C47.783 61.7647 48.1469 61.4181 48.1383 60.9987L47.9928 42.1508H54.1149H54.1063Z" fill="#EFE3FF"/>
<path d="M100.587 92.9511L40.762 93.0495C39.9272 91.098 39.7131 88.8255 40.1156 86.2191C40.1841 85.8083 40.5266 85.483 40.9504 85.4616C42.0079 85.406 42.3546 84.3489 42.0079 82.2647C41.9094 81.6527 42.376 81.0835 42.9883 81.0706L47.3465 80.9722C47.5691 80.9593 47.7489 80.7839 47.7361 80.5699L47.6119 75.0319C47.5905 74.4628 48.0486 73.9834 48.6137 73.9749L53.3316 73.8636C53.6441 73.8507 53.8882 73.6068 53.8882 73.2944L54.0979 42.1552L79.1514 42.0097C79.4768 42.0097 79.7294 42.2665 79.7294 42.5875V60.665C79.7294 60.8661 79.8835 61.033 80.0847 61.033H84.4558C85.0124 61.033 85.4705 61.4909 85.4705 62.0473V71.8307C85.4705 72.5198 86.1726 72.9905 86.8105 72.7337L90.2312 71.3514C90.7535 71.1417 91.3143 71.5397 91.2801 72.0961L91.0146 76.6197C90.9804 77.1889 91.4941 77.6469 92.0635 77.557L94.5166 77.1675C95.009 77.0905 95.4542 77.4928 95.42 77.9935L95.1074 83.2661C95.086 83.724 95.4414 84.1007 95.8994 84.1007H99.8553C100.223 84.1007 100.523 84.4002 100.523 84.7683L100.579 92.9468L100.587 92.9511Z" fill="#C291FF"/>
<path d="M27.4599 83.0307C28.8299 86.0393 29.121 89.1378 28.329 92.3262C28.2733 92.5702 28.3975 92.8184 28.6287 92.904L29.0867 93.0581L26.9333 93.1907C25.4049 88.7227 25.5719 85.3332 27.4556 83.0264L27.4599 83.0307Z" fill="#C291FF"/>
<path d="M21.3299 100.239C21.7751 103.706 21.5311 106.959 20.5935 110.001L20.3581 118.171C21.1715 121.706 21.4498 125.396 21.1929 129.226L9.197 128.99C8.87163 128.978 8.6062 128.712 8.6062 128.378V100.95C8.6062 100.539 8.94013 100.192 9.35113 100.205L21.3256 100.239H21.3299Z" fill="#00FFFF"/>
<path d="M28.6878 100.261L28.4523 109.989L20.592 110.001C21.5296 106.959 21.7736 103.706 21.3284 100.239L28.6878 100.261Z" fill="white"/>
<path d="M106.203 100.316L106.224 110.07L100.415 110.382C99.9907 110.404 99.6567 110.75 99.6567 111.174V117.003C99.6567 117.461 99.9821 117.863 100.427 117.949C102.478 118.36 104.61 118.372 106.815 118.004L106.635 128.494C106.622 128.841 106.344 129.106 106.001 129.119L91.15 129.273L29.6294 129.329L28.5591 118.026L28.4478 109.989L28.6832 100.261L106.203 100.316ZM53.1117 111.161C53.1117 110.549 52.6193 110.057 52.0071 110.057H46.5015C45.8893 110.057 45.397 110.549 45.397 111.161V117.29C45.397 117.902 45.8893 118.394 46.5015 118.394H52.0071C52.6193 118.394 53.1117 117.902 53.1117 117.29V111.161ZM82.6562 111.409C82.6476 110.592 81.9883 109.937 81.1749 109.946L76.3799 109.971C75.5665 109.98 74.9072 110.639 74.9158 111.452L74.9457 116.892C74.9543 117.709 75.6136 118.364 76.427 118.355L81.222 118.33C82.0354 118.321 82.6947 117.662 82.6861 116.849L82.6562 111.409Z" fill="#00FFFF"/>
<path d="M91.1538 129.273L106.005 129.119C106.352 129.106 106.63 128.841 106.639 128.494L106.819 118.004C108.035 114.641 107.846 111.996 106.228 110.07L106.206 100.316L119.273 100.184C119.474 100.184 119.641 100.351 119.641 100.565V128.918C119.641 129.264 119.35 129.551 119.007 129.551L91.1581 129.273H91.1538Z" fill="#01C4C4"/>
<path d="M28.4514 109.993L28.5628 118.026L20.3557 118.171L20.5912 110.001L28.4514 109.993Z" fill="black"/>
<path d="M106.23 110.07C107.849 112 108.037 114.641 106.821 118.005C104.612 118.373 102.484 118.36 100.434 117.949C99.9885 117.859 99.6631 117.457 99.6631 117.003V111.174C99.6631 110.75 99.997 110.404 100.421 110.382L106.23 110.07Z" fill="black"/>
<path d="M28.5631 118.026L29.6334 129.328L21.1952 129.23C21.4521 125.395 21.1738 121.706 20.3604 118.176L28.5674 118.03L28.5631 118.026Z" fill="#FEFDE6"/>
<path d="M24.0709 135.825C24.6746 137.867 24.94 139.895 24.8629 141.92C24.8287 142.835 25.5222 143.602 26.4341 143.649L28.9772 143.794C29.7478 143.837 30.3814 144.419 30.5055 145.189L31.4217 150.963C31.4902 151.386 31.7556 151.754 32.1367 151.956C32.9629 152.379 33.9305 152.525 35.0479 152.379C35.9084 152.268 36.6533 152.97 36.6105 153.839L36.3665 158.02C36.3108 158.923 37.0258 159.68 37.9291 159.68H42.3987C42.7883 159.68 43.1222 159.959 43.1907 160.348L43.6573 163.335C43.7901 164.127 44.4494 164.73 45.25 164.786L56.7535 165.445C57.4984 165.488 58.1235 166.057 58.2262 166.806C58.436 168.355 59.0825 169.348 60.1442 169.78C60.2898 169.836 60.4439 169.879 60.6023 169.892L73.5443 170.636C74.1223 170.671 74.6275 170.213 74.6574 169.635L74.9914 163.875C75.0342 163.185 75.6378 162.65 76.3314 162.693L81.5501 162.993C82.6204 163.049 83.5109 162.214 83.5238 161.144C83.558 158.803 84.517 157.275 86.4221 156.573C87.0686 156.338 87.5481 155.803 87.7279 155.135C88.3187 152.974 89.5774 151.335 91.5296 150.222C92.0305 149.931 92.3644 149.418 92.4329 148.84L92.8353 145.262C92.9253 144.492 93.5161 143.88 94.2738 143.756L97.5618 143.242C98.0969 143.152 98.5079 142.741 98.5893 142.206L99.514 135.954L111.788 135.919C112.413 135.919 112.927 136.442 112.901 137.066L112.679 146.662C112.666 147.363 112.101 147.92 111.399 147.941L107.443 148.031C106.839 148.044 106.36 148.523 106.351 149.122L106.141 158.307C106.128 158.897 105.649 159.377 105.058 159.389L100.118 159.501C99.6253 159.513 99.2357 159.903 99.2272 160.391L98.9617 171.771C98.9489 172.194 98.5935 172.541 98.1697 172.528L92.3045 172.395C91.7008 172.374 91.1999 172.853 91.1914 173.452L90.9816 182.324C90.9602 183.137 90.2923 183.797 89.4746 183.797H38.3915C38.0576 183.797 37.7878 183.54 37.7793 183.206L37.5438 172.888C37.531 172.451 37.1756 172.109 36.7432 172.117L31.426 172.241C30.3 172.263 29.3839 171.338 29.4096 170.213L29.6322 160.695C29.645 160.173 29.2212 159.723 28.6946 159.715L23.3859 159.591C22.6067 159.569 21.9817 158.931 22.0031 158.153L22.2129 149.092C22.2257 148.6 21.8447 148.202 21.3524 148.189L16.6602 148.078C15.9795 148.065 15.4358 147.509 15.4229 146.828L15.1875 136.54C15.1746 136.206 15.4443 135.928 15.7911 135.915L24.088 135.825H24.0709Z" fill="#7119E0"/>
<path d="M99.5051 135.949L98.5804 142.202C98.5033 142.737 98.088 143.148 97.5529 143.238L94.2649 143.751C93.5072 143.875 92.9164 144.487 92.8265 145.258L92.424 148.835C92.3555 149.413 92.0216 149.927 91.5207 150.218C89.5685 151.331 88.3098 152.97 87.719 155.131C87.5392 155.799 87.0597 156.333 86.4132 156.569C84.5081 157.271 83.5491 158.799 83.5149 161.14C83.502 162.21 82.6115 163.044 81.5412 162.988L76.3225 162.689C75.6332 162.646 75.0296 163.181 74.9825 163.87L74.6485 169.631C74.6143 170.208 74.1134 170.666 73.5354 170.632L60.5934 169.887C60.4393 169.874 60.2809 169.832 60.1353 169.776C59.0778 169.34 58.4271 168.351 58.2173 166.802C58.1189 166.057 57.4938 165.488 56.7446 165.441L45.241 164.782C44.4405 164.726 43.7812 164.123 43.6484 163.331L43.1818 160.344C43.1133 159.954 42.7794 159.676 42.3898 159.676H37.9202C37.0169 159.676 36.3019 158.918 36.3576 158.015L36.6016 153.834C36.6444 152.965 35.8995 152.263 35.039 152.375C33.9259 152.52 32.954 152.375 32.1278 151.951C31.7467 151.75 31.4813 151.382 31.4128 150.958L30.4966 145.185C30.3725 144.414 29.7389 143.837 28.9683 143.79L26.4252 143.644C25.5091 143.601 24.8198 142.831 24.854 141.915C24.9311 139.887 24.6657 137.858 24.062 135.821L99.4965 135.945L99.5051 135.949Z" fill="#9837FA"/>
<path d="M53.1117 117.29C53.1117 117.902 52.6193 118.394 52.0071 118.394H46.5015C45.8893 118.394 45.397 117.902 45.397 117.29V111.161C45.397 110.549 45.8893 110.057 46.5015 110.057H52.0071C52.6193 110.057 53.1117 110.549 53.1117 111.161V117.29Z" fill="black"/>
<path d="M82.6845 116.849C82.6931 117.662 82.0338 118.317 81.2203 118.33L76.4254 118.356C75.612 118.364 74.9527 117.709 74.9441 116.892L74.9141 111.452C74.9056 110.639 75.5649 109.984 76.3783 109.972L81.1732 109.946C81.9867 109.937 82.646 110.592 82.6545 111.41L82.6845 116.849Z" fill="black"/>
</svg>
