<svg width="191" height="247" viewBox="0 0 191 247" fill="none" xmlns="http://www.w3.org/2000/svg">
<path d="M167.785 167.751L167.199 167.379C167.1 167.318 167.032 167.233 166.987 167.128L153.424 135.598C153.303 135.317 152.977 135.187 152.697 135.308L148.208 137.239C147.769 137.428 147.255 137.223 147.066 136.784L144.619 131.094C144.426 130.647 143.9 130.437 143.452 130.629L138.972 132.557C138.612 132.711 138.19 132.55 138.035 132.191L136.021 127.509C135.776 126.939 135.124 126.679 134.554 126.924L130.714 128.576C130.266 128.768 129.74 128.559 129.547 128.111L127.73 123.885C127.616 123.622 127.312 123.494 127.049 123.607L122.665 125.493C122.217 125.685 121.691 125.475 121.498 125.028L119.537 120.469C119.375 120.092 118.94 119.925 118.57 120.105L113.34 122.656C111.701 120.899 110.485 118.845 109.713 116.496C109.575 116.078 109.1 115.867 108.696 116.04L80.2355 128.283C79.9549 128.404 79.825 128.73 79.9457 129.01L82.6387 135.271C82.8499 135.762 82.6201 136.339 82.1291 136.55L77.5785 138.507C77.2979 138.628 77.168 138.954 77.2887 139.235L78.903 142.987C79.0576 143.347 78.9353 143.763 78.606 143.988C77.2449 144.906 75.797 145.549 74.271 145.915L71.7692 141.162C71.631 140.889 71.7484 140.558 72.0289 140.437L75.4309 138.974C75.9044 138.77 76.1192 138.231 75.9156 137.758L73.3621 131.822C73.2 131.445 72.7736 131.275 72.4054 131.433L69.8188 132.546C69.5031 132.682 69.1307 132.54 68.9949 132.225L66.913 127.385C66.8074 127.139 66.519 127.024 66.2647 127.134L61.451 129.204C60.8899 129.446 60.2504 129.191 60.009 128.63L57.7082 123.281C57.3424 122.431 57.7659 121.459 58.6353 121.137L63.6635 119.275L66.5785 125.617C66.7381 125.964 67.1481 126.12 67.5026 125.978L74.5799 123.131L114.753 105.892C114.954 105.805 115.049 105.567 114.962 105.365L112.258 99.0783C112.171 98.8766 111.933 98.7817 111.731 98.8684L71.511 115.972L63.8461 118.999L61.438 113.884C61.3198 113.634 61.0138 113.526 60.7633 113.644L48.8709 119.332C48.6643 119.431 48.4173 119.34 48.3267 119.129L46.0826 113.912C45.9657 113.641 45.6434 113.519 45.3754 113.645L41.8233 115.339C41.5064 115.496 41.1215 115.35 40.9819 115.026L38.9829 110.379C38.817 109.993 38.9968 109.542 39.3826 109.376L59.7595 100.61C60.1716 100.433 60.6506 100.653 60.7928 101.08C61.3566 102.801 62.1759 104.392 63.2431 105.834L55.1008 109.804C54.7576 109.973 54.6015 110.383 54.7562 110.742L55.8198 113.215C56.0461 113.741 56.7468 113.824 57.0896 113.365C57.7526 112.467 58.495 111.898 59.3093 111.641C59.6225 111.548 59.966 111.598 60.237 111.793C60.7626 112.169 61.1865 112.382 61.5225 112.414C61.9261 112.459 62.3446 112.393 62.7216 112.231L68.1965 109.813C68.9293 109.488 68.7523 108.4 67.9526 108.328C66.0775 108.148 64.5886 107.271 63.5112 105.709L69.6609 102.783C69.9941 102.639 70.1414 102.233 69.9981 101.9L68.067 97.4107C67.9727 97.1915 67.7219 97.0916 67.5027 97.1859L62.4611 99.3546C62.0315 99.5394 61.5462 99.3533 61.3439 98.9312L59.3971 94.8644C59.2513 94.5738 58.9165 94.4477 58.6184 94.5759L47.9302 99.1736C47.6408 99.2981 47.311 99.1594 47.1866 98.8701L45.1121 94.0477C44.9877 93.7583 44.6616 93.6284 44.3723 93.7529L39.0063 96.0612C38.8484 96.1291 38.6729 96.0591 38.605 95.9013L36.308 90.5616C36.21 90.3336 35.9466 90.2287 35.7224 90.3355L30.5785 92.7976C30.3893 92.8894 30.1636 92.7995 30.0806 92.6066L27.9346 87.6176C27.7799 87.2581 27.3536 87.0882 26.9941 87.2428L22.9696 88.974C22.6715 89.1023 22.3329 88.9674 22.2046 88.6693L14.5481 70.8702C14.4576 70.6598 14.5575 70.409 14.7679 70.3185L37.67 60.4668C37.9418 60.3499 38.2427 60.4698 38.3684 60.7379L40.8132 66.0348L29.0543 71.2593C26.9995 71.6756 25.0015 72.5143 23.0569 73.7664C22.7951 73.931 22.6991 74.2632 22.8198 74.5438L27.6098 85.6792C27.8248 86.1789 28.4142 86.4138 28.914 86.1988L33.2103 84.3506C33.6049 84.1809 34.0563 84.3608 34.2172 84.7591L35.8795 88.7925C36.0858 89.296 36.6576 89.5384 37.1573 89.3234L41.366 87.513C41.8482 87.3056 42.4088 87.5216 42.6162 88.0039L44.4832 92.344C44.6303 92.686 45.019 92.8409 45.361 92.6938L56.5051 87.9C56.8208 87.7642 57.1969 87.9141 57.3327 88.2297L59.1243 92.3945C59.3581 92.9381 59.9976 93.1929 60.5412 92.9591L64.8902 91.0883C65.5039 90.8243 66.2225 91.1179 66.4815 91.7442L67.9439 95.3129C68.2972 96.1584 69.2428 96.5932 70.1109 96.2925L72.3558 95.545C72.9007 95.3626 73.1669 94.7494 72.9406 94.2233L66.1817 78.511C65.9252 77.9148 65.223 77.635 64.6268 77.8915L61.206 79.3837L58.6043 73.9153C58.4699 73.6511 58.1602 73.5349 57.8971 73.6481L53.0922 75.715C52.7415 75.8659 52.3403 75.706 52.1894 75.3553L49.8887 70.0068C49.7868 69.77 49.5147 69.6689 49.278 69.7707L43.8944 72.0865C43.6226 72.2035 43.2966 72.0736 43.1884 71.798L40.8132 66.0348L46.6453 63.578C46.9258 63.4573 47.2431 63.5909 47.3638 63.8715L49.4269 68.6676C49.5287 68.9044 49.8046 69.0143 50.0413 68.9124L55.0917 66.7399C55.4161 66.6004 55.7923 66.7503 55.9319 67.0747L58.3458 72.6862C58.4702 72.9756 58.7963 73.1055 59.0768 72.9848L62.5577 71.4874C62.7769 71.3931 62.8819 71.1298 62.7876 70.9106L51.5479 44.7819C51.4385 44.5277 51.5534 44.2393 51.8077 44.1299L54.8941 42.8022C55.4377 42.5684 55.68 41.9239 55.4198 41.3916L53.1374 36.6171C53.0079 36.3403 53.1253 36.0092 53.3983 35.871L57.0367 34.0877C58.3224 35.7478 59.2373 37.609 59.7765 39.6837C59.8634 40.0308 59.7611 40.3969 59.4983 40.6554L58.1227 41.9745C57.6746 42.4062 57.5552 43.0706 57.8266 43.6292C62.4905 53.1668 65.3607 61.6991 70.4967 72.8416C74.9476 82.5123 78.4465 92.5302 83.4853 102.239C83.6738 102.605 84.1014 102.753 84.4734 102.604L88.8087 100.822C89.1857 100.66 89.3693 100.217 89.2072 99.84L74.6258 65.9429C74.4938 65.636 74.6387 65.2723 74.9493 65.1491L79.0704 63.4491C79.5915 63.2353 79.8112 62.6109 79.5311 62.1288C78.7823 60.7988 78.373 59.3643 78.2995 57.8166L82.131 56.0229C82.4604 55.8709 82.6115 55.4734 82.4644 55.1314L80.2504 49.9846C80.0807 49.59 80.2655 49.1261 80.6601 48.9563L84.4742 47.3156C84.7986 47.1761 84.9485 46.7999 84.8089 46.4755L82.5761 41.2848C82.4403 40.9692 82.5852 40.6055 82.9009 40.4697L87.5567 38.467C87.7759 38.3727 87.8808 38.1094 87.7865 37.8902L79.5868 18.8285C79.4096 18.4164 78.9205 18.2216 78.5122 18.4076L66.7295 23.6735L61.5561 25.6807C61.1189 25.848 60.899 26.3271 61.0487 26.7718L62.2945 30.4648C62.4543 30.9572 62.2182 31.4952 61.7397 31.7114L57.1916 33.699L55.253 29.1922C55.0657 28.8052 55.2506 28.3412 55.6539 28.1677L59.7661 26.3988C60.1081 26.2517 60.2629 25.863 60.1196 25.5298L57.7321 19.9796C57.6341 19.7517 57.739 19.4883 57.9582 19.394L75.8537 11.696C76.1255 11.5791 76.439 11.704 76.5559 11.9758L78.868 17.3506C79.0453 17.7627 79.5343 17.9575 79.9464 17.7803L83.9709 16.0491C84.4093 15.8605 84.9234 16.0653 85.112 16.5037L93.3683 35.6969C93.4814 35.9599 93.3527 36.2647 93.0897 36.3778L88.8986 38.1807C88.6268 38.2976 88.4968 38.6236 88.6138 38.8954L90.8202 44.0247C90.9484 44.3228 90.8173 44.6702 90.518 44.8197L86.267 46.8458C85.9238 47.0142 85.7678 47.4242 85.9186 47.7749L88.1741 53.0182C88.3778 53.4916 88.1579 54.0434 87.6844 54.2471L83.6687 55.9745C83.4407 56.0726 83.3358 56.3359 83.4339 56.5639L85.3159 60.9391C85.3461 61.0093 85.3588 61.0869 85.3501 61.1634C85.2584 61.9406 84.0136 62.6942 81.6233 63.4419C81.1272 63.593 80.8736 64.1385 81.0772 64.612L87.7682 80.1664C87.9002 80.4733 88.2513 80.6132 88.5582 80.4812L91.8813 79.0517C92.2145 78.9084 92.3606 78.5234 92.2172 78.1902L88.0307 68.4577C87.876 68.0983 88.0459 67.6719 88.4054 67.5173L92.5702 65.7257C92.8332 65.6126 92.9531 65.3116 92.8438 65.0573L90.7693 60.2349C90.6788 60.0245 90.7787 59.7737 90.9892 59.6832L96.4692 57.3259C96.8111 57.1788 96.971 56.7775 96.8239 56.4356L94.6967 51.4904C94.5873 51.2361 94.7022 50.9477 94.9477 50.8421L106.522 45.8635C106.855 45.7202 107.231 45.87 107.374 46.2032L109.385 50.8766C109.517 51.1835 109.871 51.3321 110.178 51.2001L114.922 49.1596C115.185 49.0465 115.498 49.1714 115.611 49.4344L122.781 66.1024C122.883 66.3391 122.778 66.6025 122.542 66.7043L118.763 68.3299C118.228 68.56 117.978 69.187 118.208 69.7218L120.128 74.1847C120.222 74.4039 120.122 74.6547 119.903 74.749L116.352 76.2765C116.071 76.3972 115.941 76.7233 116.062 77.0038L118.035 81.5895C118.197 81.9665 118.027 82.3929 117.65 82.5551L113.555 84.3164C113.301 84.4258 113.186 84.7143 113.292 84.9598L115.163 89.3087C115.272 89.563 115.152 89.8639 114.898 89.9733L110.146 92.0175C109.76 92.1835 109.58 92.6349 109.746 93.0207L111.669 97.4924C111.862 97.9396 112.376 98.1444 112.823 97.952L117.733 95.8399C118.198 95.64 118.737 95.8548 118.933 96.3108L121.471 102.212C121.72 102.79 121.447 103.459 120.868 103.708L116.44 105.612C116.151 105.737 116.016 106.075 116.144 106.374L118.015 110.722C118.238 111.24 118.01 111.847 117.492 112.09L116.529 112.557C116.222 112.689 116.098 113.054 116.23 113.361L118.772 119.27C118.919 119.612 119.321 119.772 119.663 119.625L124.958 117.347C125.221 117.234 125.535 117.359 125.648 117.622L127.73 122.462C127.851 122.742 128.177 122.872 128.457 122.751L132.947 120.82C133.271 120.681 133.647 120.831 133.791 121.164L135.737 125.688C135.827 125.898 136.066 125.993 136.276 125.903L141.195 123.787C141.51 123.651 141.874 123.796 142.01 124.112L144.216 129.241C144.352 129.557 144.716 129.702 145.031 129.566L149.845 127.495C150.108 127.382 150.422 127.507 150.535 127.77L153.047 133.609C153.284 134.162 153.924 134.417 154.476 134.179L159.351 132.082C159.588 131.98 159.864 132.09 159.969 132.335L173.789 164.461C173.917 164.76 173.782 165.098 173.484 165.226L167.785 167.751ZM109.914 79.1603L114.7 77.1222C115.024 76.9827 115.174 76.6065 115.035 76.2821L112.987 71.5211C112.806 71.1002 113 70.6111 113.421 70.4301L116.306 69.1892C116.762 68.9931 116.977 68.4539 116.781 67.9979L112.249 57.6556L110.321 52.739C110.123 52.2316 109.543 51.993 109.052 52.2043L98.0741 56.9264C97.8023 57.0433 97.6774 57.3568 97.7943 57.6286L99.3898 61.3375C99.6613 61.9688 99.3665 62.7087 98.7352 62.9802L94.8159 64.6662C94.1934 64.934 93.9036 65.6612 94.1802 66.28C94.6843 67.4035 95.1948 68.7113 95.6956 70.1895C95.9322 70.9086 95.4769 71.5409 94.3133 72.0726C93.94 72.2435 93.7652 72.6824 93.9312 73.0682L95.3833 76.4439C95.5756 76.891 95.3795 77.4014 94.9399 77.6113L93.1238 78.486C92.8294 78.623 92.6983 78.9704 92.8266 79.2685L95.0066 84.3364C95.2593 84.9238 94.9807 85.6048 94.3933 85.8575L91.9558 86.906C91.5875 87.0644 91.4176 87.4908 91.5798 87.8678L95.3779 96.6972C95.6268 97.2759 96.304 97.5456 96.8827 97.2967L102.836 94.7357C103.371 94.5057 103.616 93.8912 103.386 93.3564L101.821 89.7176C101.666 89.3582 101.831 88.9444 102.19 88.7897L111.44 84.8106C111.704 84.6974 111.816 84.3789 111.676 84.1272C110.784 82.464 110.199 80.8142 109.914 79.1603ZM74.5823 99.7306L71.5896 101.735C71.1714 102.019 71.0167 102.553 71.2166 103.017L72.8648 106.849C73.0421 107.261 73.5236 107.439 73.9281 107.244L76.8953 105.832C77.3838 105.591 77.6048 105.018 77.3899 104.518L75.4361 99.9763C75.2928 99.6431 74.8803 99.5296 74.5823 99.7306Z" fill="#0B1637"/>
<path d="M66.7271 23.6746L70.2637 33.7802C70.3544 34.0633 70.3373 34.4343 70.2113 34.8418C70.0553 35.3245 69.6336 35.8176 68.9512 36.3086C68.394 36.7041 68.197 37.4539 68.4711 38.1152C70.2314 42.3766 72.1409 46.5738 74.2131 50.6906C74.4317 51.1265 74.2181 51.6444 73.7646 51.7979L70.4424 52.9153C70.0541 53.0511 69.8466 53.4625 69.9824 53.8509L72.0499 59.9855C72.2764 60.6569 73.0676 60.9504 73.6787 60.5836L78.2971 57.8176C78.3706 59.3654 78.7799 60.7998 79.5287 62.1298C79.8088 62.612 79.5891 63.2364 79.068 63.4502L74.9469 65.1502C74.6363 65.2734 74.4914 65.637 74.6234 65.9439L89.2048 99.841C89.3669 100.218 89.1871 100.669 88.8063 100.823L84.471 102.605C84.099 102.754 83.6714 102.606 83.4829 102.24C78.4441 92.5312 74.9452 82.5133 70.4943 72.8426C65.3583 61.7002 62.4881 53.1679 57.8242 43.6303C57.5528 43.0717 57.6722 42.4073 58.1203 41.9755L59.4959 40.6565C59.7587 40.3979 59.861 40.0318 59.7741 39.6848C59.2349 37.6101 58.32 35.7489 57.0343 34.0887C57.0329 33.9647 57.0829 33.8393 57.1892 33.7L61.7373 31.7124C62.2195 31.505 62.4519 30.9582 62.2921 30.4659L61.0463 26.7729C60.8966 26.3281 61.1165 25.8491 61.5537 25.6818L66.7271 23.6746Z" fill="#029A9A"/>
<path d="M78.2973 57.8175L73.6789 60.5835C73.0678 60.9503 72.2766 60.6568 72.0501 59.9853L69.9826 53.8507C69.8467 53.4624 70.0543 53.051 70.4426 52.9151L73.7648 51.7977C74.2183 51.6442 74.4319 51.1263 74.2133 50.6905C72.141 46.5737 70.2316 42.3765 68.4713 38.1151C68.1884 37.4575 68.3942 36.704 68.9514 36.3085C69.6338 35.8175 70.0555 35.3244 70.2115 34.8417C70.3375 34.4342 70.3546 34.0632 70.2639 33.78L66.7273 23.6745L78.51 18.4085C78.9221 18.2313 79.4073 18.4174 79.5846 18.8295L87.7843 37.8911C87.8786 38.1103 87.7737 38.3736 87.5545 38.4679L82.8987 40.4707C82.583 40.6065 82.4381 40.9701 82.5739 41.2858L84.8067 46.4764C84.9463 46.8008 84.7964 47.177 84.472 47.3166L80.6579 48.9573C80.2633 49.127 80.0784 49.591 80.2482 49.9855L82.4622 55.1324C82.6093 55.4743 82.4582 55.8718 82.1288 56.0239L78.2973 57.8175Z" fill="#00FFFF"/>
<path d="M29.0521 71.2603L31.3603 76.5536C31.5225 76.9307 31.9701 77.1018 32.3396 76.922L35.9405 75.1964C36.5517 74.9023 37.2778 75.2134 37.493 75.8586L39.0495 80.4674C39.4371 81.6098 40.795 82.0855 41.8156 81.4387C42.9125 80.7279 44.2353 80.1796 45.7625 79.7928C45.9667 79.7362 46.1874 79.8386 46.2792 80.0277L47.3211 82.2083C47.5913 82.7882 48.2635 83.0706 48.8736 82.8705L52.9374 81.4964C53.1166 81.4298 53.3058 81.4107 53.4888 81.4255C56.2964 81.5997 58.871 80.9182 61.2038 79.3848L64.6246 77.8925C65.2208 77.636 65.923 77.9158 66.1795 78.512L72.9384 94.2243C73.1647 94.7504 72.8986 95.3636 72.3536 95.5461L70.1087 96.2935C69.2406 96.5943 68.295 96.1594 67.9417 95.3139L66.4793 91.7452C66.2203 91.1189 65.5018 90.8253 64.888 91.0894L60.5391 92.9601C59.9954 93.194 59.3559 92.9392 59.1221 92.3955L57.3305 88.2307C57.1947 87.9151 56.8186 87.7652 56.5029 87.901L45.3588 92.6948C45.0168 92.8419 44.6281 92.687 44.481 92.3451L42.614 88.0049C42.4066 87.5227 41.8461 87.3066 41.3638 87.514L37.1552 89.3245C36.6554 89.5394 36.0836 89.2971 35.8774 88.7935L34.215 84.7601C34.0541 84.3618 33.6027 84.1819 33.2081 84.3517L28.9118 86.1998C28.412 86.4148 27.8226 86.18 27.6077 85.6802L22.8176 74.5448C22.6969 74.2642 22.793 73.932 23.0547 73.7675C24.9994 72.5153 26.9973 71.6767 29.0521 71.2603Z" fill="#029A9A"/>
<path d="M40.8105 66.036L43.1857 71.7992C43.3026 72.071 43.6199 72.2047 43.8917 72.0877L49.2753 69.7719C49.512 69.6701 49.7841 69.7712 49.8859 70.008L52.1866 75.3565C52.3375 75.7072 52.7388 75.8671 53.0895 75.7162L57.8944 73.6493C58.1574 73.5361 58.4671 73.6523 58.6016 73.9165L61.2033 79.3849C58.8705 80.9184 56.2959 81.5999 53.4882 81.4257C53.3052 81.4109 53.116 81.4299 52.9369 81.4966L48.873 82.8707C48.2629 83.0708 47.5908 82.7884 47.3206 82.2085L46.2786 80.0279C46.1869 79.8388 45.9662 79.7363 45.762 79.793C44.2347 80.1798 42.912 80.728 41.815 81.4389C40.7945 82.0857 39.4365 81.61 39.049 80.4675L37.4924 75.8587C37.2772 75.2136 36.5512 74.9025 35.94 75.1966L32.339 76.9222C31.9696 77.1019 31.5219 76.9308 31.3597 76.5538L29.0516 71.2605L40.8105 66.036Z" fill="#00FFFF"/>
<path d="M63.2408 105.835C63.3373 105.794 63.425 105.756 63.5089 105.709C64.5863 107.272 66.0752 108.149 67.9503 108.329C68.75 108.401 68.927 109.488 68.1942 109.814L62.7193 112.231C62.3423 112.394 61.9238 112.459 61.5202 112.415C61.1842 112.383 60.7603 112.17 60.2347 111.794C59.9637 111.598 59.6202 111.549 59.307 111.642C58.4927 111.899 57.7503 112.467 57.0873 113.366C56.7445 113.825 56.0438 113.742 55.8175 113.216L54.7538 110.743C54.5992 110.384 54.7553 109.974 55.0985 109.805L63.2408 105.835Z" fill="#029A9A"/>
<path d="M63.843 119.001L71.5078 115.974L74.5855 123.128L67.4995 125.979C67.145 126.121 66.735 125.965 66.5753 125.618L63.6604 119.277C63.7751 118.843 63.8314 118.756 63.843 119.001Z" fill="#6F1CDD"/>
<path d="M74.577 123.132L71.4993 115.977L111.728 98.8697C111.93 98.783 112.168 98.8779 112.255 99.0796L114.959 105.366C115.046 105.568 114.951 105.806 114.75 105.893L74.577 123.132Z" fill="#9435F9"/>
<path d="M113.338 122.657L89.354 132.361C89.0433 132.484 88.9034 132.836 89.0529 133.135L91.2813 137.808C91.5868 138.445 91.2694 139.205 90.598 139.432L86.3901 140.858C85.998 140.985 85.7855 141.409 85.9214 141.797L87.2476 145.725C87.4477 146.336 87.1616 146.999 86.5741 147.252L83.216 148.696C82.5233 148.994 82.1709 149.769 82.4125 150.476L83.545 153.833C83.7614 154.457 83.5543 155.159 83.0222 155.565L80.8112 157.285C80.5646 157.484 80.4522 157.803 80.5291 158.102L83.0682 168.304C83.2043 168.838 82.9292 169.382 82.4295 169.597L79.2029 170.985C78.5628 171.261 78.263 172.013 78.5384 172.653L87.3566 193.153C87.5527 193.609 88.0794 193.818 88.5353 193.622L93.3314 191.559C93.7172 191.393 94.1561 191.568 94.322 191.954L99.0593 202.966C99.1837 203.256 99.5223 203.391 99.8116 203.266L104.494 201.252C105.143 200.973 105.889 201.307 106.115 201.978L107.551 206.234C107.858 207.141 108.871 207.588 109.748 207.211L114.378 205.219C114.711 205.076 115.095 205.243 115.212 205.588L116.296 208.81C116.509 209.425 117.192 209.734 117.789 209.477L123.041 207.218C123.339 207.09 123.676 207.101 123.971 207.254C125.02 207.811 125.933 207.927 126.707 207.625C134.471 204.587 144.379 200.325 156.423 194.822C156.537 194.773 156.642 194.727 156.759 194.709L158.851 194.234C158.255 194.491 157.787 194.827 157.426 195.221C157.221 195.445 157.151 195.766 157.251 196.045L158.579 200.004C158.802 200.666 158.482 201.396 157.833 201.675L153.634 203.482C153.283 203.633 153.114 204.038 153.265 204.389L155.042 208.518C155.17 208.817 155.039 209.164 154.741 209.292L116.617 225.691C116.258 225.846 115.844 225.681 115.689 225.322L113.958 221.297C113.803 220.938 113.377 220.768 113.009 220.926L108.283 222.959C107.88 223.133 107.416 222.948 107.242 222.544L105.085 217.529C104.945 217.205 104.569 217.055 104.236 217.198L99.1503 219.386C98.5541 219.642 97.8581 219.329 97.6454 218.714L96.1292 214.222C95.9392 213.66 95.3096 213.38 94.766 213.614L89.5666 215.851C89.2948 215.968 88.9775 215.834 88.8606 215.562L84.1422 204.593C83.931 204.102 83.3542 203.872 82.8544 204.087L78.2863 206.052C77.9092 206.215 77.4741 206.049 77.3119 205.672L63.6886 174.001C63.5754 173.738 63.7041 173.434 63.9672 173.321L68.4739 171.382C69.1315 171.099 69.4275 170.338 69.1447 169.68L66.7685 164.156C66.5346 163.613 66.7932 162.982 67.3444 162.766C68.7185 162.216 69.9047 161.737 70.9244 161.33C72.1845 160.829 72.4716 159.926 71.7817 158.613C70.7489 156.646 69.9776 155.336 69.4641 154.674L69.433 153.95C71.582 153.607 73.7216 152.832 75.8393 151.62C76.1047 151.464 76.2083 151.15 76.0964 150.865L74.2719 146.382C74.1015 146.445 74.1063 146.287 74.2687 145.916C75.7947 145.55 77.2427 144.907 78.6038 143.989C78.9331 143.764 79.0554 143.348 78.9007 142.988L77.2865 139.236C77.1658 138.955 77.2957 138.629 77.5762 138.508L82.1268 136.551C82.6178 136.339 82.8477 135.763 82.6364 135.272L79.9435 129.011C79.8228 128.731 79.9527 128.405 80.2333 128.284L108.694 116.041C109.098 115.868 109.573 116.079 109.711 116.497C110.483 118.846 111.699 120.9 113.338 122.657Z" fill="#6F1CDD"/>
<path d="M113.339 122.657L118.57 120.105C118.939 119.926 119.374 120.092 119.536 120.469L121.498 125.028C121.69 125.475 122.217 125.685 122.664 125.493L127.048 123.607C127.311 123.494 127.616 123.623 127.729 123.886L129.547 128.112C129.739 128.559 130.266 128.769 130.713 128.576L134.553 126.924C135.123 126.679 135.775 126.939 136.02 127.509L138.034 132.191C138.189 132.551 138.612 132.712 138.971 132.557L143.452 130.63C143.899 130.437 144.425 130.647 144.618 131.094L147.066 136.785C147.254 137.223 147.768 137.428 148.207 137.239L152.696 135.308C152.977 135.188 153.303 135.318 153.423 135.598L166.986 167.128C167.032 167.233 167.099 167.318 167.198 167.379L167.784 167.751L167.611 168.241C166.003 167.717 163.324 169.243 161.646 170.028C161.361 170.161 161.231 170.487 161.346 170.78L166.309 182.849C166.391 183.063 166.291 183.314 166.081 183.404L160.554 185.678C160.235 185.805 160.09 186.168 160.217 186.488L162.422 191.857C162.534 192.141 162.413 192.463 162.14 192.601L158.853 194.234L156.76 194.708C156.647 194.736 156.538 194.772 156.424 194.821C144.38 200.324 134.472 204.586 126.708 207.625C125.934 207.927 125.022 207.81 123.972 207.254C123.677 207.1 123.34 207.089 123.042 207.217L117.79 209.477C117.194 209.733 116.51 209.424 116.298 208.809L115.213 205.587C115.096 205.243 114.712 205.075 114.379 205.219L109.75 207.21C108.873 207.587 107.859 207.14 107.552 206.233L106.117 201.978C105.89 201.306 105.144 200.972 104.495 201.252L99.8131 203.266C99.5237 203.39 99.1852 203.255 99.0607 202.966L94.3235 191.953C94.1575 191.567 93.7186 191.393 93.3328 191.558L88.5367 193.622C88.0808 193.818 87.5541 193.608 87.358 193.152L78.5398 172.652C78.2645 172.012 78.5642 171.26 79.2043 170.985L82.4309 169.597C82.9307 169.382 83.2057 168.837 83.0696 168.304L80.5305 158.101C80.4536 157.802 80.566 157.483 80.8126 157.284L83.0236 155.564C83.5557 155.158 83.7628 154.456 83.5464 153.832L82.414 150.475C82.1724 149.769 82.5247 148.994 83.2174 148.696L86.5756 147.251C87.163 146.998 87.4491 146.335 87.249 145.725L85.9228 141.796C85.7869 141.408 85.9994 140.984 86.3915 140.857L90.5994 139.431C91.2709 139.205 91.5882 138.445 91.2828 137.807L89.0544 133.134C88.9048 132.835 89.0447 132.484 89.3554 132.361L113.339 122.657ZM114.875 130.745C114.662 130.224 114.061 129.962 113.531 130.18L109.25 131.918C108.729 132.131 108.467 132.732 108.685 133.262L112.483 142.622C112.705 143.139 113.297 143.404 113.827 143.186L118.108 141.448C118.629 141.235 118.89 140.634 118.673 140.104L114.875 130.745ZM135.132 144.381C134.921 143.89 134.356 143.665 133.865 143.876L129.604 145.709C129.113 145.92 128.549 145.696 128.338 145.205L125.965 139.689C125.754 139.198 125.19 138.974 124.699 139.185L120.543 140.973C120.052 141.184 119.827 141.748 120.038 142.239L122.309 147.517C122.505 147.973 123.021 148.208 123.505 148.052L127.495 146.7C127.979 146.544 128.495 146.778 128.691 147.234L136.578 165.568C136.789 166.059 137.353 166.284 137.844 166.073L142.544 164.051C143.035 163.84 143.26 163.276 143.049 162.785L135.132 144.381ZM144.727 172.796C144.466 172.191 143.764 171.912 143.159 172.172L141.125 173.047C140.52 173.307 140.24 174.009 140.5 174.614L142.009 178.122C142.269 178.727 142.972 179.006 143.577 178.746L145.611 177.871C146.216 177.611 146.496 176.909 146.235 176.304L144.727 172.796Z" fill="#9435F9"/>
<path d="M74.2736 146.381L76.0982 150.864C76.2188 151.145 76.1065 151.463 75.841 151.619C73.7233 152.831 71.5837 153.606 69.4348 153.949L67.6807 149.726C67.5801 149.468 67.7 149.167 67.9543 149.058L74.2736 146.381Z" fill="#0B1637"/>
<path d="M69.4647 154.674C69.9782 155.336 70.7495 156.646 71.7823 158.612C72.4722 159.926 72.1851 160.829 70.925 161.329C69.9053 161.737 68.7191 162.216 67.345 162.765C66.7938 162.982 66.5353 163.613 66.7691 164.156L69.1453 169.68C69.4282 170.338 69.1321 171.099 68.4745 171.382L63.9678 173.32C63.7047 173.433 63.5761 173.738 63.6892 174.001L77.3126 205.671C77.4747 206.048 77.9099 206.214 78.2869 206.052L82.855 204.087C83.3548 203.872 83.9316 204.102 84.1428 204.593L88.8612 215.562C88.9781 215.834 89.2954 215.967 89.5672 215.85L94.7667 213.614C95.3103 213.38 95.9398 213.66 96.1298 214.222L97.646 218.713C97.8587 219.328 98.5547 219.642 99.1509 219.385L104.236 217.198C104.57 217.055 104.946 217.204 105.085 217.529L107.243 222.544C107.416 222.947 107.88 223.132 108.283 222.959L113.009 220.926C113.378 220.767 113.804 220.937 113.959 221.297L115.69 225.321C115.845 225.681 116.258 225.846 116.618 225.691L154.741 209.292C155.039 209.164 155.17 208.816 155.042 208.518L153.266 204.388C153.115 204.038 153.283 203.633 153.634 203.482L157.834 201.675C158.483 201.396 158.803 200.666 158.58 200.003L157.251 196.045C157.152 195.765 157.222 195.445 157.427 195.221C157.787 194.827 158.259 194.499 158.852 194.234L162.139 192.602C162.412 192.463 162.534 192.141 162.422 191.857L160.216 186.488C160.089 186.169 160.234 185.805 160.553 185.678L166.08 183.405C166.29 183.314 166.39 183.063 166.309 182.849L161.346 170.78C161.221 170.491 161.36 170.161 161.645 170.028C163.324 169.244 166.002 167.717 167.61 168.241L172.841 180.621C172.957 180.914 172.822 181.252 172.533 181.377L167.667 183.47C167.298 183.629 167.129 184.055 167.287 184.423L169.346 189.211C169.486 189.535 169.336 189.911 169.012 190.051L163.593 192.382C163.26 192.525 163.11 192.901 163.249 193.226L167.078 202.125C167.183 202.371 167.068 202.659 166.823 202.765L161.089 205.231C160.861 205.329 160.759 205.602 160.866 205.826L164.279 212.961C164.363 213.133 164.287 213.342 164.111 213.418L113.134 235.346C112.845 235.471 112.515 235.332 112.391 235.043L109.109 227.414C108.992 227.143 108.666 227.013 108.386 227.133L103.055 229.427C102.739 229.562 102.375 229.418 102.24 229.102L98.5886 220.614C98.483 220.369 98.2071 220.259 97.9616 220.365L92.2887 222.805C92.0257 222.918 91.7247 222.798 91.6116 222.535L89.3938 217.38C89.2429 217.029 88.8329 216.873 88.4897 217.041L83.6276 219.361C83.3771 219.479 83.0673 219.363 82.9579 219.109L77.787 207.088C77.67 206.816 77.3565 206.691 77.0847 206.808L71.4381 209.237C71.2014 209.339 70.9381 209.234 70.8362 208.997L56.9941 176.819C56.9074 176.617 56.9973 176.391 57.199 176.305L62.6965 173.94C63.0999 173.766 63.2847 173.302 63.115 172.908L60.2334 166.209C60.1316 165.972 60.2365 165.709 60.4645 165.611L65.2781 163.54C65.6551 163.378 65.825 162.952 65.6628 162.575L63.6299 157.849C63.5167 157.586 63.6328 157.276 63.8959 157.163L69.4647 154.674Z" fill="#0B1637"/>
<path d="M112.246 57.6564L105.647 60.5266C104.893 60.851 104.445 61.6461 104.556 62.4606C104.729 63.7062 104.588 65.1176 104.142 66.6911C104.054 67.0409 104.042 67.3993 104.107 67.7451C104.395 69.2111 104.997 70.6353 105.907 72.0002C106.229 72.4848 106.037 73.1493 105.499 73.3706C104.557 73.7654 103.636 74.3068 102.745 75.0123C102.418 75.2672 102.307 75.7098 102.46 76.0906L104.269 80.4872C104.476 80.9694 105.032 81.198 105.518 80.9994L109.912 79.1611C110.197 80.8151 110.782 82.4649 111.674 84.1281C111.814 84.3798 111.701 84.6983 111.438 84.8115L102.188 88.7906C101.829 88.9452 101.664 89.359 101.818 89.7185L103.384 93.3572C103.614 93.8921 103.369 94.5065 102.834 94.7366L96.8805 97.2976C96.3018 97.5465 95.6246 97.2767 95.3757 96.698L91.5776 87.8687C91.4154 87.4916 91.5853 87.0653 91.9536 86.9069L94.3911 85.8583C94.9785 85.6056 95.2571 84.9247 95.0044 84.3373L92.8244 79.2694C92.6961 78.9712 92.8272 78.6239 93.1216 78.4869L94.9377 77.6122C95.3773 77.4023 95.5734 76.8919 95.3811 76.4447L93.929 73.0691C93.763 72.6833 93.9378 72.2444 94.3111 72.0734C95.4747 71.5417 95.93 70.9095 95.6934 70.1904C95.1926 68.7122 94.6821 67.4044 94.178 66.2809C93.9014 65.6621 94.1912 64.9348 94.8137 64.667L98.733 62.9811C99.3643 62.7095 99.6591 61.9697 99.3876 61.3384L97.7921 57.6295C97.6752 57.3577 97.8001 57.0442 98.0719 56.9273L109.049 52.2051C109.54 51.9939 110.121 52.2325 110.319 52.7398L112.246 57.6564Z" fill="#029A9A"/>
<path d="M112.246 57.6566L116.778 67.999C116.974 68.4549 116.76 68.9941 116.304 69.1903L113.419 70.4311C112.998 70.6122 112.803 71.1012 112.984 71.5221L115.032 76.2831C115.172 76.6075 115.022 76.9837 114.698 77.1233L109.912 79.1613L105.517 80.9995C105.035 81.207 104.467 80.9734 104.268 80.4874L102.46 76.0907C102.307 75.7099 102.418 75.2674 102.745 75.0125C103.636 74.307 104.556 73.7655 105.498 73.3707C106.037 73.1494 106.229 72.4849 105.906 72.0004C104.997 70.6355 104.395 69.2113 104.107 67.7453C104.042 67.3995 104.054 67.041 104.142 66.6913C104.587 65.1178 104.728 63.7064 104.556 62.4608C104.445 61.6463 104.892 60.8511 105.647 60.5268L112.246 57.6566Z" fill="#00FFFF"/>
<path d="M74.5791 99.7318C74.8771 99.5309 75.2896 99.6444 75.4329 99.9776L77.3867 104.519C77.6016 105.019 77.3806 105.592 76.8921 105.834L73.9249 107.245C73.5204 107.44 73.0389 107.262 72.8616 106.85L71.2134 103.019C71.0135 102.554 71.1682 102.02 71.5864 101.736L74.5791 99.7318Z" fill="#029A9A"/>
<path d="M118.664 140.108C118.89 140.634 118.621 141.238 118.099 141.452L113.818 143.19C113.292 143.416 112.687 143.146 112.474 142.625L108.676 133.266C108.45 132.74 108.72 132.135 109.241 131.921L113.522 130.184C114.048 129.957 114.653 130.227 114.867 130.748L118.664 140.108Z" fill="white"/>
<path d="M135.13 144.382L143.046 162.786C143.258 163.277 143.033 163.841 142.542 164.052L137.842 166.074C137.351 166.285 136.787 166.06 136.576 165.569L128.689 147.235C128.493 146.779 127.976 146.544 127.493 146.701L123.503 148.053C123.019 148.209 122.502 147.974 122.306 147.518L120.036 142.24C119.825 141.749 120.049 141.185 120.54 140.974L124.696 139.186C125.187 138.975 125.752 139.199 125.963 139.69L128.335 145.205C128.547 145.696 129.111 145.921 129.602 145.71L133.863 143.877C134.354 143.666 134.918 143.891 135.13 144.382Z" fill="white"/>
<path d="M146.236 176.304C146.496 176.908 146.216 177.611 145.611 177.871L143.577 178.746C142.972 179.006 142.27 178.726 142.009 178.121L140.501 174.614C140.241 174.009 140.52 173.307 141.125 173.047L143.159 172.172C143.764 171.912 144.467 172.191 144.727 172.796L146.236 176.304Z" fill="white"/>
</svg>
