<svg width="153" height="105" viewBox="0 0 153 105" fill="none" xmlns="http://www.w3.org/2000/svg">
<path d="M87.6692 15.2351C87.681 15.5937 87.3959 15.8813 87.0405 15.8813L72.6918 15.901C71.7858 12.237 71.4733 8.57696 71.7467 4.9248" fill="#00FFFF"/>
<path d="M71.7435 4.9248C71.4701 8.57696 71.7825 12.2409 72.6886 15.901L67.9083 15.7788C67.5217 15.767 67.2053 15.4518 67.2053 15.05" fill="#00FFFF"/>
<path d="M67.2053 15.0497C67.2053 15.4515 67.5217 15.7667 67.9083 15.7785L72.6886 15.9007L87.0372 15.881C87.3926 15.881 87.6777 15.5934 87.666 15.2349" fill="#010815"/>
<path d="M95.2773 0.4099H133.52C133.926 0.4099 134.254 0.7369 134.254 1.15057V7.18234C134.254 7.54086 134.539 7.82846 134.883 7.82846H138.167C135.3 7.71421 133.691 8.09637 133.336 8.96705C133.082 8.57702 132.551 8.37215 131.75 8.36033C125.904 8.24608 113.922 8.2382 95.8085 8.32093C95.1172 8.33275 94.5665 8.88432 94.5665 9.57378V14.7427C94.5665 15.4519 95.1367 16.035 95.8397 16.0468C108.634 16.2398 119.413 16.098 128.193 15.6252C130.887 15.4834 132.82 15.7592 134 16.4684L133.98 23.2093C133.98 23.4969 133.816 23.7648 133.555 23.8948L133.231 24.0681L20.0739 24.0878C19.2889 22.2086 19.078 19.6359 19.4529 16.362C19.7692 16.0232 20.1637 15.8695 20.6441 15.8813C31.6184 16.1295 40.9563 16.232 48.6735 16.1808C49.1812 16.1689 49.5874 15.7592 49.5796 15.247L49.4663 9.59348C49.4546 8.94736 48.9391 8.43519 48.3064 8.42337L19.8708 8.02151C19.6794 8.00969 19.4841 8.08455 19.3318 8.21456L19.117 8.40761L18.3125 7.74179C18.414 7.76149 18.5039 7.76149 18.5976 7.74179C18.7812 7.71027 18.9139 7.54874 18.9139 7.36357V0.606887C18.9139 0.268068 19.199 -0.00771476 19.5349 0.000164753C27.0295 0.185333 33.7625 0.275948 39.7144 0.268068" fill="#010815"/>
<path d="M18.3088 7.74568L19.1133 8.4115L18.9805 15.6646L8.68964 15.7158C8.35377 15.7158 8.08039 15.9916 8.0882 16.3304L8.13897 23.6347L7.82263 35.0127C7.79139 35.9859 8.57638 36.7974 9.54103 36.7896L28.5606 36.7068L119.089 36.9117L142.655 36.7265C143.549 36.7147 144.26 35.9977 144.271 35.0955L144.385 22.9886L144.396 16.3107C144.396 16.0113 144.162 15.767 143.857 15.7552L135.09 15.5385C134.367 15.4243 133.981 15.117 133.942 14.593C133.82 12.9304 133.617 11.0551 133.34 8.95912C133.695 8.08844 135.305 7.70628 138.171 7.82053L144.6 7.66688C144.865 7.65506 145.088 7.88357 145.088 8.14753V14.589C145.088 14.7939 145.252 14.9594 145.455 14.9594H151.864C152.219 14.9594 152.504 15.247 152.504 15.6055V36.3089C152.504 36.6162 152.25 36.8723 151.946 36.8723H145.486C145.08 36.8723 144.752 37.1993 144.752 37.609V43.826C144.752 44.0624 144.568 44.2554 144.334 44.2554H136.066C135.843 44.2554 135.668 44.4288 135.668 44.6573V76.5851C135.668 77.0578 135.293 77.4479 134.824 77.4558L128.407 77.57C127.888 77.5818 127.482 77.9994 127.482 78.5234V100.492C127.482 100.767 127.267 100.984 126.994 100.984H120.261C119.855 100.984 119.526 101.311 119.526 101.721V112.256C119.526 112.531 119.304 112.748 119.027 112.748H112.325C112.051 112.748 111.837 112.965 111.837 113.241V119.394C111.837 119.714 111.571 119.978 111.259 119.978H41.2104C40.9057 119.978 40.6597 119.729 40.6597 119.422V113.268C40.6597 112.918 40.3746 112.634 40.0192 112.634H33.4698C33.2159 112.634 33.0011 112.417 33.0011 112.153V101.772C33.0011 101.394 32.6965 101.086 32.3216 101.086H25.6706C25.3347 101.086 25.0691 100.819 25.0691 100.48V78.4919C25.0691 78.0822 24.7333 77.7434 24.3271 77.7512L17.7659 77.8734C17.4613 77.8852 17.2074 77.637 17.1957 77.3297L16.5943 44.6927C16.5826 44.4248 16.3717 44.2121 16.1061 44.22L7.86949 44.3736C7.63517 44.3736 7.4438 44.1806 7.4438 43.9442V37.7075C7.4438 37.2978 7.10793 36.959 6.70176 36.959H0.449127C0.206989 36.959 0 36.7541 0 36.5059V15.5858C0 15.31 0.2148 15.0815 0.488182 15.0815H6.89704C7.24462 15.0815 7.518 14.8057 7.518 14.4669V8.3721C7.518 8.00176 7.82263 7.69446 8.18974 7.69446L18.3088 7.72598M34.8835 100.476L39.8864 100.795C40.4254 100.826 40.8511 101.287 40.8511 101.831V110.266C40.8511 111.239 41.6361 112.031 42.6007 112.031H110.54C110.907 112.031 111.212 111.743 111.231 111.373L111.821 101.933C111.852 101.402 112.258 100.968 112.786 100.909L118.035 100.283C118.542 100.22 118.929 99.8021 118.96 99.2859L120.159 80.0402C120.21 79.1892 120.78 78.4486 121.585 78.1846L126.314 76.6048C126.58 76.5142 126.783 76.2856 126.841 76.0099C127.38 73.516 127.634 71.814 127.583 70.9197C127.115 62.3113 127.197 53.6714 127.837 44.9921C127.869 44.5824 127.54 44.2239 127.134 44.2239H25.9869C25.3777 44.2239 24.8895 44.7282 24.8973 45.3428L25.4675 76.6245C25.4792 77.0854 25.8424 77.4439 26.2915 77.4439H32.1107C32.7512 77.4439 33.2706 77.9561 33.2784 78.5943L33.6533 99.1756C33.665 99.8612 34.204 100.428 34.8835 100.48V100.476Z" fill="#020E1C"/>
<path d="M19.4452 16.3656C19.2304 16.141 19.0781 15.9046 18.9766 15.6682L19.1093 8.41514L19.3241 8.22209C19.4765 8.08814 19.6717 8.01723 19.8631 8.02904L48.2987 8.4309C48.9275 8.44272 49.4469 8.95489 49.4587 9.60101L49.5719 15.2546C49.5836 15.7667 49.1736 16.1765 48.6658 16.1883C40.9448 16.2395 31.6107 16.1371 20.6364 15.8889C20.1599 15.877 19.7616 16.0307 19.4452 16.3695V16.3656Z" fill="#04617A"/>
<path d="M133.337 8.96712C133.61 11.0591 133.813 12.9384 133.938 14.601C133.977 15.125 134.364 15.4323 135.086 15.5465C134.637 15.712 134.274 16.0193 133.997 16.4684C132.817 15.7593 130.884 15.4835 128.189 15.6253C119.414 16.0981 108.631 16.2399 95.8364 16.0469C95.1334 16.035 94.5632 15.452 94.5632 14.7428V9.57384C94.5632 8.88832 95.1139 8.33282 95.8052 8.321C113.919 8.23826 125.901 8.25008 131.747 8.3604C132.552 8.37221 133.079 8.57708 133.333 8.96712H133.337Z" fill="#04617A"/>
<path d="M18.9759 15.6686C19.0775 15.905 19.2298 16.1414 19.4446 16.3659C19.0697 19.6399 19.2806 22.2125 20.0655 24.0918C18.7221 25.4274 18.4682 27.2396 19.3118 29.5483C18.1128 29.7414 17.0232 29.6508 16.0351 29.2607C15.6797 29.1189 15.4454 28.7683 15.4454 28.3901V24.9034C15.4454 24.2454 14.926 23.7136 14.2777 23.7017L8.13438 23.6387L8.08361 16.3344C8.07189 15.9956 8.34918 15.7198 8.68505 15.7198L18.9759 15.6686Z" fill="#00FFFF"/>
<path d="M135.086 15.5422L143.854 15.7589C144.159 15.7707 144.393 16.015 144.393 16.3144L144.381 22.9923C142.194 23.3311 139.925 23.6503 137.586 23.9457C136.121 24.1309 134.93 24.6943 134.004 25.6398L133.219 24.0718L133.544 23.8985C133.809 23.7645 133.969 23.4966 133.969 23.2129L133.989 16.472C134.262 16.0189 134.629 15.7116 135.078 15.5501L135.086 15.5422Z" fill="#00E4E4"/>
<path d="M144.38 22.9923L144.266 35.0992C144.255 36.0014 143.544 36.7184 142.65 36.7302L119.084 36.9154C119.846 35.6034 120.275 34.2088 120.365 32.7392C120.385 32.2586 120.802 31.8883 121.279 31.9277C123.263 32.0813 124.583 31.577 125.266 30.399L132.905 30.1114C133.394 30.0917 133.761 29.6505 133.69 29.1659C133.519 27.9367 133.628 26.7548 134.007 25.6359C134.932 24.6903 136.123 24.1269 137.588 23.9418C139.927 23.6423 142.196 23.3272 144.384 22.9883L144.38 22.9923Z" fill="#01C4C4"/>
<path d="M19.3118 29.548L27.6812 29.4141L28.556 36.7105L9.53644 36.7932C8.57179 36.805 7.7868 35.9934 7.81804 35.0164L8.13438 23.6384L14.2777 23.7014C14.9299 23.7132 15.4454 24.2451 15.4454 24.903V28.3897C15.4454 28.7679 15.6797 29.1186 16.0351 29.2604C17.0232 29.6504 18.1089 29.7411 19.3118 29.548Z" fill="#01C4C4"/>
<path d="M133.222 24.0681L134.007 25.6361C133.632 26.755 133.519 27.933 133.691 29.1661C133.761 29.6468 133.394 30.088 132.906 30.1116L125.267 30.3992C121.779 30.9035 118.249 31.1596 114.691 31.1793C87.5754 31.3527 60.4638 31.2424 33.3482 30.8602C32.5046 30.8484 30.6222 30.3677 27.6814 29.4143L19.312 29.5483C18.4684 27.2396 18.7222 25.4233 20.0657 24.0917L133.222 24.072V24.0681Z" fill="#DFFEFF"/>
<path d="M125.27 30.3995C124.591 31.5775 123.267 32.0818 121.283 31.9281C120.807 31.8887 120.389 32.2551 120.369 32.7397C120.279 34.2053 119.85 35.6039 119.088 36.9158L28.5596 36.711L27.6848 29.4146C30.6256 30.368 32.5041 30.8526 33.3516 30.8604C60.4672 31.2387 87.5789 31.3529 114.694 31.1796C118.252 31.1599 121.783 30.9038 125.27 30.3995Z" fill="#00E4E4"/>
<path d="M34.8834 100.476C34.2039 100.425 33.6649 99.8614 33.6532 99.1719L33.2783 78.5906C33.2666 77.9563 32.7511 77.4402 32.1106 77.4402H26.2914C25.8423 77.4402 25.4791 77.0817 25.4674 76.6207L24.8972 45.339C24.8855 44.7244 25.3736 44.2202 25.9868 44.2202H127.142C127.548 44.2202 127.876 44.5787 127.845 44.9884C127.205 53.6677 127.122 62.3076 127.591 70.916C127.642 71.8103 127.388 73.5123 126.849 76.0061C126.787 76.2819 126.584 76.5104 126.322 76.601L121.592 78.1809C120.788 78.4488 120.218 79.1855 120.167 80.0365L118.968 99.2822C118.937 99.7944 118.55 100.216 118.042 100.279L112.793 100.905C112.266 100.968 111.856 101.398 111.829 101.93L111.239 111.369C111.219 111.74 110.915 112.027 110.548 112.027H42.6045C41.6399 112.027 40.8549 111.235 40.8549 110.262V101.827C40.8549 101.284 40.4292 100.823 39.8902 100.791L34.8873 100.472M100.839 87.5181L103.19 87.4038C104.307 87.3526 105.275 86.6238 105.631 85.5561C106.107 84.1102 106.373 82.4279 106.404 80.5171C106.545 72.0821 106.556 65.3215 106.424 60.2432C106.412 59.7389 105.998 59.3409 105.498 59.3488L98.9485 59.471C98.5814 59.4828 98.2768 59.1834 98.2768 58.813V55.4682C98.2768 55.0269 97.9292 54.6763 97.4918 54.6763H34.8951C34.3952 54.6763 33.9891 55.086 34.0008 55.5982L34.2664 69.7143C34.2781 70.2698 34.735 70.6993 35.274 70.6677L39.9019 70.4629C40.4292 70.4432 40.8783 70.8647 40.89 71.3966L41.2884 93.0968C41.3001 93.8059 41.8898 94.3575 42.5889 94.3299L46.1702 94.1645C46.7404 94.1329 47.2169 94.586 47.2286 95.1612L47.3106 99.5619C47.3223 100.125 47.7871 100.567 48.3494 100.547L53.5554 100.31C54.2272 100.279 54.7856 100.815 54.7973 101.488L54.8598 104.475C54.8794 105.397 55.6526 106.137 56.5704 106.094L90.7549 104.546C91.4149 104.514 91.9343 103.982 91.9539 103.324C91.9656 102.615 92.239 101.93 92.7779 101.284C92.9107 101.142 93.0825 101.039 93.2778 100.996L98.3002 99.9401C99.093 99.7747 99.6632 99.0773 99.6632 98.2579V88.7591C99.6632 88.0933 100.19 87.5378 100.854 87.5063L100.839 87.5181Z" fill="#10D1EC"/>
<path d="M100.84 87.5174C100.18 87.5489 99.6488 88.1005 99.6488 88.7702V98.269C99.6488 99.0884 99.0786 99.7858 98.2858 99.9512L93.2634 101.007C93.072 101.047 92.8962 101.149 92.7635 101.295C92.2245 101.941 91.9511 102.63 91.9394 103.336C91.9199 103.993 91.4004 104.525 90.7404 104.557L56.556 106.105C55.6421 106.145 54.8688 105.408 54.8454 104.486L54.7829 101.5C54.7712 100.822 54.2127 100.29 53.5409 100.322L48.335 100.558C47.7765 100.578 47.3078 100.136 47.2961 99.573L47.2141 95.1723C47.2024 94.5971 46.7259 94.148 46.1557 94.1756L42.5744 94.341C41.8714 94.3726 41.2817 93.8171 41.2739 93.1079L40.8756 71.4077C40.8638 70.8758 40.4186 70.4543 39.8875 70.474L35.2595 70.6789C34.7206 70.7104 34.2636 70.277 34.2519 69.7254L33.9863 55.6093C33.9746 55.0971 34.3847 54.6874 34.8807 54.6874H97.4812C97.9187 54.6874 98.2662 55.038 98.2662 55.4793V58.8241C98.2662 59.1945 98.5709 59.4899 98.938 59.4821L105.487 59.3599C105.987 59.3481 106.401 59.75 106.413 60.2543C106.546 65.3326 106.534 72.0932 106.394 80.5282C106.362 82.4351 106.097 84.1174 105.62 85.5672C105.265 86.6349 104.296 87.3637 103.179 87.4149L100.828 87.5292M45.4567 58.7493C45.484 57.9889 44.906 57.3428 44.1405 57.3073L42.4338 57.2364C41.6801 57.2088 41.0396 57.7958 41.0044 58.5641L40.9732 59.3008C40.9459 60.0612 41.5239 60.7073 42.2893 60.7428L43.996 60.8137C44.7498 60.8413 45.3903 60.2543 45.4254 59.486L45.4567 58.7493ZM60.2622 66.6288C60.3325 65.8684 59.7545 65.2223 59.0008 65.2144H53.1114C52.174 65.2144 51.4008 65.9511 51.3734 66.8967C51.2406 70.7222 51.639 74.6226 52.5412 78.5938C53.6386 83.3964 54.5251 88.455 55.3492 92.6509C55.4195 93.0212 55.6733 93.3364 56.0209 93.4822C57.3136 94.0259 58.3993 93.821 59.3054 92.8676C59.5788 92.58 59.7428 92.2096 59.7936 91.8196C60.3833 87.017 60.6059 82.0529 60.4653 76.9312C60.2935 70.4149 60.2193 66.9912 60.2622 66.6288ZM98.481 71.9278C98.4615 70.9546 97.6687 70.1864 96.7119 70.2061L95.2864 70.2297C94.3217 70.2494 93.5602 71.0492 93.5797 72.0144L93.6031 73.4288C93.6227 74.4019 94.4155 75.1702 95.3723 75.1505L96.7978 75.1268C97.7624 75.1071 98.524 74.3074 98.5045 73.3421L98.481 71.9278Z" fill="#00FFFF"/>
<path d="M45.4238 59.4865C45.3887 60.2548 44.7482 60.8378 43.9945 60.8142L42.2878 60.7433C41.5262 60.7078 40.9443 60.0617 40.9716 59.3013L41.0029 58.5646C41.038 57.7963 41.6785 57.2133 42.4323 57.2369L44.139 57.3078C44.9005 57.3433 45.4824 57.9894 45.4551 58.7498L45.4238 59.4865Z" fill="#029A9A"/>
<path d="M60.2604 66.6288C60.2213 66.9874 60.2916 70.415 60.4635 76.9313C60.6041 82.0491 60.3814 87.0171 59.7917 91.8197C59.7409 92.2097 59.5769 92.58 59.3035 92.8676C58.3975 93.8211 57.3118 94.0259 56.019 93.4822C55.6715 93.3404 55.4176 93.0213 55.3473 92.6509C54.5233 88.4551 53.6367 83.3965 52.5393 78.5939C51.6332 74.6226 51.2388 70.7262 51.3715 66.8968C51.4028 65.9512 52.1761 65.2145 53.1095 65.2145H58.9989C59.7527 65.2263 60.3307 65.8724 60.2604 66.6288Z" fill="#DFFEFF"/>
<path d="M98.5045 73.3465C98.524 74.3117 97.7586 75.1115 96.7978 75.1312L95.3723 75.1548C94.4155 75.1745 93.6227 74.4024 93.6031 73.4332L93.5797 72.0188C93.5602 71.0536 94.3257 70.2538 95.2864 70.2341L96.7119 70.2105C97.6687 70.1908 98.4615 70.9629 98.4811 71.9321L98.5045 73.3465Z" fill="#01C4C4"/>
<path d="M114.324 8.34027H39.9404V16.0819H114.324V8.34027Z" fill="#04617A"/>
</svg>
