<svg width="214" height="134" viewBox="0 0 214 134" fill="none" xmlns="http://www.w3.org/2000/svg">
<path d="M166.34 101.534L158.75 103.053C158.497 103.104 158.34 103.34 158.39 103.593L160.788 115.572C160.838 115.825 160.681 116.061 160.428 116.112L154.485 117.301C154.232 117.351 154.075 117.587 154.126 117.84L155.323 123.821C155.373 124.073 155.216 124.309 154.963 124.36L83.2154 138.718C82.9627 138.769 82.7268 138.611 82.6762 138.359L81.4513 132.238C81.4007 131.985 81.1649 131.828 80.9122 131.878L74.6883 133.124C74.4356 133.175 74.1997 133.017 74.1491 132.765L71.8416 121.234C71.791 120.981 71.5551 120.824 71.3024 120.875L62.7481 122.587C62.4954 122.637 62.2595 122.48 62.209 122.227L61.0196 116.284C60.969 116.031 60.7331 115.874 60.4804 115.925L53.5827 117.305C53.33 117.356 53.0941 117.199 53.0435 116.946L51.9085 111.274C51.8579 111.021 51.6221 110.864 51.3694 110.915L45.5947 112.07C45.342 112.121 45.1061 111.964 45.0556 111.711L43.8494 105.684C43.7988 105.431 43.5629 105.274 43.3102 105.324L37.1518 106.557C36.8991 106.607 36.6633 106.45 36.6127 106.197L35.4458 100.367C35.3952 100.114 35.1594 99.9567 34.9067 100.007L28.7296 101.243C28.4769 101.294 28.241 101.137 28.1904 100.884L25.8717 89.2974C25.8211 89.0447 25.5852 88.8875 25.3325 88.9381L18.9776 90.2098C18.7249 90.2604 18.489 90.1032 18.4384 89.8505L16.7059 81.1932C16.6554 80.9405 16.4195 80.7833 16.1668 80.8338L9.25966 82.2161C9.00696 82.2667 8.77108 82.1095 8.7205 81.8568L1.6069 46.3103C1.55633 46.0576 1.71355 45.8218 1.96625 45.7712L8.5926 44.4451C8.8453 44.3945 9.0025 44.1587 8.95193 43.906L7.61462 37.2235C7.56405 36.9708 7.72126 36.7349 7.97396 36.6843L182.992 1.65947C183.245 1.6089 183.48 1.7661 183.531 2.0188L184.887 8.7949C184.938 9.0476 185.173 9.20481 185.426 9.15424L192.371 7.76448C192.623 7.71391 192.859 7.87112 192.91 8.12382L200.016 43.6328C200.067 43.8855 199.909 44.1214 199.657 44.1719L192.721 45.5598C192.469 45.6104 192.312 45.8463 192.362 46.099L194.061 54.5878C194.111 54.8405 193.954 55.0764 193.702 55.127L187.347 56.3987C187.094 56.4493 186.937 56.6852 186.987 56.9379L189.338 68.6837C189.388 68.9364 189.231 69.1723 188.979 69.2229L182.652 70.489C182.399 70.5396 182.242 70.7755 182.292 71.0281L183.437 76.7466C183.487 76.9994 183.33 77.2352 183.077 77.2858L177.153 78.4714C176.9 78.522 176.743 78.7578 176.794 79.0106L178.006 85.066C178.058 85.328 177.875 85.5789 177.609 85.6126L172.718 86.1729C172.452 86.2066 172.268 86.4575 172.321 86.7195L173.461 92.4193C173.512 92.672 173.355 92.9079 173.102 92.9584L165.849 94.41C165.596 94.4606 165.439 94.6965 165.489 94.9492L166.699 100.995C166.75 101.248 166.593 101.484 166.34 101.534ZM11.9951 55.5619L13.9956 67.0176L15.1644 72.7605L16.4923 79.0555C16.6683 79.8866 17.4771 80.4256 18.3194 80.257L23.3079 79.2587C23.8413 79.152 24.3693 79.5038 24.476 80.0373L25.9145 87.2252C26.0344 87.8242 26.6072 88.206 27.1968 88.088L32.4006 87.0466C32.8685 86.953 33.3178 87.2524 33.4115 87.7204L35.5073 98.1934C35.6497 98.9047 36.3442 99.3595 37.0555 99.2171L41.913 98.245C42.3528 98.157 42.7909 98.449 42.8808 98.8982L43.7892 103.437C43.9334 104.158 44.6392 104.62 45.3598 104.476L49.7774 103.592C50.4325 103.461 51.0616 103.88 51.1927 104.535L51.9718 108.429C52.161 109.374 53.082 109.988 54.0273 109.799L58.7818 108.847C59.3153 108.741 59.832 109.085 59.9387 109.618L60.9239 114.541C61.0157 115 61.4538 115.292 61.9124 115.2L72.5819 113.065C72.9001 113.001 73.2146 113.211 73.2783 113.529L74.2598 118.433C74.374 119.004 74.9356 119.379 75.5065 119.264L154.096 103.537C154.433 103.469 154.652 103.153 154.594 102.814L153.573 96.7887C153.543 96.5903 153.579 96.3788 153.678 96.1935L153.814 95.952L164.087 94.2661C164.606 94.1818 164.944 93.6857 164.841 93.1709L163.918 88.5568C163.823 88.0795 164.137 87.6078 164.614 87.5122L171.119 86.2105C171.447 86.1449 171.656 85.8304 171.591 85.5029L170.499 80.0464C170.407 79.5878 170.706 79.1385 171.165 79.0468L175.835 78.1121C176.097 78.0597 176.262 77.8126 176.209 77.5505L175.177 72.3936C175.086 71.935 175.378 71.4969 175.836 71.4052L181.62 70.2477C181.938 70.184 182.15 69.8788 182.086 69.5606L179.887 58.5729C179.809 58.1798 180.063 57.7979 180.456 57.7192L186.306 56.5486C186.587 56.4924 186.766 56.2228 186.712 55.9514L185.073 47.7621C184.994 47.369 185.249 46.9871 185.633 46.9103L191.632 45.7097C191.866 45.6629 192.023 45.427 191.976 45.193L190.482 38.1137L189.126 30.9482L186.835 20.5726L185.198 10.8352C185.029 9.84688 184.069 9.18247 183.088 9.38849L178.066 10.413C172.634 11.432 167.082 12.1439 161.779 13.2733C156.038 14.5001 145.851 16.5678 131.229 19.4747C84.5821 28.761 48.6557 35.9701 23.4719 41.117C19.292 41.973 15.0748 43.1771 10.6329 44.3775C10.0134 44.5404 9.64094 45.1601 9.78515 45.7834L11.9951 55.5619ZM118.065 123.889L150.537 117.565C150.949 117.483 151.219 117.078 151.136 116.667L150.295 112.464C150.215 112.062 149.822 111.8 149.417 111.871L116.93 118.217L82.4444 125.186C81.8174 125.312 81.4056 125.929 81.533 126.566L82.2391 130.094C82.3702 130.749 83.0105 131.176 83.6544 131.038L118.065 123.889Z" fill="#091334"/>
<path d="M178.065 10.4133L173.714 11.7316C173.477 11.8084 173.25 11.9413 173.071 12.1136C171.569 13.6113 170.415 15.283 169.584 17.1138C169.488 17.3179 169.661 17.5462 169.887 17.5106L174.649 16.7426L19.673 47.4354C19.2706 47.516 19.0086 47.9091 19.0891 48.3115L19.9076 52.4015C19.9956 52.8414 20.4225 53.1259 20.8605 53.0285C28.5912 51.3841 35.3373 49.4889 43.6615 48.5239C48.1427 48.0068 52.6333 47.4877 57.1389 46.9462L58.4837 53.3741C58.5006 53.5557 58.4276 53.7747 58.2666 54.0406C56.874 54.2803 55.5056 54.0091 54.1747 54.217C40.4652 56.2889 29.5092 58.1602 21.3143 59.8197C20.7901 59.9246 20.2772 59.5989 20.1536 59.0785L19.3577 55.7822C19.1048 54.7621 18.1482 54.0677 17.0962 54.1614C14.6759 54.3732 12.9688 54.8414 11.9936 55.5622L9.78363 45.7837C9.63942 45.1604 10.0118 44.5407 10.6314 44.3778C15.0733 43.1774 19.2905 41.9733 23.4704 41.1173C48.6542 35.9704 84.5806 28.7613 131.227 19.475C145.85 16.5681 156.037 14.5004 161.778 13.2736C167.08 12.1442 172.632 11.4323 178.065 10.4133Z" fill="#4F00B2"/>
<path d="M186.835 20.5728L179.705 21.8147L175.354 22.3543C175.811 20.5984 175.573 18.7284 174.65 16.7424L169.888 17.5105C169.661 17.5461 169.489 17.3177 169.585 17.1137C170.416 15.2829 171.57 13.6111 173.071 12.1134C173.251 11.9412 173.478 11.8083 173.715 11.7315L178.065 10.4132L183.088 9.38865C184.068 9.18262 185.029 9.84703 185.197 10.8354L186.835 20.5728Z" fill="#9835F9"/>
<path d="M174.651 16.7421C175.574 18.7281 175.812 20.5981 175.356 22.354L167.256 24.296L155.097 26.8657C147.385 28.7497 139.613 30.4803 131.796 32.0348C106.886 36.9908 81.9975 41.9617 57.1412 46.9457C52.6356 47.4872 48.145 48.0063 43.6638 48.5234C35.3396 49.4884 28.5935 51.3836 20.8628 53.028C20.4248 53.1254 19.9979 52.8409 19.9099 52.401L19.0914 48.311C19.0109 47.9086 19.2729 47.5155 19.6753 47.4349L174.651 16.7421Z" fill="#091334"/>
<path d="M58.267 54.0404L59.7465 59.8282L31.2046 66.0948C30.8021 66.1754 30.3884 66.0051 30.1619 65.6513L29.0123 63.7983C28.7689 63.409 28.3028 63.22 27.8498 63.3398L13.9945 67.0178L11.994 55.5621C12.9691 54.8413 14.6763 54.3731 17.0966 54.1613C18.1486 54.0676 19.1052 54.7619 19.358 55.7821L20.154 59.0784C20.2776 59.5988 20.7905 59.9244 21.3146 59.8195C29.5096 58.1601 40.4655 56.2888 54.175 54.2169C55.5059 54.0089 56.8743 54.2802 58.267 54.0404Z" fill="#05C0C0"/>
<path d="M175.354 22.3543L179.705 21.8146C180.377 24.0552 180.416 25.7118 179.84 26.7714C179.34 27.6793 178.446 28.3645 177.147 28.8289C173.867 30.0011 171.052 30.4282 168.693 30.1215L167.255 24.2963L175.354 22.3543Z" fill="#963AF7"/>
<path d="M186.836 20.5725L189.126 30.9482L180.188 33.6129C179.857 33.7084 179.546 33.8582 179.273 34.0492C176.493 35.9682 173.525 37.2339 170.376 37.8445L168.694 30.1213C171.053 30.428 173.868 30.0009 177.148 28.8287C178.447 28.3643 179.341 27.6791 179.841 26.7712C180.418 25.7116 180.378 24.055 179.706 21.8144L186.836 20.5725Z" fill="#02D5D5"/>
<path d="M155.098 26.8655L156.248 33.5368L58.487 53.3734L57.1422 46.9455C81.9985 41.9615 106.887 36.9906 131.797 32.0346C139.612 30.4707 147.386 28.7495 155.098 26.8655Z" fill="#963AF7"/>
<path d="M167.254 24.2965L168.693 30.1217L170.375 37.8449C169.196 40.125 169.237 42.7157 170.497 45.6076L172.35 54.3772C172.445 54.8059 172.177 55.2196 171.76 55.3226L166.597 56.5699C166.255 56.6579 166.047 56.9818 166.107 57.3299L167.504 64.9933C167.6 65.4706 167.274 65.9349 166.795 66.021L161.764 66.9501C161.256 67.0419 160.916 67.5286 161.017 68.034L161.993 72.9102C162.097 73.4343 161.764 73.9585 161.244 74.0821L156.881 75.1402C156.388 75.2582 156.076 75.7393 156.175 76.2353L157.185 81.28C157.293 81.8228 156.96 82.347 156.43 82.4725L152.14 83.5062C151.519 83.6598 151.126 84.2738 151.251 84.9009L152.077 89.0283C152.141 89.3465 151.941 89.6592 151.624 89.7322L140.994 92.3073C140.39 92.4478 139.785 92.0529 139.672 91.4427L139.581 90.984C139.416 90.0631 139.996 89.1683 140.906 88.9473L143.515 88.318C144.352 88.1214 144.919 87.3557 144.894 86.504L144.799 83.9826C144.787 83.5857 145.059 83.2394 145.439 83.1439L149.497 82.1663C150.036 82.0389 150.377 81.5035 150.277 80.9588L149.605 77.3068C149.481 76.6404 149.906 75.9909 150.565 75.8298L154.604 74.8559C155.254 74.6967 155.664 74.0696 155.542 73.4126L154.739 69.0568C154.624 68.4859 155.01 67.9318 155.581 67.8175L158.866 67.1601C159.203 67.0927 159.42 66.7669 159.354 66.4394L156.067 48.6998C157.379 48.6416 158.469 48.2971 159.322 47.6493C159.56 47.4752 159.663 47.1626 159.586 46.8762L158.039 41.0435L156.245 33.5375L155.095 26.8662L167.254 24.2965Z" fill="white"/>
<path d="M156.247 33.537L158.041 41.043L60.1962 60.6532C59.7581 60.2639 59.6046 59.9831 59.7487 59.8277L58.2692 54.04C58.4302 53.7742 58.5032 53.5552 58.4863 53.3736L156.247 33.537Z" fill="#02D5D5"/>
<path d="M189.124 30.9486L190.481 38.114C188.143 39.273 185.644 39.9678 182.975 40.2002C182.507 40.2452 182.055 40.3744 181.642 40.5935C177.812 42.6642 175.759 45.3918 170.497 45.6077C169.237 42.7158 169.196 40.1251 170.375 37.845C173.523 37.2344 176.492 35.9686 179.271 34.0496C179.544 33.8586 179.855 33.7089 180.187 33.6134L189.124 30.9486Z" fill="#963AF7"/>
<path d="M59.7465 59.8281C59.6024 59.9835 59.7559 60.2643 60.194 60.6536C60.2916 62.941 60.7673 65.2209 61.6212 67.4933L61.2899 68.0268C59.7662 67.9521 58.746 67.9616 58.2144 68.0777C49.559 69.917 41.0102 71.4136 32.5906 72.5826C30.9508 72.8037 29.6161 72.6522 28.6053 72.1245C27.7254 71.6678 26.767 71.4995 25.7524 71.6344C22.063 72.1196 18.527 72.4963 15.1633 72.7606L13.9945 67.0178L27.8499 63.3398C28.3028 63.2199 28.769 63.4089 29.0124 63.7983L30.1619 65.6513C30.3884 66.0051 30.804 66.1847 31.2046 66.0948L59.7465 59.8281Z" fill="#2C00B4"/>
<path d="M158.04 41.0434L159.587 46.876C159.664 47.1624 159.561 47.475 159.323 47.6491C158.47 48.2969 157.38 48.6415 156.068 48.6996L61.6222 67.4933C60.7683 65.2209 60.2926 62.941 60.195 60.6535L158.04 41.0434Z" fill="#B666FF"/>
<path d="M61.2895 68.027L63.0859 78.8033C63.1927 79.4341 63.7992 79.8384 64.4225 79.6942L69.3249 78.5087C69.8078 78.3926 70.2833 78.7257 70.3339 79.2218C70.7181 82.8438 71.5983 86.5126 72.954 90.2226C73.1506 90.7673 73.7103 91.0836 74.2719 90.9712L78.7456 90.0759C79.4101 89.9429 80.0503 90.3696 80.1814 91.0248L81.3202 96.7152C81.4008 97.1176 81.7826 97.3722 82.1851 97.2916L91.7222 95.3831C92.2182 95.2838 92.6974 95.6356 92.7593 96.1392L93.2633 100.458C93.3533 101.199 94.0665 101.699 94.8003 101.523L105.674 98.8987C106.035 98.807 106.398 99.0652 106.443 99.4358L107.086 104.934C107.114 105.171 107.342 105.34 107.586 105.291L153.813 95.9523L153.676 96.1938C153.577 96.3792 153.542 96.5907 153.572 96.7891L154.592 102.815C154.65 103.153 154.432 103.47 154.095 103.537L75.505 119.265C74.9341 119.379 74.3725 119.005 74.2582 118.434L73.2768 113.529C73.2131 113.211 72.8986 113.002 72.5804 113.065L61.9108 115.201C61.4522 115.292 61.0142 115 60.9224 114.542L59.9372 109.619C59.8305 109.085 59.3138 108.741 58.7803 108.848L54.0258 109.799C53.0805 109.988 52.1595 109.374 51.9703 108.429L51.1911 104.536C51.06 103.881 50.431 103.461 49.7759 103.592L45.3583 104.477C44.6376 104.621 43.9319 104.158 43.7877 103.438L42.8793 98.8986C42.7894 98.4493 42.3513 98.1574 41.9114 98.2454L37.054 99.2175C36.3427 99.3598 35.6481 98.905 35.5058 98.1937L33.4099 87.7207C33.3163 87.2528 32.867 86.9533 32.399 87.047L27.1953 88.0883C26.6057 88.2063 26.0328 87.8245 25.9129 87.2256L24.4745 80.0377C24.3677 79.5042 23.8398 79.1523 23.3063 79.2591L18.3179 80.2574C17.4755 80.426 16.6668 79.8869 16.4908 79.0558L15.1628 72.7608C18.5266 72.4965 22.0626 72.1198 25.752 71.6346C26.7666 71.4997 27.725 71.668 28.6048 72.1247C29.6157 72.6524 30.9504 72.8039 32.5901 72.5828C41.0098 71.4138 49.5585 69.9171 58.214 68.0779C58.7456 67.9618 59.7657 67.9523 61.2895 68.027Z" fill="#05C0C0"/>
<path d="M190.483 38.1135L191.977 45.1928C192.024 45.4268 191.867 45.6627 191.633 45.7095L185.634 46.9101C185.25 46.9869 184.995 47.3688 185.074 47.7619L186.713 55.9512C186.767 56.2226 186.588 56.4922 186.307 56.5484L180.457 57.719C180.064 57.7977 179.81 58.1796 179.888 58.5727L182.087 69.5604C182.151 69.8786 181.939 70.1838 181.621 70.2475L175.837 71.405C175.379 71.4967 175.087 71.9348 175.178 72.3934L176.21 77.5503C176.263 77.8124 176.098 78.0595 175.836 78.1119L171.166 79.0466C170.707 79.1383 170.408 79.5876 170.5 80.0462L171.592 85.5027C171.657 85.8303 171.448 86.1448 171.12 86.2103L164.615 87.512C164.138 87.6076 163.824 88.0793 163.919 88.5566L164.842 93.1707C164.945 93.6855 164.607 94.1816 164.088 94.2659L153.815 95.9518L107.588 105.29C107.345 105.339 107.117 105.171 107.088 104.933L106.446 99.4353C106.401 99.0647 106.038 98.8064 105.676 98.8982L94.8028 101.522C94.069 101.698 93.3558 101.198 93.2659 100.457L92.7618 96.1386C92.7 95.6351 92.2207 95.2832 91.7247 95.3825L82.1876 97.2911C81.7852 97.3716 81.4033 97.1171 81.3228 96.7146L80.184 91.0242C80.0529 90.3691 79.4126 89.9424 78.7481 90.0753L74.2744 90.9706C73.7128 91.083 73.1531 90.7667 72.9565 90.222C71.6008 86.5121 70.7206 82.8433 70.3364 79.2212C70.2858 78.7252 69.8103 78.392 69.3274 78.5081L64.425 79.6936C63.8017 79.8378 63.1952 79.4336 63.0884 78.8028L61.292 68.0265L61.6233 67.493L156.069 48.6993L159.357 66.4389C159.422 66.7665 159.205 67.0922 158.868 67.1596L155.583 67.817C155.012 67.9313 154.636 68.4835 154.741 69.0563L155.544 73.4121C155.666 74.0691 155.256 74.6963 154.607 74.8555L150.567 75.8293C149.908 75.9904 149.483 76.64 149.607 77.3064L150.28 80.9583C150.379 81.503 150.038 82.0385 149.499 82.1658L145.441 83.1434C145.061 83.2389 144.79 83.5853 144.801 83.9821L144.897 86.5035C144.921 87.3552 144.354 88.1209 143.517 88.3175L140.908 88.9468C139.998 89.1678 139.418 90.0626 139.583 90.9836L139.675 91.4422C139.787 92.0524 140.392 92.4473 140.996 92.3068L151.626 89.7317C151.943 89.6587 152.143 89.3461 152.079 89.0279L151.253 84.9004C151.128 84.2734 151.521 83.6593 152.142 83.5058L156.433 82.472C156.962 82.3465 157.296 81.8223 157.187 81.2795L156.177 76.2349C156.078 75.7388 156.391 75.2577 156.883 75.1397L161.246 74.0816C161.767 73.958 162.1 73.4338 161.995 72.9097L161.019 68.0335C160.918 67.5281 161.258 67.0414 161.766 66.9496L166.797 66.0206C167.276 65.9344 167.593 65.472 167.507 64.9928L166.109 57.3295C166.049 56.9813 166.257 56.6574 166.6 56.5694L171.762 55.3221C172.18 55.2191 172.447 54.8054 172.352 54.3768L170.499 45.6072C175.761 45.3913 177.814 42.6637 181.644 40.5929C182.058 40.3739 182.509 40.2447 182.977 40.1997C185.646 39.9673 188.145 39.2725 190.483 38.1135Z" fill="#00FFFF"/>
<path d="M116.929 118.217L118.064 123.889L83.6538 131.038C83.008 131.167 82.3697 130.75 82.2385 130.094L81.5324 126.566C81.4051 125.93 81.8168 125.312 82.4439 125.186L116.929 118.217Z" fill="#2C00B4"/>
<path d="M118.066 123.888L116.931 118.217L149.419 111.871C149.823 111.8 150.216 112.062 150.297 112.464L151.138 116.666C151.22 117.078 150.951 117.483 150.539 117.565L118.066 123.888Z" fill="#963AF7"/>
</svg>
