<svg width="267" height="294" viewBox="0 0 267 294" fill="none" xmlns="http://www.w3.org/2000/svg">
<path d="M95.1694 49.159L101.343 64.5918C101.407 64.7366 101.579 64.817 101.731 64.7603L108.822 62.1116L118.962 58.2646C119.144 58.1965 119.233 58.001 119.165 57.8196L113.529 42.7612C113.486 42.4807 113.612 42.3094 113.898 42.2363C115.947 41.7029 117.978 40.9309 119.991 39.9174C120.324 39.7475 120.482 39.3573 120.352 39.0096L118.161 33.1678C118.04 32.8443 117.671 32.6792 117.35 32.7996L100.855 38.9846C100.658 39.0583 100.559 39.2746 100.633 39.4712L103.14 46.1566C103.232 46.4015 103.111 46.6779 102.863 46.7638L96.0101 49.1817C95.9799 49.1931 95.9432 49.1965 95.9167 49.1995C95.5878 49.1883 95.3438 49.0901 95.1914 48.8955L92.679 42.195C92.5928 41.9928 92.6981 41.767 92.904 41.6898L99.8587 39.0821C100.025 39.0197 100.109 38.8367 100.05 38.6794L97.5904 32.121C97.5462 32.0031 97.6106 31.8617 97.7287 31.8174L115.256 25.2453C115.389 25.1953 115.531 25.2595 115.581 25.3926L117.916 31.6214C117.987 31.8089 118.204 31.9101 118.401 31.8363L124.977 29.3705C125.213 29.2819 125.484 29.4047 125.576 29.6496L128.268 36.8309C128.324 36.9791 128.244 37.1537 128.096 37.2094L121.347 39.7399C121.159 39.8103 121.064 40.0152 121.132 40.1966L126.821 55.3696C126.886 55.542 126.797 55.7374 126.615 55.8055L120.093 58.2509C119.872 58.3338 119.764 58.5709 119.847 58.7916L122.227 65.1384C122.283 65.2895 122.203 65.4612 122.054 65.5168L111.963 69.3007C111.836 69.3484 111.771 69.4898 111.821 69.6228L117.638 85.1344C117.7 85.3008 117.617 85.4837 117.45 85.5462L110.662 88.0915C110.456 88.1687 110.355 88.3963 110.431 88.5989L112.884 95.1422C112.973 95.378 112.85 95.6484 112.614 95.7369L105.792 98.2947C105.644 98.3503 105.567 98.5137 105.624 98.6648L116.687 128.17C116.773 128.4 117.022 128.51 117.249 128.425L123.392 126.122C123.652 126.024 123.941 126.15 124.039 126.41L137.063 161.143C137.103 161.252 137.234 161.314 137.346 161.272L140.57 160.063C140.718 160.007 140.795 159.844 140.739 159.693L127.744 125.038C127.674 124.851 127.771 124.631 127.962 124.56L134.505 122.106C134.702 122.033 134.806 121.804 134.73 121.601L132.138 114.689C132.065 114.493 132.163 114.276 132.36 114.202L138.966 111.725C139.172 111.648 139.273 111.42 139.197 111.218L136.641 104.399C136.571 104.212 136.671 104.002 136.862 103.93L143.478 101.45C143.69 101.37 143.794 101.141 143.714 100.93L141.054 93.8361C140.977 93.6305 141.083 93.4048 141.279 93.331L147.88 90.8561C148.086 90.7789 148.187 90.5513 148.111 90.3487L145.477 83.3246C145.409 83.1432 145.502 82.9394 145.684 82.8713L151.518 80.6836C151.827 80.5678 151.977 80.2321 151.863 79.9267L149.486 73.589C149.416 73.4015 149.513 73.1822 149.71 73.1085L157.249 70.2816C157.519 70.1806 157.654 69.8781 157.551 69.6029L155.21 63.359C155.115 63.108 155.244 62.8252 155.505 62.7276L191.435 49.2552C191.704 49.1542 192.005 49.2932 192.105 49.5593L194.366 55.5916C194.475 55.8818 194.8 56.0291 195.09 55.9202L202.091 53.2954C202.327 53.2068 202.588 53.3228 202.668 53.5651L206.325 64.2302C206.469 64.6418 206.414 65.0935 206.174 65.4562C205.825 65.9904 204.602 66.0178 204.011 66.7155C202.968 67.9411 201.807 68.6284 200.511 68.7729C200.236 68.8037 200.064 69.0922 200.162 69.3522L201.003 71.5958C201.183 72.0766 200.937 72.6172 200.455 72.7977L194.872 74.8912C194.642 74.9775 194.525 75.2353 194.611 75.4651L196.53 80.5843C196.625 80.8352 196.496 81.118 196.235 81.2157L191.125 83.132C190.801 83.2535 190.638 83.6112 190.759 83.9347L192.977 89.8491C193.045 90.0305 192.958 90.232 192.776 90.3001L161.309 102.099C161.103 102.176 160.878 102.071 160.798 101.86L157.642 93.4416C157.476 93.0002 156.977 92.7735 156.529 92.9416L151.403 94.8636C150.921 95.0441 150.673 95.5787 150.852 96.0565L152.431 100.268C152.52 100.504 152.404 100.765 152.167 100.861C150.356 101.55 148.882 102.489 147.291 100.954C147.093 100.759 146.798 100.698 146.537 100.796L144.857 101.426C144.669 101.496 144.573 101.701 144.645 101.891L150.039 116.278C150.092 116.42 150.028 116.579 149.885 116.632L143.088 119.181C142.97 119.225 142.906 119.367 142.95 119.485L145.882 127.304C145.941 127.461 145.861 127.636 145.713 127.692L138.846 130.266C138.664 130.335 138.575 130.53 138.643 130.711L145.435 148.823C145.517 149.044 145.767 149.157 145.988 149.075L152.549 146.614C152.698 146.559 152.781 146.393 152.724 146.242L148.168 134.093C148.08 133.857 148.196 133.596 148.435 133.506L155.003 131.044C155.311 130.928 155.441 130.555 155.263 130.274L153.515 127.436C153.253 127.023 153.438 126.468 153.908 126.302C154.266 126.178 154.559 126.002 154.812 125.784C154.994 125.625 155.026 125.351 154.899 125.151L154.181 123.982C154 123.691 154.126 123.309 154.45 123.188L167.042 118.466C167.278 118.378 167.395 118.11 167.307 117.874L165.323 112.582C165.176 112.189 165.42 111.763 165.837 111.696C167.2 111.472 167.856 110.967 167.814 110.182C167.792 109.911 167.967 109.649 168.227 109.552L180.607 104.909C180.892 104.803 181.202 104.911 181.369 105.162C182.08 106.268 182.541 107.588 182.736 109.122C182.779 109.43 183.091 109.617 183.385 109.507L190.197 106.953C190.545 106.822 190.924 106.994 191.054 107.342C191.27 107.944 191.365 108.411 191.323 108.758C191.236 109.346 191.833 109.805 192.391 109.589L198.603 107.091C198.829 106.996 199.088 107.116 199.173 107.342L204.042 120.326C204.13 120.562 204.011 120.824 203.775 120.913L196.938 123.476C196.766 123.541 196.683 123.734 196.747 123.906L199.18 130.395C199.26 130.607 199.156 130.836 198.953 130.912L176.103 139.48C175.866 139.568 175.596 139.446 175.507 139.21L173.246 133.177C173.169 132.972 172.941 132.871 172.744 132.945L166.192 135.401C165.916 135.505 165.613 135.367 165.51 135.092L163.57 129.918C163.358 129.353 162.717 129.062 162.141 129.278L157.134 131.155C156.549 131.374 156.254 132.023 156.476 132.616L160.866 144.324C160.934 144.505 160.845 144.701 160.663 144.769L153.763 147.356C153.645 147.4 153.59 147.538 153.634 147.656L156.01 153.994C156.04 154.073 156.13 154.118 156.208 154.089L190.727 141.145C190.836 141.105 190.966 141.156 191.007 141.265L193.622 148.24C193.717 148.491 194 148.62 194.242 148.529L202.199 145.546C202.386 145.475 202.593 145.567 202.665 145.757L210.362 166.285C210.436 166.481 210.331 166.71 210.135 166.784L197.945 171.355C197.772 171.419 197.686 171.603 197.752 171.779L214.95 217.645C215.042 217.89 214.912 218.17 214.67 218.261L207.361 221.002C207.11 221.096 206.981 221.379 207.075 221.63L212.263 235.466C212.355 235.711 212.225 235.991 211.983 236.082L205.225 238.616C204.949 238.719 204.811 239.022 204.914 239.298L207.604 246.47C207.69 246.7 207.575 246.946 207.348 247.031L145.083 270.378C144.853 270.465 144.595 270.347 144.505 270.109L141.812 262.927C141.741 262.737 141.537 262.644 141.346 262.716L134.558 265.261C134.41 265.317 134.245 265.244 134.188 265.093L128.926 251.06C128.819 250.776 128.504 250.635 128.223 250.741L121.419 253.292C121.189 253.378 120.931 253.261 120.845 253.031L103.726 207.376C103.64 207.146 103.392 207.036 103.164 207.121L91.4805 211.502C91.2837 211.576 91.0548 211.472 90.9812 211.276L83.2874 190.757C83.1955 190.512 83.3186 190.242 83.5639 190.15L89.5012 187.923C89.801 187.811 89.9487 187.487 89.8365 187.187L87.324 180.487C87.2231 180.218 87.3625 179.917 87.638 179.814L114.839 169.614C115.027 169.544 115.128 169.327 115.055 169.13L108.491 151.626C108.243 150.964 107.415 150.726 106.86 151.162C105.806 151.971 104.279 152.577 102.278 152.997C101.477 153.163 101.02 154.007 101.307 154.772L102.847 158.881C102.948 159.15 102.807 159.444 102.54 159.544L95.9397 162.019C95.7429 162.093 95.6444 162.309 95.7181 162.506L97.9914 168.568C98.0594 168.75 97.9704 168.945 97.7887 169.013L74.8992 177.596C74.6691 177.682 74.4224 177.568 74.3374 177.341L72.0517 171.245C71.9451 170.961 71.63 170.821 71.3484 170.926L65.8591 172.984C65.3081 173.191 64.7005 172.915 64.4942 172.365L62.3445 166.632C62.1405 166.088 62.417 165.481 62.9589 165.277L68.4694 163.211C68.754 163.105 68.9017 162.78 68.7951 162.496L66.6069 156.66C66.5514 156.512 66.6309 156.337 66.7793 156.282L72.9377 153.973C73.3555 153.816 73.5226 153.322 73.2908 152.943L71.7425 150.444C71.5814 150.18 71.7049 149.837 71.9865 149.732L74.6993 148.715C74.9355 148.626 75.0586 148.356 74.9702 148.12L74.0722 145.725C74.0076 145.553 74.0875 145.361 74.2631 145.295L86.925 140.547C87.1551 140.461 87.4131 140.578 87.5027 140.817L88.7635 144.179C88.8224 144.336 89.0055 144.42 89.163 144.361L91.6851 143.415C91.9545 143.314 92.2458 143.446 92.3467 143.715L93.2651 146.164C93.3807 146.473 93.7167 146.623 94.0225 146.508L97.4287 145.231C97.6497 145.148 97.8994 145.261 97.9821 145.482L99.1896 148.702C99.3665 149.174 99.8867 149.41 100.359 149.233L105.839 147.178C106.345 146.988 106.6 146.427 106.411 145.922L102.012 134.19C101.909 133.915 101.593 133.771 101.311 133.877L94.2868 136.511C94.0657 136.594 93.8251 136.477 93.7424 136.256L88.7821 123.027C88.7232 122.87 88.54 122.787 88.3826 122.846L74.7185 127.97C74.4884 128.056 74.3778 128.304 74.4628 128.531L76.8982 135.026C76.9719 135.223 76.8734 135.439 76.6766 135.513L70.8089 137.713C70.5576 137.807 70.4288 138.09 70.5263 138.35L72.4548 143.493C72.5467 143.738 72.4168 144.018 72.1745 144.109L48.6128 152.943C48.416 153.017 48.1996 152.919 48.1259 152.723L46.0387 147.156C45.9502 146.92 45.6797 146.797 45.4345 146.889L39.3155 149.184C39.1035 149.263 38.8633 149.157 38.7828 148.942L36.3645 142.492C36.2783 142.263 36.0297 142.152 35.8087 142.235L29.0297 144.777C28.8329 144.851 28.604 144.747 28.5303 144.55L25.6868 136.967C25.6097 136.761 25.715 136.536 25.9178 136.46L32.5243 133.982C32.7211 133.909 32.8196 133.692 32.7459 133.496L30.1394 126.544C30.077 126.378 30.1603 126.195 30.3178 126.136L37.003 123.629C37.3179 123.511 37.4807 123.154 37.3628 122.839L35.237 117.17C35.1486 116.934 35.2717 116.663 35.5078 116.575L57.0016 108.516C57.159 108.457 57.3421 108.54 57.4011 108.697L59.4442 114.146C59.5825 114.514 60.0036 114.698 60.3729 114.56L67.4306 111.913C67.6909 111.816 67.9822 111.948 68.0797 112.208L69.9278 117.136C70.0287 117.406 70.25 117.609 70.5118 117.69L72.9922 118.429C73.3172 118.531 73.6706 118.516 73.9885 118.397L85.1548 114.21C85.2971 114.157 85.3709 113.995 85.3176 113.852L82.7338 106.961C82.6896 106.843 82.5606 106.785 82.4485 106.827L75.288 109.512C75.0518 109.6 74.7908 109.484 74.7046 109.255L72.233 102.663C72.1559 102.457 71.9281 102.357 71.7313 102.43L64.9674 104.967C64.7373 105.053 64.4782 104.933 64.3931 104.706L61.7152 97.5639C61.6177 97.3039 61.3347 97.1755 61.0743 97.2731L54.6707 99.6742C54.4406 99.7605 54.1848 99.6495 54.0998 99.4227L51.4864 92.4531C51.3889 92.193 51.0976 92.0608 50.8372 92.1585L44.3246 94.6004C44.0885 94.689 43.824 94.564 43.7356 94.3281L35.4307 72.1795C35.3423 71.9436 35.4585 71.6827 35.6887 71.5965L42.0832 69.1988C42.2891 69.1216 42.3902 68.894 42.3142 68.6914L39.8789 62.1964C39.7961 61.9757 39.9098 61.7262 40.1369 61.641L55.3844 55.9238C55.5964 55.8443 55.8366 55.9508 55.9171 56.1655L58.3173 62.5667C58.4001 62.7874 58.6373 62.895 58.8583 62.8122L65.489 60.3259C65.6313 60.2726 65.7936 60.3462 65.8469 60.4883L68.5872 67.7966C68.6518 67.969 68.8361 68.0551 69.0026 67.9926L76.0996 65.3316C76.3206 65.2487 76.5703 65.362 76.6531 65.5827L87.9647 95.7502C88.0622 96.0103 87.9274 96.2953 87.667 96.393L80.4853 99.0859C80.3763 99.1267 80.3213 99.2473 80.3621 99.3562L82.8542 106.002C82.8984 106.12 83.0274 106.179 83.1455 106.134L89.973 103.574C90.4393 103.4 90.9594 103.636 91.134 104.101L97.7326 121.699C97.8777 122.086 98.3105 122.283 98.6981 122.137L100.363 121.513C100.757 121.365 100.963 120.929 100.816 120.536L99.6433 117.41C99.5548 117.174 99.2775 117.061 99.0538 117.183C98.4479 117.51 97.742 117.709 96.9542 117.79C96.8096 117.81 96.6708 117.707 96.6451 117.565C96.6104 117.426 96.6899 117.279 96.8262 117.228L98.9637 116.427C99.2877 116.305 99.4566 115.945 99.3353 115.622L97.5791 110.938C97.4907 110.702 97.61 110.44 97.8462 110.351L100.598 109.319C100.874 109.216 101.018 108.9 100.915 108.625L97.1766 98.6558C97.0587 98.3413 97.2147 97.9931 97.5296 97.875L102.907 95.8588C103.261 95.7259 103.446 95.3255 103.312 94.9687L102.037 91.5671C101.95 91.3373 102.068 91.0794 102.298 90.9931L109.277 88.3763C109.546 88.2753 109.682 87.9728 109.582 87.7067L104.005 72.8331C103.907 72.5731 103.624 72.4447 103.364 72.5423L96.6999 75.041C96.488 75.1205 96.2591 75.0166 96.1831 74.814L87.8669 52.6352C87.7728 52.3842 87.9016 52.1014 88.1495 51.9981L95.1633 49.1613M69.5149 93.9772L71.9516 100.761C72.1579 101.339 72.8101 101.633 73.3854 101.417L78.9988 99.3121C79.5983 99.0873 79.8964 98.3996 79.6507 97.8089C77.7337 93.1751 75.9381 89.2062 74.512 85.0437C72.4171 78.904 70.4875 73.592 68.7115 69.1227C68.572 68.7783 68.1872 68.6088 67.8481 68.7359L61.823 70.9951C61.5475 71.0984 61.2437 70.9606 61.1439 70.6945L58.5838 63.867C58.4863 63.6069 58.2034 63.4785 57.9407 63.5701L50.6905 66.1817L43.2825 68.8974C43.0857 68.9712 42.9872 69.1874 43.0609 69.384L51.1798 91.0367C51.3159 91.3996 51.7154 91.5809 52.0787 91.4446L58.5429 89.0208C58.773 88.9345 59.0197 89.049 59.1047 89.2758L61.7441 96.3149C61.8564 96.6143 62.1934 96.7673 62.4807 96.6492L69.5118 93.9783M163.031 85.0198C164.202 86.4845 165.076 88.4847 165.649 91.0153C165.692 91.2232 165.918 91.3456 166.12 91.2695L187.59 83.2193C188.023 83.0569 188.241 82.5786 188.079 82.1462L185.967 76.5161C185.826 76.1381 186.022 75.723 186.406 75.5962L191.567 73.8855C192.084 73.7087 192.382 73.159 192.229 72.6302L190.504 66.5931L195.858 64.7821C196.696 64.5025 197.142 63.5731 196.832 62.7476L195.001 57.8643C194.727 57.1326 193.905 56.7647 193.172 57.0395L158.384 70.0838C158.172 70.1633 158.061 70.4015 158.141 70.6162L160.53 76.9871C160.675 77.3742 160.484 77.8044 160.1 77.9486L154.305 80.1215C153.714 80.3429 153.413 81.0042 153.634 81.5938L155.456 86.4529C155.758 87.2572 156.66 87.6466 157.454 87.3215L163.03 85.0168M99.6957 99.9219C99.6368 99.7646 99.4537 99.6816 99.2962 99.7406C99.1388 99.7996 99.0555 99.9826 99.1144 100.14C99.1734 100.297 99.3565 100.38 99.5139 100.321C99.6714 100.262 99.7547 100.079 99.6957 99.9219ZM40.6077 130.682C40.7496 130.702 40.7692 130.901 40.6543 131.286L33.5331 133.956C33.4151 134 33.3507 134.142 33.3949 134.26L36.2055 141.755C36.2554 141.888 36.3969 141.953 36.5301 141.903L43.0798 139.412L43.3636 139.451C43.5691 139.474 43.7457 139.604 43.8194 139.801L45.9713 145.54C46.0507 145.751 46.289 145.862 46.504 145.781L68.1401 137.669C68.4882 137.538 68.6606 137.16 68.5302 136.812L66.3749 131.064C66.274 130.795 66.4134 130.494 66.6798 130.394L73.1682 127.961C73.4044 127.873 73.5271 127.62 73.4447 127.382L71.1394 120.414C71.0623 120.181 70.7979 120.056 70.5708 120.141L64.3186 122.485C63.9885 122.609 63.6087 122.489 63.4098 122.198L62.5034 120.858L60.31 115.635C60.2306 115.451 60.0256 115.355 59.8348 115.427L38.5681 123.401C38.2835 123.508 38.1453 123.811 38.2458 124.098L40.6088 130.685M204.787 62.8344C204.769 62.741 204.634 62.6674 204.381 62.6176C204.345 62.6138 204.296 62.632 204.275 62.6675C204.202 62.7571 204.201 62.8573 204.266 62.9571C204.437 63.2175 204.847 63.1152 204.787 62.8344ZM202.935 64.4531C202.715 63.9493 202.135 63.7185 201.631 63.9315L199.386 64.8904C198.882 65.1106 198.65 65.6905 198.863 66.1936L199.067 66.6725C199.287 67.1763 199.867 67.407 200.371 67.194L202.615 66.2352C203.12 66.015 203.351 65.435 203.139 64.9319L202.935 64.4531ZM101.981 133.067C102.075 133.363 102.394 133.523 102.693 133.428L108.408 131.519C108.704 131.425 108.864 131.107 108.77 130.808L106.712 124.62C106.615 124.315 106.275 124.156 105.979 124.267L103.251 125.29C103.03 125.373 102.783 125.313 102.636 125.134L101.474 123.811C101.318 123.635 101.077 123.573 100.862 123.644L99.5902 124.065C99.2961 124.165 99.137 124.487 99.2307 124.783L101.984 133.066M109.893 131.915C110.357 133.706 111.193 134.876 112.386 135.442C112.638 135.562 112.784 135.831 112.743 136.109C112.598 137.16 113.248 139.61 114.698 143.477C116.371 147.968 119.17 155.523 123.089 166.142C123.159 166.329 123.358 166.427 123.543 166.368L129.245 164.471C129.43 164.412 129.522 164.205 129.454 164.024L116.46 129.369C116.374 129.14 116.125 129.029 115.898 129.114L110.251 131.232C109.976 131.335 109.817 131.629 109.896 131.913M82.7552 150.867L74.8036 153.883C74.631 153.948 74.5352 154.153 74.61 154.325L77.0312 160.349C76.943 160.427 76.8972 160.517 76.8691 160.617L69.6345 163.123C69.5039 163.161 69.4395 163.303 69.4872 163.43L71.9996 170.13C72.0472 170.257 72.197 170.325 72.3219 170.271L79.4357 167.37L94.3783 161.649C94.6084 161.563 94.7258 161.305 94.6396 161.075L91.4505 152.239L90.0733 148.685C89.9633 148.42 89.672 148.288 89.4055 148.387L82.754 150.864M170.277 124.993L172.804 131.732C172.881 131.938 173.109 132.039 173.312 131.963L195.199 123.756C195.641 123.59 195.878 123.098 195.727 122.651L193.872 117.076C193.764 116.741 193.393 116.563 193.06 116.688L186.805 118.978L184.684 113.038C184.587 112.777 184.295 112.645 184.037 112.749L178.174 115.054L168.389 118.678C168.129 118.776 167.996 119.067 168.094 119.327L170.271 124.988M178.696 154.851L168.168 158.816L95.9054 185.957C94.3485 186.244 92.8922 186.845 91.5443 187.754C91.2926 187.921 91.1937 188.237 91.2991 188.518L95.6868 200.22C95.7367 200.353 95.8816 200.427 96.0148 200.377L165.81 174.179C169.507 173.034 173.142 171.933 176.764 170.44C182.8 167.953 189.762 165.17 197.641 162.081C198.119 161.891 198.354 161.365 198.174 160.885L194.196 150.277C193.937 149.585 193.161 149.238 192.468 149.508L178.696 154.851ZM114.247 210.126L128.882 248.917C129.018 249.28 129.43 249.467 129.794 249.331L135.407 247.226C135.849 247.06 136.336 247.281 136.498 247.714L141.372 260.713C141.647 261.444 142.452 261.815 143.188 261.549C146.082 260.509 149.962 258.92 154.83 256.788C158.089 255.358 164.725 253.005 174.73 249.729C175.193 249.573 176.426 249.066 178.428 248.198C179.673 247.659 180.95 247.252 182.262 246.984L202.522 238.463C203.22 238.167 203.561 237.374 203.298 236.672L198.754 224.553C198.577 224.081 198.814 223.562 199.28 223.387L205.226 221.157C205.723 220.971 205.975 220.418 205.789 219.922L189.125 175.479C189.024 175.21 188.732 175.078 188.472 175.176L112.731 203.576C112.289 203.742 112.061 204.241 112.227 204.682L114.249 210.121L114.247 210.126Z" fill="#0A1532"/>
<path d="M113.526 42.7622L105.597 45.6731C105.406 45.7446 105.305 45.9548 105.376 46.1423L108.177 53.6865L108.195 53.7348C108.253 54.2958 107.725 54.7111 106.609 54.9746C106.155 55.0825 105.9 55.5816 106.099 56.0106L108.819 62.1127L101.728 64.7613C101.579 64.8169 101.404 64.7376 101.34 64.5928L95.1662 49.16C95.1519 49.0481 95.1527 48.9581 95.183 48.8916C95.3354 49.0862 95.5795 49.1844 95.9083 49.1956C95.9359 49.1956 95.9684 49.1903 96.0017 49.1778L102.855 46.7599C103.104 46.677 103.223 46.3976 103.131 46.1527L100.625 39.4672C100.551 39.2707 100.649 39.0544 100.846 38.9806L117.341 32.7956C117.665 32.6742 118.033 32.8434 118.153 33.1639L120.343 39.0057C120.474 39.3534 120.313 39.7447 119.983 39.9135C117.97 40.93 115.938 41.699 113.89 42.2324C113.603 42.3055 113.477 42.4768 113.52 42.7573L113.526 42.7622Z" fill="#00FFFF"/>
<path d="M113.526 42.7623L119.162 57.8208C119.23 58.0022 119.141 58.1977 118.959 58.2658L108.819 62.1128L106.099 56.0108C105.904 55.5807 106.155 55.0827 106.609 54.9748C107.724 54.7082 108.251 54.2971 108.195 53.735L108.177 53.6866L105.376 46.1425C105.306 45.955 105.406 45.7448 105.597 45.6733L113.526 42.7623Z" fill="#03D4D4"/>
<path d="M50.6932 66.1772L56.1164 81.4603C56.2309 81.7933 56.6013 81.9613 56.9279 81.8285L65.5751 78.531C65.6558 80.7356 65.9255 82.514 66.3846 83.8766C67.4891 87.1355 68.6906 90.358 69.9896 93.537C69.7042 93.7337 69.5429 93.8838 69.5145 93.9738L62.4834 96.6447C62.1961 96.7627 61.859 96.6098 61.7468 96.3104L59.1074 89.2712C59.0212 89.0414 58.7727 88.9312 58.5456 89.0163L52.0814 91.4401C51.7181 91.5764 51.3186 91.3951 51.1825 91.0322L43.0636 69.3795C42.9899 69.1829 43.0884 68.9667 43.2852 68.8929L50.6932 66.1772Z" fill="#00FFFF"/>
<path d="M69.5141 93.9776C69.5425 93.8876 69.7038 93.7374 69.9892 93.5407C71.2793 93.3157 71.8028 92.8331 71.5496 92.0934C70.4693 88.8807 68.4784 84.354 65.5747 78.5347L56.9275 81.8323C56.6009 81.9651 56.2305 81.797 56.116 81.464L50.6928 66.181L57.943 63.5693C58.2068 63.4808 58.4886 63.6062 58.5861 63.8662L61.1462 70.6937C61.2471 70.9628 61.5497 71.0977 61.8253 70.9944L67.8504 68.7352C68.1895 68.608 68.5773 68.7765 68.7137 69.1219C70.4909 73.5943 72.4174 78.9074 74.5143 85.0429C75.9404 89.2055 77.7329 93.1755 79.653 97.8081C79.9017 98.3977 79.6006 99.0866 79.0011 99.3114L73.3877 101.416C72.8124 101.632 72.1632 101.337 71.9539 100.761L69.5171 93.9764L69.5141 93.9776Z" fill="#03D4D4"/>
<path d="M69.9885 93.5377C68.6895 90.3586 67.4881 87.1361 66.3835 83.8773C65.9274 82.5136 65.6547 80.7362 65.574 78.5316C68.4747 84.352 70.4675 88.8746 71.549 92.0903C71.7991 92.8312 71.2797 93.3156 69.9885 93.5377Z" fill="#029A9A"/>
<path d="M190.506 66.5994L169.955 73.812C169.464 73.9857 169.233 74.5483 169.462 75.0109C169.83 75.78 169.801 76.4393 169.355 76.9997C169.287 77.0871 169.196 77.1487 169.084 77.1907L162.596 79.6236C162.163 79.786 161.972 80.2888 162.189 80.6936C163.051 82.2915 163.329 83.7324 163.037 85.0178L157.461 87.3225C156.664 87.6487 155.765 87.2582 155.463 86.4539L153.641 81.5948C153.42 81.0052 153.722 80.3439 154.312 80.1225L160.107 77.9496C160.495 77.8043 160.682 77.3752 160.537 76.9881L158.148 70.6172C158.069 70.4055 158.176 70.1654 158.391 70.0848L193.179 57.0405C193.912 56.7658 194.733 57.1306 195.008 57.8653L196.839 62.7486C197.149 63.5741 196.707 64.5054 195.865 64.7832L190.511 66.5941L190.506 66.5994Z" fill="#00FFFF"/>
<path d="M99.6963 99.9215C99.7552 100.079 99.6719 100.262 99.5145 100.321C99.357 100.38 99.1739 100.297 99.1149 100.139C99.056 99.9822 99.1393 99.7992 99.2968 99.7402C99.4542 99.6812 99.6373 99.7642 99.6963 99.9215Z" fill="#00FFFF"/>
<path d="M62.4988 120.857L62.9557 122.913C63.0104 123.179 62.8665 123.44 62.6065 123.52L54.2074 126.328C49.9853 127.759 45.8018 129.238 41.6414 130.76C41.2989 130.878 40.9493 130.858 40.6042 130.684L38.2412 124.096C38.1437 123.808 38.282 123.505 38.5636 123.399L59.8272 115.426C60.0149 115.356 60.2219 115.447 60.3024 115.634L62.4958 120.858L62.4988 120.857Z" fill="#00FFFF"/>
<path d="M190.507 66.599L192.231 72.636C192.384 73.1618 192.087 73.7146 191.569 73.8913L186.409 75.6021C186.025 75.7288 185.828 76.144 185.97 76.522L188.081 82.1521C188.243 82.5845 188.026 83.0628 187.593 83.2251L166.123 91.2754C165.917 91.3526 165.692 91.2302 165.651 91.0212C165.078 88.4875 164.205 86.4904 163.034 85.0257C163.325 83.7403 163.044 82.3005 162.186 80.7015C161.972 80.2956 162.16 79.7938 162.593 79.6315L169.081 77.1986C169.19 77.1577 169.284 77.0949 169.351 77.0076C169.796 76.4442 169.83 75.7868 169.459 75.0188C169.23 74.5562 169.461 73.9936 169.952 73.8199L190.503 66.6073L190.507 66.599Z" fill="#03D4D4"/>
<path d="M203.14 64.9347C203.353 65.4377 203.122 66.0177 202.617 66.2379L200.373 67.1967C199.869 67.4097 199.289 67.179 199.069 66.6752L198.865 66.1963C198.652 65.6933 198.884 65.1133 199.388 64.8931L201.633 63.9343C202.136 63.7212 202.717 63.952 202.937 64.4558L203.14 64.9347Z" fill="#0D1735"/>
<path d="M62.499 120.857L63.4054 122.196C63.6054 122.49 63.9811 122.608 64.3142 122.483L70.5664 120.139C70.7965 120.053 71.0579 120.179 71.135 120.412L73.4403 127.38C73.5197 127.619 73.4 127.871 73.1638 127.96L66.6754 130.392C66.406 130.493 66.2708 130.796 66.3705 131.062L68.5258 136.81C68.6562 137.158 68.4839 137.536 68.1357 137.667L46.4996 145.78C46.2877 145.859 46.0474 145.753 45.9669 145.538L43.815 139.799C43.7413 139.602 43.5677 139.471 43.3592 139.449L43.0754 139.411C43.2666 139.349 43.4634 139.248 43.6511 139.095L56.7995 133.913C57.1352 133.777 57.2924 133.404 57.1503 133.071L54.2065 126.325L62.6056 123.517C62.8626 123.438 63.0095 123.176 62.9548 122.91L62.4979 120.854L62.499 120.857Z" fill="#03D4D4"/>
<path d="M54.2532 125.935L57.6273 133.167C57.789 133.524 57.4843 133.978 56.9458 134.191L35.8796 142.363L32.5981 133.921C32.8445 133.459 32.8435 133.235 32.6289 133.237C33.1303 133.381 33.6636 133.346 34.2082 133.149C40.8529 130.695 47.5268 128.289 54.2532 125.935Z" fill="#029A9A"/>
<path d="M91.4504 152.239C91.858 153.731 90.3143 154.937 86.8413 155.871C86.0281 156.096 85.5798 156.54 85.5175 157.212C84.1251 155.203 83.1975 153.088 82.7509 150.865L89.4025 148.389C89.6719 148.288 89.9632 148.42 90.0702 148.687L91.4474 152.24L91.4504 152.239Z" fill="#029A9A"/>
<path d="M178.179 115.06L180.904 121.177L170.276 124.993L168.098 119.333C168.001 119.073 168.133 118.781 168.394 118.684L178.179 115.06Z" fill="#00FFFF"/>
<path d="M186.808 118.98L180.905 121.176L178.179 115.059L184.042 112.754C184.299 112.647 184.592 112.782 184.689 113.043L186.809 118.983L186.808 118.98Z" fill="#029A9A"/>
<path d="M82.7557 150.867C83.2023 153.09 84.1288 155.201 85.5222 157.214L77.0329 160.352L74.6117 154.328C74.538 154.159 74.6327 153.951 74.8053 153.886L82.7568 150.87L82.7557 150.867Z" fill="#00FFFF"/>
<path d="M91.4508 152.239L94.64 161.076C94.7262 161.305 94.6057 161.564 94.3786 161.649L79.436 167.37L76.8695 160.617C76.8945 160.518 76.9434 160.427 77.0316 160.349L85.5209 157.211C85.5833 156.539 86.0285 156.096 86.8448 155.87C90.3178 154.936 91.8615 153.73 91.4539 152.238L91.4508 152.239Z" fill="#03D4D4"/>
<path d="M180.906 121.176L186.81 118.979L193.065 116.689C193.395 116.565 193.767 116.74 193.877 117.078L195.732 122.652C195.883 123.099 195.643 123.593 195.204 123.757L173.317 131.964C173.111 132.041 172.885 131.936 172.809 131.734L170.282 124.994L180.91 121.178L180.906 121.176Z" fill="#03D4D4"/>
<path d="M76.8688 160.617L79.4353 167.37L72.3216 170.272C72.1978 170.329 72.0468 170.258 71.9992 170.131L69.4868 163.43C69.4392 163.303 69.5036 163.162 69.6341 163.123L76.8688 160.617Z" fill="#00FFFF"/>
<path d="M165.806 174.18L172.335 171.632C172.622 171.514 172.773 171.198 172.682 170.901L171.36 166.924C171.11 166.183 171.497 165.373 172.239 165.094L180.913 161.842C181.213 161.729 181.364 161.386 181.239 161.081L178.696 154.851L192.467 149.508C193.157 149.239 193.936 149.585 194.196 150.277L198.173 160.884C198.354 161.365 198.119 161.891 197.641 162.081C189.762 165.17 182.8 167.952 176.764 170.44C173.142 171.933 169.508 173.037 165.809 174.178L165.806 174.18Z" fill="#4F00B2"/>
<path d="M95.9027 185.958L98.1955 192.192C98.2602 192.364 98.4444 192.45 98.62 192.385L170.298 165.508C170.495 165.434 170.593 165.218 170.52 165.021L168.166 158.817L178.693 154.852L181.237 161.082C181.361 161.387 181.21 161.73 180.911 161.843L172.236 165.095C171.494 165.373 171.108 166.184 171.358 166.925L172.68 170.902C172.774 171.198 172.624 171.517 172.332 171.633L165.804 174.181L96.0091 200.379C95.8759 200.429 95.7321 200.358 95.6811 200.222L91.2934 188.52C91.1868 188.236 91.2869 187.923 91.5386 187.756C92.8895 186.846 94.3459 186.245 95.8997 185.959L95.9027 185.958Z" fill="#9736F8"/>
<path d="M168.166 158.817L170.52 165.021C170.593 165.218 170.495 165.434 170.298 165.508L98.62 192.385C98.4474 192.449 98.2613 192.367 98.1955 192.192L95.9027 185.957L168.166 158.817Z" fill="#C291FF"/>
<path d="M182.261 246.992C182.053 244.835 181.328 242.707 180.078 240.616C179.655 239.923 179.97 239.012 180.736 238.724L184.236 237.412C184.748 237.22 185.006 236.657 184.814 236.143L182.892 231.018C182.682 230.459 182.968 229.831 183.537 229.617L187.709 228.053C188.142 227.891 188.354 227.397 188.177 226.971C186.937 224.021 186.138 221.007 185.778 217.938C185.741 217.645 185.671 217.367 185.577 217.089L176.414 192.144C176.296 191.802 175.914 191.631 175.575 191.759L170.065 193.825C169.671 193.972 169.238 193.776 169.091 193.383L167.806 189.957C167.552 189.28 166.786 188.939 166.113 189.209C149.941 195.535 134.08 201.606 118.514 207.415C116.474 208.18 115.057 209.081 114.251 210.128L112.229 204.688C112.063 204.247 112.291 203.748 112.733 203.582L188.474 175.182C188.734 175.084 189.026 175.217 189.127 175.486L205.791 219.928C205.977 220.424 205.725 220.977 205.228 221.163L199.282 223.393C198.816 223.568 198.579 224.088 198.756 224.559L203.3 236.678C203.563 237.38 203.22 238.171 202.524 238.469L182.264 246.991L182.261 246.992Z" fill="#4F00B2"/>
<path d="M182.262 246.991C180.95 247.259 179.672 247.666 178.427 248.205C176.425 249.073 175.193 249.58 174.73 249.736C164.724 253.012 158.089 255.365 154.829 256.794C149.962 258.927 146.079 260.517 143.188 261.556C142.452 261.822 141.646 261.451 141.372 260.72L136.498 247.721C136.336 247.288 135.849 247.067 135.407 247.233L129.793 249.338C129.43 249.474 129.018 249.287 128.882 248.924L114.247 210.132C115.049 209.087 116.466 208.186 118.51 207.42C134.075 201.611 149.938 195.536 166.109 189.214C166.781 188.944 167.548 189.284 167.802 189.962L169.086 193.388C169.234 193.781 169.667 193.977 170.06 193.829L175.571 191.763C175.91 191.636 176.288 191.808 176.409 192.149L185.573 217.093C185.667 217.372 185.737 217.652 185.773 217.942C186.135 221.014 186.93 224.03 188.173 226.975C188.35 227.402 188.141 227.894 187.705 228.058L183.533 229.622C182.967 229.835 182.678 230.464 182.887 231.023L184.809 236.148C185.001 236.659 184.746 237.224 184.231 237.417L180.731 238.729C179.965 239.016 179.65 239.924 180.073 240.621C181.323 242.711 182.051 244.835 182.257 246.997M131.498 210.92C131.272 210.298 130.575 209.977 129.951 210.21L124.488 212.238C123.867 212.471 123.549 213.159 123.776 213.784L130.961 233.149C131.188 233.771 131.885 234.093 132.509 233.859L137.972 231.831C138.592 231.598 138.911 230.91 138.683 230.285L131.498 210.92ZM148.506 235.51C148.343 235.057 147.834 234.824 147.383 234.993L141.773 237.062C141.316 237.233 141.091 237.728 141.255 238.184L146.001 251.045C146.164 251.497 146.673 251.731 147.124 251.562L152.734 249.493C153.191 249.321 153.416 248.826 153.252 248.371L148.506 235.51Z" fill="#9736F8"/>
<path d="M138.684 230.285C138.913 230.913 138.593 231.598 137.972 231.831L132.509 233.859C131.886 234.093 131.188 233.771 130.962 233.149L123.777 213.785C123.55 213.159 123.868 212.471 124.489 212.238L129.952 210.21C130.575 209.977 131.273 210.298 131.499 210.92L138.684 230.285Z" fill="#C291FF"/>
<path d="M153.252 248.371C153.416 248.826 153.189 249.326 152.734 249.493L147.124 251.562C146.673 251.731 146.164 251.497 146.001 251.045L141.255 238.184C141.091 237.728 141.318 237.229 141.774 237.062L147.383 234.993C147.834 234.824 148.343 235.057 148.506 235.51L153.252 248.371Z" fill="#C291FF"/>
</svg>
