<svg width="148" height="182" viewBox="0 0 148 182" fill="none" xmlns="http://www.w3.org/2000/svg">
<path d="M135.15 31.1785C134.959 30.9222 134.83 30.6467 134.759 30.3413L134.661 18.6002L134.604 12.9029C134.595 12.6956 134.426 12.5265 134.218 12.5265H121.327C121.105 12.5265 120.936 12.6956 120.928 12.9165L120.848 18.3575C120.862 18.4775 120.75 18.5784 120.515 18.6711L26.9556 18.8484C26.7425 18.8484 26.5704 18.6848 26.565 18.472L26.3792 12.7692C26.5787 12.5701 26.7781 12.472 26.983 12.472C49.4993 12.3574 80.3972 12.352 119.69 12.4583C120.258 12.4665 120.715 11.9974 120.701 11.4274L120.603 7.48645C120.581 6.76099 119.982 6.18553 119.258 6.18553L26.3164 6.05189L26.3956 0.38455C26.4038 0.17182 26.5732 0 26.7863 0L120.261 0C120.474 0 120.652 0.169093 120.652 0.38455V5.59643C120.652 5.83916 120.843 6.03553 121.086 6.03553H134.595C134.817 6.03553 134.994 6.22098 134.981 6.43917L134.724 11.9211C134.71 12.1338 134.88 12.3111 135.093 12.3111H141.267C141.488 12.3111 141.671 12.4965 141.671 12.7147V30.8676C141.671 31.1022 141.48 31.2931 141.245 31.2876L135.147 31.1731L135.15 31.1785Z" fill="#081735"/>
<path d="M26.3142 6.05197L26.2569 12.4311L12.9524 12.4884C12.7885 12.4884 12.6602 12.6166 12.6602 12.7802L12.7585 18.4258C12.417 20.6621 12.4252 22.8931 12.7804 25.1104L12.7093 30.4668C12.7011 30.7095 12.8951 30.9141 13.1355 30.9223L19.5528 31.2277C19.9735 31.2495 20.2985 31.5905 20.2931 32.0077L20.2439 36.7096L18.9927 37.0942L12.9524 37.1733C12.7093 37.1733 12.5181 36.9823 12.5181 36.7396L12.5181 31.5114C12.5181 31.3477 12.3842 31.2141 12.2203 31.2141H6.13088C5.93145 31.2141 5.76758 31.0586 5.76758 30.8595L5.76758 12.6575C5.76758 12.4366 5.94514 12.2593 6.16643 12.2593H11.9854C12.2422 12.2593 12.4471 12.052 12.4471 11.7984V6.44198C12.4471 6.18561 12.6601 5.97288 12.9169 5.98106L26.3142 6.06016V6.05197Z" fill="#081435"/>
<path d="M26.3765 12.7692C26.2973 12.6628 26.2563 12.5483 26.2563 12.4283L26.3137 6.04913L119.256 6.18277C119.982 6.18277 120.578 6.75823 120.6 7.4837L120.698 11.4247C120.712 11.9919 120.258 12.461 119.687 12.4556C80.3945 12.3492 49.4966 12.3574 26.9803 12.4692C26.7727 12.4692 26.576 12.5674 26.3765 12.7665V12.7692Z" fill="#C5871D"/>
<path d="M26.2564 12.4283C26.2564 12.5483 26.3001 12.6629 26.3765 12.7692L26.5623 18.472C26.5705 18.6847 26.7399 18.8484 26.9529 18.8484L120.512 18.6711L120.663 18.8402C120.756 18.9466 120.797 19.0884 120.783 19.2302C120.627 20.6293 120.676 21.7802 120.933 22.6666C120.996 22.893 120.835 23.1221 120.6 23.1412C119.106 23.2693 117.428 23.2393 115.562 23.0566C115.049 23.0075 114.688 23.1139 114.475 23.3893L19.249 23.433C18.9294 23.433 18.6644 23.1766 18.6644 22.8575V19.1702C18.6644 18.802 18.372 18.5102 18.0087 18.502L12.758 18.4175L12.6597 12.7719C12.6597 12.6083 12.788 12.4801 12.9519 12.4801L26.2564 12.4229V12.4283Z" fill="#EEF0F5"/>
<path d="M134.658 18.6003L120.849 18.3575L120.928 12.9166C120.936 12.6956 121.105 12.5266 121.327 12.5266H134.219C134.426 12.5266 134.596 12.6956 134.604 12.9029L134.661 18.6003H134.658Z" fill="#C28720"/>
<path d="M114.475 23.395L114.746 28.4459C114.76 28.6669 114.582 28.8441 114.361 28.8359L108.613 28.5578C108.32 28.5441 108.08 28.7841 108.086 29.076L108.17 32.4142C108.178 32.6269 108.006 32.8042 107.793 32.8042H27.2949C26.9807 32.8042 26.7267 32.5478 26.7267 32.2287V29.9351C26.7267 29.5314 26.3934 29.2041 25.9864 29.2041H19.5336C19.4052 29.2041 19.2849 29.1769 19.1702 29.1196C17.7332 28.4296 16.8945 28.0259 16.6596 27.9196C15.0013 27.145 13.4933 27.535 12.783 25.1077C12.4279 22.8904 12.4197 20.6622 12.7612 18.4231L18.0119 18.5076C18.3752 18.5158 18.6676 18.8049 18.6676 19.1758V22.8631C18.6676 23.1822 18.9298 23.4386 19.2522 23.4386L114.478 23.395H114.475Z" fill="#FCC604"/>
<path d="M134.658 18.6002L134.756 30.3412L134.671 30.6903C134.608 30.9331 134.393 31.1022 134.144 31.1022H127.825C127.563 31.1022 127.35 31.3094 127.333 31.5713L127.129 36.4231L20.2429 36.7068L20.292 32.0049C20.3002 31.5849 19.9724 31.244 19.5517 31.2249L13.1345 30.9194C12.8913 30.9112 12.7001 30.7067 12.7083 30.464L12.7793 25.1075C13.4896 27.5376 14.9976 27.1448 16.6558 27.9194C16.8908 28.0258 17.7295 28.4321 19.1665 29.1194C19.2812 29.1767 19.4014 29.204 19.5298 29.204H25.9826C26.3869 29.204 26.7229 29.5312 26.7229 29.9349V32.2285C26.7229 32.5476 26.9797 32.804 27.2911 32.804H107.789C108.003 32.804 108.175 32.6267 108.166 32.414L108.082 29.0758C108.074 28.7839 108.317 28.5439 108.609 28.5576L114.357 28.8358C114.578 28.8439 114.756 28.6639 114.742 28.4458L114.472 23.3948C114.685 23.1166 115.048 23.0102 115.559 23.0621C117.422 23.2475 119.102 23.2748 120.597 23.1466C120.832 23.1248 120.995 22.8984 120.93 22.6721C120.673 21.783 120.624 20.6348 120.78 19.2357C120.793 19.0938 120.752 18.952 120.659 18.8456L120.509 18.6766C120.744 18.5838 120.859 18.4856 120.842 18.3629L134.652 18.6056L134.658 18.6002Z" fill="#C5871D"/>
<path d="M134.755 30.3413C134.826 30.6468 134.955 30.925 135.146 31.1786C134.706 31.0641 134.477 31.1923 134.471 31.5632C134.436 32.4523 134.449 34.2059 134.507 36.8105C134.515 37.0096 134.351 37.1732 134.157 37.1651L127.598 37.0723C127.385 36.8732 127.229 36.6523 127.128 36.4178L127.333 31.5659C127.346 31.3041 127.56 31.0968 127.825 31.0968H134.143C134.392 31.0968 134.605 30.9277 134.671 30.685L134.755 30.3359V30.3413Z" fill="#081435"/>
<path d="M127.132 36.4203C127.23 36.6549 127.388 36.8758 127.601 37.0749L127.588 53.616C127.588 53.8587 127.787 54.0551 128.028 54.0551H133.877C134.032 54.0551 134.155 54.1751 134.155 54.3333V61.4706C134.155 61.6397 134.289 61.7761 134.453 61.7761H140.613C140.805 61.7761 140.955 61.9315 140.941 62.117L140.644 68.5016C140.63 68.7498 140.835 68.9571 141.083 68.9571H147.159C147.328 68.9571 147.473 69.0989 147.473 69.2707V127.921C147.473 128.099 147.331 128.241 147.154 128.241H140.922C140.674 128.241 140.466 128.448 140.466 128.701V145.03C140.466 145.251 140.28 145.428 140.053 145.42C138.958 145.371 136.988 145.384 134.142 145.455C133.898 145.463 133.737 145.611 133.644 145.903L132.847 145.207C133.251 145.172 133.437 145.043 133.415 144.809C133.407 144.689 133.401 144.623 133.401 144.602C133.751 138.94 133.871 133.763 133.756 129.053C133.743 128.598 134.106 128.221 134.56 128.208L139.69 128.074C140.187 128.061 140.581 127.649 140.564 127.144C140.507 125.759 140.493 124.501 140.515 123.359C140.835 105.568 140.95 94.6728 140.87 90.6801C140.663 80.7854 140.564 73.749 140.556 69.5789C140.556 69.2871 140.313 69.0471 140.023 69.0471H134.617C134.262 69.0471 133.978 68.7634 133.978 68.4144V62.6897C133.978 62.2915 133.65 61.9643 133.251 61.9725L127.438 62.0515C127.287 61.9534 127.203 61.8443 127.167 61.7325L127.074 54.7287C127.066 54.4015 126.804 54.1451 126.484 54.1451H121.482C121.184 54.1451 120.941 53.9024 120.941 53.6051V42.9522C120.941 42.7313 120.755 42.5486 120.537 42.5486L35.5991 42.4913L26.8406 42.5704C26.5975 42.5786 26.4008 42.7777 26.4008 43.0177L26.3571 48.0605L26.3926 53.6924C26.3926 53.9051 26.2232 54.0769 26.0074 54.0769H20.6146C20.3524 53.856 20.1093 53.7933 19.8962 53.8914L19.8333 37.6122C19.8333 37.3776 19.6776 37.1649 19.4426 37.1022C19.3006 37.0667 19.1503 37.0585 18.9946 37.0885L20.2459 36.704L127.132 36.4203Z" fill="#081735"/>
<path d="M35.597 42.4914C35.7473 44.3024 35.5123 45.9987 34.8785 47.5778C32.4253 47.826 30.013 47.6269 27.6581 46.9887C27.5434 46.9533 27.4149 46.9533 27.2947 46.9806C26.7893 47.1006 26.4752 47.4551 26.355 48.0606L26.3987 43.0178C26.3987 42.7751 26.5981 42.5787 26.8385 42.5705L35.597 42.4914Z" fill="#C5871D"/>
<path d="M127.169 61.7325C121.877 61.6398 116.64 61.6889 111.46 61.8744C110.067 61.9235 108.649 61.8525 107.371 62.3571C106.679 62.6271 106.488 63.5217 107.015 64.048C108.226 65.2617 109.001 66.519 109.343 67.8253C109.4 68.0517 109.564 68.2508 109.777 68.3572C110.567 68.7608 111.37 68.9244 112.181 68.8535C116.97 68.4635 121.735 68.5399 126.48 69.0881C126.906 69.1372 127.283 68.8099 127.292 68.379L127.442 62.0516L133.255 61.9725C133.654 61.9644 133.982 62.2916 133.982 62.6898V68.4144C133.982 68.7635 134.266 69.0472 134.621 69.0472H140.028C140.32 69.0472 140.56 69.2899 140.56 69.579C140.569 73.749 140.667 80.7855 140.875 90.6802C140.954 94.6729 140.839 105.566 140.519 123.359C140.498 124.501 140.511 125.759 140.569 127.144C140.582 127.649 140.192 128.061 139.694 128.074L134.564 128.208C134.108 128.221 133.747 128.598 133.761 129.053C133.876 133.763 133.753 138.94 133.406 144.602C133.406 144.624 133.414 144.686 133.419 144.809C133.441 145.044 133.255 145.172 132.851 145.207L127.103 145.229C126.904 145.229 126.74 145.393 126.748 145.592L126.882 151.785C126.909 152.445 126.803 153.035 126.568 153.569C126.461 153.79 126.24 153.932 125.999 153.932H120.713C120.465 153.932 120.257 154.139 120.257 154.393V161.467C120.257 161.808 119.978 162.086 119.631 162.092L113.392 162.106L108.961 162.056L92.9598 161.942L92.9952 158.028C93.0034 157.644 93.3012 157.338 93.6864 157.325L97.3226 157.232C97.5931 157.224 97.8143 157.019 97.8498 156.749L98.0848 154.611C98.1121 154.349 98.3116 154.136 98.5766 154.101L101.352 153.697C101.814 153.626 102.177 153.25 102.226 152.789L102.852 147.157C102.866 147.024 102.937 146.895 103.043 146.808C103.789 146.197 105.518 146.241 106.125 145.564C106.617 145.016 106.852 144.193 106.835 143.085C106.827 142.324 107.31 141.678 107.974 141.572C109.105 141.381 109.761 140.655 109.939 139.393C110.146 137.901 110.28 136.744 110.359 135.926C110.408 135.364 111.064 134.952 112.323 134.696C112.998 134.562 113.52 134.014 113.618 133.332C114.372 128.197 115.446 123.048 115.37 117.713C115.356 116.969 115.954 116.358 116.7 116.336L118.399 116.292C118.804 116.284 119.131 115.965 119.145 115.561C119.508 107.295 119.62 99.9584 119.495 93.552C119.467 92.2511 119.344 90.7756 119.126 89.1065C119.033 88.381 118.536 87.7783 117.853 87.5356L116.921 87.2083C116.736 87.1456 116.607 86.9874 116.58 86.7965L115.192 77.4145C115.129 76.9754 114.793 76.6264 114.353 76.5336C113.408 76.3482 112.731 75.83 112.326 74.9845C111.365 72.9527 110.81 71.0272 110.663 69.2108C110.641 68.9135 110.37 68.6926 110.072 68.7199L106.63 69.0172C106.302 69.0444 106.032 69.2872 105.969 69.6063C105.699 70.4436 106.084 71.8018 105.428 72.4972C105.193 72.759 104.483 72.8872 103.3 72.8954C92.2522 72.9745 63.2612 72.3418 40.245 73.2499C39.9964 73.2581 39.8242 73.2063 39.7341 73.0863C39.6357 72.9663 39.5784 72.789 39.5565 72.5545C39.8051 71.3817 39.8352 70.3317 39.6412 69.3935C39.5975 69.159 39.3926 68.9899 39.1577 68.9954L25.7959 69.0172C25.0282 68.4063 24.6158 67.2635 24.5584 65.5862C24.5502 65.338 24.3453 65.1471 24.0967 65.1526L21.179 65.2235C20.7037 65.2371 20.3403 64.8199 20.4168 64.3508C20.5452 63.5626 20.3594 62.7962 19.854 62.0435C19.9742 61.9998 20.1027 61.888 20.2529 61.7025L31.3225 61.6235L40.4581 61.6589L40.2722 64.8335C40.2367 65.4662 40.7421 66.0062 41.3759 66.0062H104.431C105.057 66.0062 105.554 65.488 105.54 64.8635L105.425 60.3607C105.404 59.5998 104.8 58.9834 104.038 58.948L101.12 58.8143C100.729 58.7925 100.415 58.4652 100.415 58.0752V48.216C100.415 47.8533 100.123 47.5615 99.7594 47.5615L47.9462 47.6542L35.6745 47.5478C35.3412 47.4551 35.0762 47.4687 34.8931 47.5751C35.5269 45.9987 35.7619 44.2996 35.6117 42.4887L120.549 42.546C120.771 42.546 120.954 42.7314 120.954 42.9496V53.6024C120.954 53.8997 121.197 54.1425 121.494 54.1425H126.497C126.816 54.1425 127.081 54.3988 127.087 54.7261L127.18 61.7298L127.169 61.7325Z" fill="#C5871D"/>
<path d="M34.8773 47.5779C35.0631 47.4715 35.3254 47.4579 35.6587 47.5506L35.8718 55.5825C35.8854 56.1798 35.4155 56.6761 34.82 56.6898L32.558 56.7525C32.2793 56.7607 32.0089 56.8807 31.8313 57.0852C30.2441 58.918 30.0665 60.4316 31.3041 61.6235L20.2344 61.7026L20.2617 54.6716C20.2698 54.5079 20.3327 54.3525 20.4529 54.2325L20.6086 54.077H26.0014C26.2145 54.077 26.3866 53.9079 26.3866 53.6925L26.3511 48.0606C26.4713 47.4579 26.7854 47.1006 27.2908 46.9806C27.411 46.9533 27.5395 46.9533 27.6542 46.9888C30.0091 47.6269 32.4214 47.826 34.8746 47.5779H34.8773Z" fill="#FCC604"/>
<path d="M40.4434 61.6617C40.7056 61.9098 41.0062 62.0871 41.3531 62.1935C41.6017 62.2726 41.8803 62.1935 42.0497 61.9944C42.4841 61.4817 43.3719 61.0917 44.7188 60.8298C44.8963 60.7944 45.0384 60.6444 45.0739 60.4671L45.451 58.3153C45.5138 57.9743 45.7651 57.6907 46.0984 57.598L47.2786 57.2434C47.5573 57.1643 47.7485 56.9107 47.754 56.6189L47.9315 47.657L99.7448 47.5642C100.108 47.5642 100.4 47.856 100.4 48.2188V58.078C100.4 58.468 100.715 58.7953 101.105 58.8171L104.023 58.9507C104.785 58.9862 105.389 59.6053 105.411 60.3635L105.526 64.8662C105.539 65.4908 105.042 66.009 104.416 66.009H41.3613C40.7275 66.009 40.2221 65.469 40.2576 64.8363L40.4434 61.6617Z" fill="#FCC604"/>
<path d="M47.9348 47.6569L47.7572 56.6189C47.749 56.9107 47.5578 57.1671 47.2819 57.2434L46.1017 57.598C45.7684 57.6907 45.5171 57.9743 45.4543 58.3153L45.0772 60.4671C45.0417 60.6444 44.8996 60.7944 44.7221 60.8298C43.378 61.0917 42.4874 61.4844 42.053 61.9944C41.8836 62.1935 41.605 62.2726 41.3564 62.1935C41.0067 62.0871 40.7089 61.9098 40.4467 61.6617L31.3112 61.6262C30.0736 60.4344 30.2512 58.9207 31.8384 57.088C32.016 56.8807 32.2864 56.7607 32.5651 56.7552L34.8271 56.6925C35.4254 56.6789 35.8953 56.1825 35.8789 55.5852L35.6658 47.5533L47.9375 47.6597L47.9348 47.6569Z" fill="#EEF0F5"/>
<path d="M19.897 53.8914C20.1101 53.7933 20.3532 53.856 20.6155 54.0769L20.4598 54.2324C20.3396 54.3524 20.274 54.5105 20.2685 54.6715L20.2413 61.7024C20.091 61.8879 19.9626 61.9997 19.8424 62.0434L13.4607 61.9943C13.4333 62.0652 13.4033 62.1279 13.3678 62.1797C13.2694 62.3297 13.0345 62.2288 13.07 62.0515L13.1329 61.7243L13.0345 54.3524C13.0263 54.1533 13.1902 53.9978 13.3896 53.9896L19.8998 53.8914H19.897Z" fill="#081435"/>
<path d="M127.166 61.7325C127.202 61.847 127.286 61.9534 127.437 62.0516L127.286 68.3789C127.278 68.8126 126.901 69.1399 126.475 69.088C121.73 68.5398 116.963 68.4635 112.176 68.8535C111.365 68.9244 110.562 68.7608 109.772 68.3571C109.559 68.2507 109.395 68.0517 109.338 67.8253C108.996 66.5189 108.22 65.2616 107.01 64.048C106.483 63.5216 106.677 62.627 107.365 62.357C108.647 61.8525 110.062 61.9234 111.455 61.8743C116.635 61.6889 121.872 61.6398 127.163 61.7325H127.166Z" fill="#0B1434"/>
<path d="M13.1323 61.7269L13.0694 62.0542C13.0339 62.2315 13.2688 62.3324 13.3672 62.1824C13.4027 62.1333 13.43 62.0678 13.4601 61.9969L13.3809 68.6597C13.3727 68.8943 13.1815 69.0852 12.9465 69.0852H6.81335C6.64124 69.0852 6.49921 69.227 6.49921 69.3988L6.49921 127.687C6.49921 128.071 6.81339 128.382 7.19586 128.382H12.4028C12.7443 128.382 13.023 128.66 13.023 129.001V144.457C13.023 144.812 13.3153 145.103 13.6705 145.103H19.4621C19.626 145.103 19.7544 145.232 19.7544 145.395V152.74C19.7544 153.315 20.2106 153.776 20.7871 153.79L26.4148 153.896L26.0951 161.175C26.0815 161.544 26.3656 161.857 26.7344 161.871L32.5397 162.133L32.4823 168.176L32.455 175.202C32.455 175.592 32.7692 175.906 33.1599 175.906L43.9099 175.862L90.1091 176.012L113.06 175.586C113.259 175.578 113.423 175.417 113.429 175.218L113.598 169.082L113.385 162.108L119.625 162.094C119.974 162.086 120.25 161.811 120.25 161.47V154.395C120.25 154.139 120.458 153.934 120.706 153.934H125.993C126.236 153.934 126.454 153.793 126.561 153.572C126.796 153.04 126.902 152.451 126.875 151.788C126.725 153.018 127.047 153.763 127.85 154.041L127.402 154.005C127.124 153.983 126.883 154.204 126.883 154.48V162.043C126.883 162.277 126.684 162.468 126.449 162.454L120.941 162.198C120.698 162.184 120.502 162.375 120.502 162.61V175.72C120.502 175.976 120.294 176.181 120.04 176.181H114.598C114.172 176.181 113.83 176.522 113.83 176.942V181.467C113.83 181.666 113.675 181.829 113.475 181.829H32.8839C32.5698 181.829 32.3294 181.573 32.343 181.262L32.5697 176.41C32.5834 176.184 32.4058 175.998 32.1791 175.998H26.147C25.9613 175.998 25.8138 175.848 25.8138 175.657L25.8138 162.588C25.8138 162.381 25.6444 162.212 25.4286 162.212H19.8364C19.6096 162.212 19.4239 162.026 19.4239 161.8V154.073C19.4239 153.923 19.3037 153.803 19.1534 153.803H13.0995C12.9574 153.803 12.8427 153.689 12.8427 153.547L12.8427 145.804C12.8427 145.542 12.6296 145.33 12.3591 145.33H6.58938C6.42 145.33 6.27517 145.188 6.27517 145.011C6.26151 139.008 6.28885 133.518 6.35988 128.554C3.89024 128.491 1.88501 128.434 0.333284 128.377C0.147515 128.369 0 128.213 0 128.028L0 69.5816C0 69.3252 0.21308 69.1207 0.469879 69.1207H5.81897C6.16865 69.1207 6.44458 68.8425 6.44458 68.4961V62.1606C6.44458 61.9533 6.60846 61.7842 6.81335 61.7842L13.1295 61.7269H13.1323Z" fill="#081735"/>
<path d="M19.8396 62.0462C20.345 62.7989 20.5307 63.5653 20.4023 64.3535C20.3231 64.8226 20.6865 65.2426 21.1645 65.2263L24.0822 65.1553C24.3308 65.1472 24.5385 65.3408 24.5439 65.589C24.6013 67.2663 25.0138 68.409 25.7815 69.0199C25.4537 69.0336 25.1559 69.1263 24.8772 69.2981C24.6778 69.4263 24.5931 69.6663 24.6559 69.8872C24.7898 70.3127 24.8772 70.6318 24.9045 70.8472C25.0247 71.7991 23.7653 72.2327 23.1753 71.4445C22.9267 71.1118 22.8119 70.55 22.8201 69.7618C22.8201 69.5845 22.6644 69.4481 22.4868 69.4781L22.2436 69.5136C22.1152 69.5354 22.0224 69.6418 22.0169 69.7699L21.7328 75.6282C21.7109 76.1955 21.241 76.6509 20.6728 76.6646L18.908 76.7137C18.6157 76.7218 18.3889 76.9482 18.3753 77.2318L17.9136 86.892C17.8999 87.282 17.5721 87.5874 17.1815 87.5874H14.3075C14.0015 87.5874 13.7584 87.8302 13.7584 88.1356L13.7584 112.384C13.7584 112.646 13.9933 112.845 14.2556 112.804L16.6897 112.45C16.9383 112.414 17.1651 112.605 17.1651 112.853L17.1651 123.301C17.1651 123.741 17.5693 124.076 18.0037 123.983C18.3807 123.904 18.8643 123.899 19.4544 123.97C19.703 124.005 19.8942 124.218 19.8942 124.474V133.821C19.8942 134.331 20.2985 134.759 20.8121 134.781L23.4156 134.901C23.7353 134.914 23.9839 135.179 23.9921 135.498L24.0413 137.295C24.0494 137.699 24.3745 138.021 24.7816 138.021H27.4425C28.0107 138.021 28.3822 137.432 28.1336 136.919C27.1665 134.923 26.6038 133.019 26.4481 131.194C26.4344 130.952 26.2787 130.747 26.0492 130.646C25.7159 130.496 25.2324 130.42 24.5986 130.412C24.0495 130.403 23.6178 129.942 23.6369 129.397L24.0849 120.051C24.0986 119.759 24.3336 119.524 24.6259 119.519L26.1203 119.483C26.3989 119.475 26.612 119.249 26.6038 118.973C26.2705 108.86 26.2705 98.7094 26.6174 88.5338C26.6311 88.1492 26.9152 87.8301 27.2922 87.7729L29.5843 87.4401C29.9476 87.3829 30.2181 87.0856 30.2399 86.7147L30.6743 77.4309C30.688 77.1473 30.9311 76.9264 31.2152 76.94L34.0182 77.0737C34.4307 77.0955 34.7804 76.7546 34.7722 76.3346L34.6929 73.3018C34.6793 72.9336 35.0126 72.6418 35.3841 72.6991C36.8566 72.9336 38.2362 72.89 39.5393 72.5654C39.5612 72.8 39.6186 72.9772 39.7169 73.0972C39.8098 73.2172 39.9792 73.2663 40.2278 73.2609C63.2413 72.3527 92.2323 72.9827 103.283 72.9063C104.463 72.8982 105.176 72.7727 105.411 72.5081C106.067 71.8127 105.681 70.4545 105.952 69.6172C106.015 69.2981 106.285 69.0554 106.613 69.0281L110.055 68.7308C110.353 68.7036 110.623 68.9217 110.645 69.2218C110.796 71.0409 111.35 72.9636 112.309 74.9955C112.713 75.8409 113.391 76.3591 114.336 76.5446C114.776 76.6373 115.112 76.9837 115.175 77.4255L116.563 86.8074C116.59 86.9983 116.718 87.1565 116.904 87.2192L117.836 87.5465C118.519 87.7892 119.016 88.392 119.109 89.1174C119.33 90.7866 119.45 92.2647 119.478 93.5629C119.606 99.9694 119.491 107.306 119.128 115.572C119.114 115.976 118.786 116.298 118.382 116.303L116.683 116.347C115.937 116.369 115.339 116.98 115.352 117.724C115.432 123.059 114.355 128.208 113.601 133.343C113.503 134.025 112.981 134.573 112.306 134.707C111.047 134.963 110.394 135.375 110.342 135.937C110.263 136.753 110.129 137.912 109.921 139.403C109.744 140.669 109.088 141.392 107.957 141.583C107.296 141.689 106.812 142.335 106.818 143.096C106.832 144.204 106.597 145.027 106.108 145.575C105.504 146.249 103.775 146.208 103.026 146.819C102.92 146.904 102.848 147.032 102.835 147.168L102.209 152.8C102.16 153.261 101.797 153.637 101.335 153.708L98.5594 154.112C98.2971 154.147 98.0977 154.36 98.0676 154.622L97.8327 156.76C97.7972 157.03 97.5759 157.235 97.3054 157.243L93.6693 157.336C93.2841 157.349 92.9863 157.655 92.9781 158.039L92.9426 161.953H43.028C42.5881 161.762 42.2166 161.527 41.9188 161.249C41.7986 161.135 41.7194 160.979 41.6976 160.816L41.3642 158.579C41.2932 158.075 40.8588 157.706 40.3534 157.706H28.8931C28.2675 157.706 27.7621 157.21 27.7539 156.586C27.7457 155.655 27.732 155.066 27.7266 154.802C27.7047 154.27 27.2649 153.97 26.4043 153.907L20.7766 153.801C20.2002 153.787 19.744 153.326 19.744 152.751L19.744 145.406C19.744 145.243 19.6156 145.114 19.4516 145.114H13.66C13.3049 145.114 13.0126 144.823 13.0126 144.468V129.012C13.0126 128.672 12.7339 128.393 12.3924 128.393H7.18542C6.80022 128.393 6.48877 128.08 6.48877 127.698L6.48877 69.4099C6.48877 69.2408 6.6308 69.0963 6.80291 69.0963H12.9361C13.171 69.0963 13.3622 68.9054 13.3704 68.6708L13.4497 62.008L19.8314 62.0571L19.8396 62.0462Z" fill="#FCC604"/>
<path d="M25.7816 69.02L39.1433 68.9982C39.3783 68.99 39.5832 69.1619 39.6269 69.3964C39.8181 70.3346 39.7908 71.3846 39.5422 72.5574C38.2391 72.8846 36.8595 72.9255 35.387 72.691C35.0181 72.6337 34.6821 72.9255 34.6958 73.2937L34.775 76.3265C34.7832 76.7465 34.4335 77.0874 34.021 77.0656L31.2181 76.9319C30.9339 76.9183 30.6908 77.1392 30.6772 77.4229L30.2428 86.7066C30.2209 87.0748 29.9505 87.3748 29.5871 87.4321L27.295 87.7648C26.918 87.8221 26.6339 88.1412 26.6203 88.5257C26.2706 98.704 26.2706 108.852 26.6066 118.965C26.6148 119.243 26.399 119.47 26.1231 119.475L24.6287 119.511C24.3364 119.519 24.1014 119.753 24.0878 120.042L23.6398 129.389C23.6179 129.937 24.0523 130.398 24.6014 130.403C25.2352 130.412 25.7188 130.488 26.0521 130.638C26.2788 130.736 26.4372 130.944 26.4509 131.186C26.6066 133.011 27.1694 134.914 28.1365 136.911C28.3851 137.424 28.0163 138.013 27.4453 138.013H24.7844C24.3801 138.013 24.0523 137.694 24.0441 137.287L23.9949 135.49C23.9867 135.171 23.7381 134.906 23.4185 134.893L20.815 134.773C20.3041 134.751 19.8971 134.325 19.8971 133.813V124.466C19.8971 124.21 19.7058 123.997 19.4572 123.962C18.8671 123.891 18.3836 123.899 18.0066 123.975C17.5722 124.068 17.1679 123.733 17.1679 123.293V112.845C17.1679 112.597 16.9412 112.406 16.6926 112.441L14.2584 112.796C13.9961 112.84 13.7612 112.641 13.7612 112.376V88.1275C13.7612 87.8221 14.0044 87.5794 14.3103 87.5794H17.1842C17.5749 87.5794 17.9028 87.2739 17.9164 86.8839L18.3781 77.2238C18.3918 76.9401 18.6212 76.7138 18.9108 76.7056L20.6756 76.6565C21.2439 76.6429 21.7138 76.1874 21.7356 75.6201L22.0198 69.7619C22.028 69.6337 22.1181 69.5273 22.2465 69.5055L22.4896 69.47C22.6672 69.4428 22.8229 69.5764 22.8229 69.7537C22.8147 70.5419 22.9295 71.1037 23.1781 71.4364C23.7682 72.2246 25.0275 71.791 24.9073 70.8392C24.88 70.6264 24.7926 70.3073 24.6588 69.8791C24.5959 69.6582 24.6806 69.4182 24.8801 69.29C25.1587 69.121 25.4565 69.0282 25.7843 69.0119L25.7816 69.02Z" fill="#EEF0F5"/>
<path d="M132.845 145.207L133.642 145.903L133.806 153.686C133.814 153.855 133.672 154 133.5 154L127.851 154.035C127.047 153.757 126.728 153.013 126.875 151.783L126.742 145.589C126.733 145.39 126.897 145.226 127.097 145.226L132.845 145.204V145.207Z" fill="#081435"/>
<path d="M43.0394 161.939L36.2588 161.947L32.538 162.133L26.7327 161.871C26.3639 161.857 26.0771 161.544 26.0934 161.175L26.4131 153.896C27.2736 153.959 27.7162 154.259 27.7353 154.791C27.7435 155.053 27.7572 155.644 27.7627 156.574C27.7709 157.199 28.2762 157.695 28.9018 157.695H40.3622C40.8676 157.695 41.3019 158.064 41.373 158.568L41.7062 160.804C41.7281 160.968 41.8046 161.124 41.9275 161.238C42.2253 161.516 42.5969 161.748 43.0367 161.942L43.0394 161.939Z" fill="#C5871D"/>
<path d="M92.9526 161.939L108.953 162.054C108.604 164.042 108.598 166.065 108.918 168.127L36.3585 167.958C35.9241 166.046 35.8968 164.045 36.2601 161.95L43.0407 161.942H92.9553L92.9526 161.939Z" fill="#081735"/>
<path d="M36.2592 161.947C35.8959 164.042 35.9259 166.046 36.3576 167.956L32.481 168.176L32.5384 162.133L36.2592 161.947Z" fill="#0B1434"/>
<path d="M113.384 162.103L113.597 169.077C112.95 168.226 111.384 167.904 108.915 168.125C108.595 166.066 108.6 164.042 108.95 162.051L113.381 162.1L113.384 162.103Z" fill="#0B1434"/>
<path d="M36.3587 167.956L108.918 168.125C111.388 167.904 112.953 168.223 113.601 169.077L113.431 175.213C113.423 175.412 113.262 175.576 113.062 175.581L90.1116 176.007L90.169 172.535C90.1772 172.038 89.7701 171.627 89.2729 171.627C75.9057 171.591 62.9428 171.64 50.3924 171.76C47.9884 171.782 45.3493 171.569 42.795 171.406C42.6092 171.392 42.4263 171.357 42.246 171.307C41.5548 171.1 40.9018 171.002 40.2762 171.016C39.8063 171.029 39.4512 171.449 39.5222 171.918L39.9566 174.872C40.0358 175.404 40.4838 175.797 41.0247 175.81L43.9124 175.859L33.1624 175.903C32.7717 175.903 32.4575 175.589 32.4575 175.199L32.4848 168.174L36.3614 167.953L36.3587 167.956Z" fill="#C5871D"/>
<path d="M90.1092 176.009L43.91 175.859L41.0224 175.81C40.4814 175.796 40.0334 175.406 39.9542 174.872L39.5198 171.918C39.4488 171.449 39.8039 171.029 40.2738 171.015C40.8994 171.002 41.5551 171.1 42.2436 171.307C42.4211 171.356 42.6069 171.392 42.7927 171.405C45.347 171.569 47.986 171.782 50.3901 171.76C62.9404 171.64 75.9033 171.591 89.2705 171.626C89.7677 171.626 90.1748 172.038 90.1666 172.535L90.1092 176.006V176.009Z" fill="#FCC604"/>
</svg>
