<svg width="166" height="216" viewBox="0 0 166 216" fill="none" xmlns="http://www.w3.org/2000/svg">
<path d="M159.219 55.4564C158.924 55.4472 158.627 55.5053 158.342 55.6062L153.414 55.4472C153.12 55.4319 152.887 55.1934 152.887 54.8968V49.9918C152.887 49.6738 152.633 49.4169 152.311 49.4108L142.978 49.2028L128.388 49.1478C128.109 49.1478 127.886 49.371 127.877 49.6493L127.782 54.6093L122.973 54.6002C122.724 54.6002 122.525 54.7989 122.525 55.0466V62.2543C122.525 62.4683 122.7 62.6457 122.917 62.6365L127.353 62.5264C127.567 62.5173 127.745 62.343 127.745 62.1289V57.5419C127.745 57.2086 128.008 56.9365 128.342 56.9303L140.69 56.8111L140.54 62.1717C140.53 62.4102 140.723 62.609 140.962 62.6029L144.901 62.4989C145.333 62.4836 145.692 62.8261 145.707 63.2634L145.778 65.9881C145.787 66.3061 146.041 66.5538 146.36 66.5538H150.611C150.93 66.5538 151.184 66.8076 151.184 67.1287L151.153 90.3112C150.93 90.4702 150.78 90.5008 150.691 90.406L146.488 90.2225C146.304 90.2134 146.154 90.3663 146.17 90.5497L146.632 97.5403L146.608 108.307C146.608 108.65 146.335 108.928 145.992 108.928H141.085C140.717 108.928 140.414 108.635 140.408 108.268L139.97 91.1369C139.961 90.7791 139.667 90.4916 139.308 90.5008L133.301 90.565C133.213 90.5253 133.142 90.4947 133.078 90.4549C133.029 90.4305 133.007 90.3846 133.007 90.3265V83.9629C133.007 83.4369 132.545 83.0302 132.018 83.0944L127.503 83.6448L127.598 77.2261C127.607 76.9479 127.35 76.7246 127.071 76.7552L123.313 77.2414C123.064 76.7552 122.96 76.4219 122.994 76.2292C123.306 74.3822 123.362 72.575 123.169 70.8136C123.113 70.3029 122.611 69.9604 122.115 70.0888C121.429 70.257 120.871 70.2387 120.433 70.0246C120.617 67.5323 121.995 66.0584 122.075 63.1747C122.084 62.9668 121.916 62.7925 121.707 62.8017L116.053 62.8659L115.989 55.6124L115.9 31.1975C115.9 30.9742 115.725 30.7999 115.502 30.7999L49.6534 30.8091L42.1548 30.8489L36.9689 30.6593C36.7453 30.6501 36.5616 30.8275 36.5707 31.0507L36.6412 55.8662L36.5217 63.0004L36.5524 70.6607L31.5595 70.2387C31.0663 70.1989 30.6497 70.6056 30.6834 71.098L31.0816 77.0946L26.735 76.8164C26.5206 76.8011 26.3368 76.9754 26.3276 77.1894L26.2327 83.5133L21.6778 83.2412C20.7772 83.1861 20.0114 83.9109 20.0176 84.8191L20.0666 90.1553L20.0114 95.4761C20.0023 95.7147 19.8032 95.9073 19.5642 95.889L13.7259 95.6168C13.5513 95.6076 13.4073 95.7452 13.4073 95.9195V108.127C13.4073 108.414 13.1745 108.644 12.8897 108.644H7.58432C7.30557 108.644 7.07277 108.867 7.07277 109.145L6.97782 146.853L6.88898 152.492C6.8798 152.984 7.27188 153.4 7.76504 153.416L12.9264 153.624L12.8713 162.51C12.4792 163.785 12.4578 165.027 12.807 166.229C12.9969 166.874 13.5574 167.336 14.2283 167.391L18.2655 167.724C18.3359 168.4 18.4891 168.861 18.728 169.094L18.6238 177.543C18.6238 177.815 18.8383 178.029 19.1017 178.029H24.3825C24.6153 178.029 24.8052 178.213 24.8052 178.442V188.127C24.8052 188.454 25.0687 188.717 25.3872 188.717H30.6038C30.8672 188.717 31.0816 188.931 31.0816 189.194L31.0663 196.888L25.0993 197.056C24.9002 197.065 24.7409 196.912 24.7409 196.714V189.515C24.7409 189.277 24.551 189.084 24.3182 189.084H18.6147C18.4554 189.084 18.3206 188.955 18.3206 188.796V178.531C18.3206 178.427 18.2318 178.341 18.1307 178.341H12.4271C12.2433 178.341 12.0932 178.191 12.0932 177.999V168.935C12.0932 168.672 11.8788 168.464 11.6154 168.464H6.5888C6.356 168.464 6.16609 168.274 6.16609 168.042V153.929C6.16609 153.706 5.99149 153.532 5.76788 153.532H0.35226C0.159283 153.532 0 153.373 0 153.18V108.607C0 108.408 0.159283 108.249 0.35226 108.249H6.10482C6.38357 108.249 6.61637 108.017 6.61637 107.739V95.8003C6.61637 95.577 6.80015 95.3936 7.02989 95.3936H12.6293C12.908 95.3936 13.1316 95.1703 13.1316 94.8921V83.2167C13.1316 83.0485 13.2664 82.914 13.4349 82.914H19.4019C19.6102 82.914 19.7756 82.7458 19.7756 82.5409V76.321C19.7756 76.0182 20.0298 75.7797 20.3331 75.795L25.3107 76.0274C25.5741 76.0427 25.7977 75.8378 25.7977 75.5748V70.0154C25.7977 69.7677 26.006 69.569 26.2602 69.5781L29.2927 69.7219C29.5562 69.7372 29.7706 69.5323 29.7706 69.2693V26.8857C29.7706 26.5983 29.5317 26.3598 29.2437 26.3598H23.6596C23.4513 26.3598 23.2859 26.1855 23.3012 25.9775L23.6045 19.5588C23.6198 19.2163 23.3503 18.9228 23.0072 18.9044L21.2122 18.8249C21.0039 18.8096 20.8446 18.6414 20.8446 18.4335V6.56853C20.8446 6.36976 21.0039 6.21075 21.1969 6.21075H27.0689C27.3017 6.21075 27.4824 6.02727 27.4824 5.79792V0.492334C27.4824 0.220174 27.706 0 27.9848 0H124.642C124.97 0 125.233 0.262986 125.233 0.581016V6.14042C125.233 6.38811 125.432 6.58688 125.68 6.58688H131.353C131.601 6.58688 131.8 6.78565 131.8 7.03335V18.5008C131.8 18.6995 131.632 18.8677 131.433 18.8677H129.773C129.525 18.8677 129.319 19.0757 129.319 19.3203V26.3047C129.319 26.5524 129.111 26.7573 128.866 26.7573H123.313C123.04 26.7573 122.819 26.9805 122.819 27.2496V48.6065C122.819 48.7105 122.899 48.79 123.003 48.79H127.638C127.708 48.79 127.766 48.735 127.766 48.6616V42.9523C127.766 42.7597 127.926 42.6007 128.125 42.6007H152.709C152.948 42.6007 153.147 42.7933 153.147 43.0318V48.3833C153.147 48.6952 153.396 48.9398 153.699 48.9398H158.612C158.885 48.9398 159.105 49.1539 159.114 49.4261L159.225 55.4533M28.0951 13.6019C27.5284 16.9779 28.1992 18.6659 30.1045 18.6659L30.0892 24.0663C30.0892 24.2406 30.2239 24.3843 30.4016 24.3843H121.704C122.047 24.3843 122.32 24.106 122.32 23.7635L122.36 18.7699L124.648 18.2041C124.887 18.1399 125.062 17.9411 125.095 17.7026C125.294 16.1828 125.206 14.6049 124.832 12.9811L124.862 7.23211C124.872 6.99971 124.679 6.81929 124.449 6.81929L111.869 6.98748L28.3983 6.79788C28.1747 6.79788 27.9909 6.98136 28.0001 7.20459L28.0951 13.608M139.964 62.6641H131.307C131.163 62.6641 131.053 62.7741 131.059 62.9179L131.148 66.4865C131.157 66.725 130.989 66.933 130.756 66.9789C129.886 67.1623 129.05 67.147 128.25 66.9299C127.996 66.8596 127.748 67.0492 127.748 67.3122V75.3149C127.748 75.5626 127.947 75.7675 128.195 75.7675H132.575C132.808 75.7675 132.998 75.9571 132.998 76.1895V82.177C132.998 82.3666 133.157 82.5287 133.357 82.5287H139.29C139.489 82.5287 139.657 82.6877 139.657 82.8864V89.8372C139.657 89.9871 139.777 90.1155 139.93 90.1155H144.739C144.834 90.1155 144.914 90.036 144.914 89.9412V67.358C144.914 67.1746 144.761 67.0247 144.586 67.0308L140.947 67.1256C140.573 67.1348 140.27 66.8382 140.27 66.4651V62.9698C140.27 62.7955 140.135 62.6579 139.958 62.6579L139.964 62.6641Z" fill="#061031"/>
<path d="M42.1551 30.8427C41.9805 38.5365 41.9008 46.2273 41.9162 53.912C41.9254 54.8294 42.1888 55.3768 42.7126 55.5603C42.6421 55.7835 42.4246 55.8875 42.0754 55.8783L36.6445 55.8538L36.5741 31.0384C36.5649 30.8151 36.7487 30.6408 36.9723 30.6469L42.1581 30.8365L42.1551 30.8427Z" fill="#FFC900"/>
<path d="M115.992 55.6095L99.8161 55.7196L99.5618 36.8396C99.5526 36.488 99.2831 36.2036 98.9308 36.1852C96.2199 36.0415 93.4356 35.962 90.5715 35.9467C78.3496 35.858 65.5733 35.9314 52.2334 36.1455C50.9805 36.1699 49.9605 35.8917 49.1855 35.3259L49.6573 30.8032L115.505 30.794C115.729 30.794 115.904 30.9683 115.904 31.1915L115.992 55.6064V55.6095Z" fill="#C98519"/>
<path d="M49.6553 30.8027L49.1836 35.3254C48.9049 35.9707 48.7762 36.7902 48.816 37.7932C49.0642 43.7502 49.3031 49.753 49.5328 55.8078C49.4379 55.6793 49.349 55.7527 49.2786 56.0218L42.7143 55.5601C42.1874 55.3766 41.924 54.8262 41.9179 53.9118C41.9026 46.2271 41.9822 38.5333 42.1568 30.8425L49.6553 30.8027Z" fill="#DFFEFF"/>
<path d="M49.1826 35.3257C49.9576 35.8915 50.9776 36.1697 52.2305 36.1453C65.5673 35.9312 78.3467 35.8578 90.5686 35.9465C93.4326 35.9618 96.217 36.0413 98.9279 36.185C99.2802 36.2003 99.5497 36.4878 99.5589 36.8394L99.8131 55.7194H99.4548L49.5349 55.8081C49.3021 49.7563 49.0632 43.7505 48.8181 37.7935C48.7783 36.7905 48.907 35.971 49.1857 35.3257H49.1826Z" fill="#FFC900"/>
<path d="M142.982 49.2058C143.717 49.3098 144.179 50.1691 144.369 51.7868C144.449 52.4167 144.985 52.8938 145.622 52.8938H147.625C147.919 52.8938 148.168 53.1078 148.207 53.3953L148.471 55.1964C148.535 55.6337 148.909 55.9609 149.356 55.9609H152.891C153.283 55.9609 153.592 56.2728 153.592 56.6612V64.5294C153.592 64.8321 153.801 65.1043 154.104 65.1746C154.9 65.3581 155.283 66.3122 155.262 68.0399C155.197 72.0061 154.974 75.6543 155.133 79.2046C155.277 82.5347 155.268 85.9811 155.109 89.5405C155.093 89.7944 154.919 90.0176 154.671 90.091C153.467 90.4243 152.294 90.4977 151.16 90.305L151.191 67.1225C151.191 66.8045 150.937 66.5476 150.618 66.5476H146.366C146.048 66.5476 145.794 66.2999 145.784 65.9819L145.714 63.2572C145.699 62.82 145.34 62.4775 144.908 62.4927L140.969 62.5967C140.73 62.6059 140.537 62.4041 140.547 62.1655L140.697 56.8049C140.681 56.0802 140.473 55.3952 140.066 54.7499C139.931 54.5359 139.692 54.3983 139.435 54.4075L127.789 54.6062L127.884 49.6462C127.893 49.3679 128.113 49.1447 128.395 49.1447L142.985 49.1997M144.608 57.5602L142.207 57.7192C141.952 57.7345 141.769 57.9517 141.784 58.1963L141.919 60.2574C141.974 61.0524 142.55 61.6671 143.218 61.6182L144.118 61.5631C144.789 61.5142 145.282 60.8292 145.227 60.0341L145.092 57.9792C145.077 57.7254 144.859 57.5327 144.605 57.5572L144.608 57.5602Z" fill="#FFC900"/>
<path d="M158.342 55.6092C158.431 55.6795 158.526 55.7376 158.636 55.7774C158.716 55.808 158.771 55.8814 158.771 55.9609V95.8246C158.771 96.1274 158.532 96.3659 158.229 96.3659H153.116C152.883 96.3659 152.693 96.5555 152.693 96.7971V108.161C152.693 108.512 152.415 108.79 152.062 108.79H147.811C147.235 108.79 146.766 109.261 146.772 109.833L146.907 146.847C145.167 146.712 143.541 146.758 142.025 146.991C141.816 147.021 141.538 146.966 141.194 146.832C140.986 146.743 140.772 146.697 140.548 146.697L119.832 146.792C120.325 146.823 120.145 146.767 119.29 146.633L118.843 139.395C118.812 138.844 119.241 138.383 119.792 138.383H122.362C122.77 138.383 123.097 138.055 123.113 137.649C123.456 127.566 123.367 118.194 122.84 109.521C122.825 109.209 122.601 108.94 122.298 108.861C121.741 108.711 120.871 108.687 119.682 108.772C119.22 108.803 118.827 108.454 118.812 107.992L118.5 95.8889C118.491 95.6106 118.261 95.3874 117.982 95.3965L114.337 95.4913C113.825 95.5066 113.412 95.0846 113.427 94.577L113.556 90.938L119.707 90.9288C123.799 91.0328 127.882 91.0236 131.95 90.9135C132.468 90.8983 132.924 90.779 133.298 90.5619L139.305 90.4977C139.663 90.4885 139.96 90.7759 139.966 91.1337L140.404 108.265C140.413 108.631 140.717 108.925 141.081 108.925H145.988C146.331 108.925 146.604 108.647 146.604 108.304L146.628 97.5371C147.241 97.7359 147.786 97.7451 148.249 97.5616C148.662 97.3934 148.95 96.9714 149.119 96.2864C149.597 94.3354 150.124 92.3753 150.69 90.4029C150.779 90.4977 150.929 90.4671 151.153 90.3081C152.286 90.4977 153.459 90.4273 154.663 90.094C154.911 90.0237 155.086 89.8004 155.101 89.5436C155.26 85.9841 155.27 82.5347 155.126 79.2076C154.966 75.6573 155.19 72.0091 155.254 68.0429C155.279 66.3152 154.896 65.358 154.096 65.1776C153.793 65.1073 153.585 64.8351 153.585 64.5324V56.6642C153.585 56.2728 153.272 55.9639 152.883 55.9639H149.349C148.901 55.9639 148.528 55.6367 148.463 55.1994L148.2 53.3983C148.16 53.1108 147.912 52.8968 147.618 52.8968H145.615C144.977 52.8968 144.441 52.4197 144.362 51.7898C144.169 50.1721 143.706 49.3128 142.974 49.2089L152.308 49.4168C152.626 49.426 152.883 49.6798 152.883 49.9978V54.9028C152.883 55.1964 153.116 55.4349 153.41 55.4532L158.339 55.6123L158.342 55.6092Z" fill="#C98519"/>
<path d="M127.782 54.6123L139.428 54.4136C139.682 54.4044 139.921 54.542 140.059 54.7561C140.467 55.4013 140.675 56.0863 140.69 56.811L128.343 56.9303C128.009 56.9395 127.745 57.2086 127.745 57.5419V62.1289C127.745 62.3429 127.571 62.5203 127.353 62.5264L122.918 62.6365C122.704 62.6457 122.526 62.4683 122.526 62.2542V55.0466C122.526 54.7989 122.725 54.6001 122.973 54.6001L127.782 54.6093V54.6123Z" fill="#DFFEFF"/>
<path d="M49.2837 56.0221L49.3634 62.9117L42.0088 63.0157L42.0792 55.8815C42.4315 55.8906 42.6459 55.7867 42.7164 55.5634L49.2807 56.0252L49.2837 56.0221Z" fill="#B8FFFF"/>
<path d="M115.991 55.6092L116.055 62.8627L99.646 62.878C99.5571 62.3367 99.551 61.9545 99.6307 61.7404C100.326 59.8995 100.268 57.8935 99.4561 55.7193H99.8144L115.991 55.6092Z" fill="#71451C"/>
<path d="M159.219 55.4562L164.748 55.4257C165.106 55.4257 165.403 55.7192 165.403 56.0801V96.161C165.403 96.4087 165.204 96.6074 164.956 96.6074H159.546C159.292 96.6074 159.084 96.8154 159.084 97.0784V108.356C159.084 108.619 158.869 108.833 158.606 108.833H153.573C153.359 108.833 153.19 109.001 153.181 109.215C153.141 111.787 153.331 114.096 153.772 116.145C153.788 116.234 153.797 116.313 153.797 116.399L153.901 153.492C153.901 153.66 153.766 153.795 153.598 153.795H147.502C147.438 153.795 147.374 153.825 147.334 153.874C147.205 154.024 147.19 154.217 147.294 154.464C146.92 154.058 146.504 153.844 146.05 153.804C146.681 153.779 147.015 153.367 147.055 152.562C147.174 150.198 147.125 148.293 146.911 146.853L146.776 109.839C146.767 109.264 147.239 108.797 147.815 108.797H152.066C152.419 108.797 152.697 108.518 152.697 108.167V96.8031C152.697 96.5646 152.887 96.372 153.12 96.372H158.232C158.536 96.372 158.775 96.1334 158.775 95.8307V55.9669C158.775 55.8874 158.719 55.8171 158.64 55.7834C158.53 55.7437 158.431 55.6886 158.346 55.6153C158.634 55.5113 158.928 55.4562 159.222 55.4654L159.219 55.4562Z" fill="#061233"/>
<path d="M42.0808 55.8785L42.0104 63.0158L36.5273 62.9914L36.6499 55.8571L42.0808 55.8785Z" fill="#845423"/>
<path d="M99.455 55.7195C100.27 57.8937 100.325 59.8998 99.6296 61.7407C99.55 61.9547 99.5592 62.337 99.6449 62.8782L49.3575 62.9088L49.2778 56.0192C49.3483 55.747 49.4371 55.6767 49.5321 55.8051L99.4519 55.7164L99.455 55.7195Z" fill="#845423"/>
<path d="M49.3622 62.9113L49.0589 65.8653C49.0283 66.2078 49.0191 66.5595 49.0344 66.902L49.209 70.6297C48.4279 70.8682 47.6683 70.8926 46.927 70.7092L41.542 70.5012L42.0045 63.0153L49.3591 62.9113H49.3622Z" fill="#DFFEFF"/>
<path d="M99.6485 62.8778C100.022 63.1011 100.166 63.4344 100.062 63.8808C99.8139 64.9725 99.8875 65.9511 100.27 66.8104C100.374 67.0428 100.589 67.2018 100.837 67.2477C102.681 67.5902 103.572 68.688 103.517 70.5381C103.398 70.642 103.254 70.7277 103.085 70.7919L49.2079 70.6237L49.0333 66.896C49.018 66.5535 49.0241 66.2018 49.0578 65.8594L49.3611 62.9054L99.6485 62.8748V62.8778Z" fill="#DFFEFF"/>
<path d="M120.439 70.0215C120.265 70.4435 120.017 70.6576 119.689 70.6668C116.555 70.7157 111.17 70.6759 103.519 70.5383C103.574 68.6913 102.682 67.5905 100.838 67.248C100.59 67.199 100.376 67.04 100.272 66.8107C99.8888 65.9514 99.8184 64.9698 100.063 63.8811C100.168 63.4347 100.024 63.1013 99.6499 62.8781L116.059 62.8628L121.714 62.7986C121.922 62.7894 122.087 62.9668 122.081 63.1717C122.002 66.0553 120.62 67.5262 120.439 70.0215Z" fill="#C98519"/>
<path d="M42.0104 63.0155L41.5448 70.5014L40.0132 70.8592L36.561 70.6512L36.5273 62.991L42.0104 63.0155Z" fill="#DFFEFF"/>
<path d="M123.316 77.2383L104.867 77.5105C104.937 77.6695 104.707 77.6848 104.156 77.5502L103.087 70.7982C103.255 70.734 103.399 70.6484 103.519 70.5444C111.167 70.6789 116.552 70.7187 119.689 70.6728C120.017 70.6636 120.262 70.4496 120.44 70.0276C120.878 70.2416 121.435 70.26 122.121 70.0918C122.614 69.9634 123.12 70.3059 123.175 70.8165C123.368 72.5779 123.31 74.3852 123 76.2322C122.97 76.4218 123.071 76.7582 123.319 77.2444L123.316 77.2383Z" fill="#71451C"/>
<path d="M36.559 70.6516L40.0143 70.8595C40.9791 73.7738 38.403 73.3273 37.5729 75.0398C37.3248 75.5566 37.1809 76.1773 37.1502 76.9112L31.0883 77.0856L30.6901 71.0889C30.6594 70.5965 31.073 70.1898 31.5661 70.2296L36.559 70.6516Z" fill="#845423"/>
<path d="M46.9261 70.7067C46.2001 70.8902 45.9704 71.5262 46.2246 72.6088C46.5371 73.9543 47.165 74.5842 48.1146 74.5047C48.3137 74.4894 48.4883 74.6392 48.4975 74.838C48.5067 74.9328 48.4668 75.0704 48.3933 75.2508C48.3443 75.3609 48.2432 75.4435 48.1299 75.4649C47.1558 75.6637 46.6872 76.2386 46.7178 77.1835C46.5432 77.2722 46.4544 77.3761 46.4544 77.4954L46.1266 77.0581C45.9826 76.8685 45.7529 76.7554 45.514 76.7707L37.3538 77.1621C37.265 76.9939 37.1945 76.9083 37.1455 76.9083C37.1761 76.1744 37.3201 75.5536 37.5682 75.0368C38.3983 73.3243 40.9744 73.7708 40.0095 70.8565L41.5411 70.4987L46.9261 70.7067Z" fill="#B8FFFF"/>
<path d="M49.2073 70.6268L103.085 70.795L104.154 77.547C85.2481 77.6907 66.3364 77.6571 47.4215 77.4522C47.1336 77.443 46.9039 77.3574 46.7201 77.1892C46.6894 76.2412 47.1581 75.6694 48.1322 75.4706C48.2424 75.4462 48.3466 75.3666 48.3956 75.2566C48.466 75.0731 48.5059 74.9385 48.4997 74.8437C48.4906 74.645 48.316 74.4921 48.1169 74.5104C47.1673 74.5899 46.5363 73.96 46.2269 72.6145C45.9727 71.5319 46.2024 70.8959 46.9284 70.7124C47.6696 70.8959 48.4293 70.8714 49.2104 70.6329L49.2073 70.6268Z" fill="#845423"/>
<path d="M31.0837 77.0853L37.1456 76.911C37.1946 76.911 37.2651 76.9997 37.3539 77.1648L37.164 77.4125C37.0047 77.6113 36.9312 77.8743 36.9802 78.1281C37.1793 79.2504 37.1793 80.4307 36.9955 81.6631C36.9404 81.9903 36.6831 82.238 36.3645 82.2778L31.9383 82.7945C31.828 82.8098 31.73 82.8832 31.684 82.9933C31.5952 83.2074 31.6289 83.3847 31.7729 83.5193L26.2378 83.504L26.3327 77.1801C26.3419 76.966 26.5257 76.7887 26.7401 76.807L31.0867 77.0853H31.0837Z" fill="#FFC900"/>
<path d="M46.4633 77.5015C45.8476 79.6452 46.1508 81.8561 47.3577 84.1496L39.6999 84.0456L32.4556 84.0609C32.3514 84.0609 32.2656 84.0059 32.2228 83.9172C32.1431 83.749 32.039 83.7184 31.9195 83.8132L31.7755 83.5196C31.6316 83.3851 31.6009 83.2077 31.6867 82.9937C31.7357 82.8836 31.8307 82.8102 31.941 82.7949L36.3672 82.2781C36.6857 82.2384 36.943 81.9907 36.9982 81.6634C37.182 80.428 37.182 79.2507 36.9829 78.1284C36.9339 77.8746 37.0074 77.6116 37.1667 77.4129L37.3566 77.1652L45.5168 76.7737C45.7557 76.7585 45.9885 76.8685 46.1294 77.0612L46.4571 77.4985L46.4633 77.5015Z" fill="#DFFEFF"/>
<path d="M127.501 83.6418C124.478 84.1586 121.201 84.2626 117.65 83.9354L111.555 83.9048L109.974 81.3239C109.824 81.0701 109.542 80.9172 109.248 80.9172H106.09C105.677 80.9172 105.364 80.5502 105.428 80.1435C105.548 79.4096 105.358 78.535 104.862 77.5075L123.311 77.2354L127.07 76.7491C127.348 76.7186 127.603 76.9387 127.596 77.2201L127.501 83.6388V83.6418Z" fill="#C98519"/>
<path d="M46.7193 77.1896C46.9031 77.3578 47.1328 77.4434 47.4208 77.4526C66.3325 77.6605 85.2474 77.6911 104.153 77.5474C104.704 77.6819 104.934 77.6667 104.864 77.5076C105.357 78.5351 105.55 79.4097 105.43 80.1436C105.366 80.5503 105.678 80.9173 106.092 80.9173H109.25C109.544 80.9173 109.823 81.0671 109.976 81.324L111.557 83.9049L47.3503 84.1526C46.1465 81.8591 45.8432 79.6452 46.4559 77.5046C46.4559 77.3853 46.5447 77.2813 46.7193 77.1927V77.1896Z" fill="#DFFEFF"/>
<path d="M26.2396 83.5038L31.7747 83.5191L31.9186 83.8126C31.744 85.7086 31.646 87.6198 31.6246 89.5555C31.6154 89.8185 31.3918 90.1059 30.9384 90.4087C30.1083 90.0509 28.7759 89.9867 26.9349 90.216L20.0735 90.1457L20.0245 84.8095C20.0153 83.9013 20.7811 83.1766 21.6847 83.2316L26.2396 83.5038Z" fill="#091731"/>
<path d="M133.304 90.562C132.931 90.7761 132.474 90.8953 131.957 90.9137C127.889 91.0237 123.806 91.0329 119.713 90.929L117.655 83.9384C121.205 84.2656 124.483 84.1617 127.506 83.6449L132.021 83.0944C132.548 83.0302 133.01 83.4369 133.01 83.9629V90.3265C133.01 90.3816 133.035 90.4305 133.081 90.455C133.145 90.4947 133.215 90.5253 133.304 90.5651V90.562Z" fill="#71451C"/>
<path d="M39.6927 84.0453C40.1001 85.2562 40.29 86.4489 40.2502 87.6292C40.241 87.8616 40.2594 88.0818 40.3145 88.3142L40.8077 90.4242C37.2912 91.1796 33.9953 91.1734 30.9321 90.4089C31.3855 90.1062 31.6091 89.8187 31.6183 89.5558C31.6428 87.6201 31.7377 85.7088 31.9123 83.8129C32.0318 83.7181 32.1359 83.7487 32.2156 83.9169C32.2554 84.0055 32.3442 84.0606 32.4484 84.0606L39.6927 84.0453Z" fill="#B8FFFF"/>
<path d="M47.3496 84.1494L111.556 83.9017L117.652 83.9323L119.71 90.9228L113.559 90.932L41.545 90.9473C40.9936 90.8433 40.7547 90.669 40.8098 90.4213L40.3166 88.3113C40.2615 88.0789 40.2462 87.8588 40.2523 87.6263C40.2921 86.449 40.1022 85.2534 39.6948 84.0424L47.3527 84.1464L47.3496 84.1494Z" fill="#845423"/>
<path d="M26.9305 90.2194C28.8695 92.1398 29.3871 93.892 28.4774 95.4608C28.263 95.8185 27.8801 96.0418 27.4635 96.0418H24.6087C24.2656 96.0418 23.9777 96.2895 23.9133 96.6228L22.149 106.552C22.1091 106.791 21.9989 107.014 21.8365 107.197L20.5929 108.622C20.3295 108.925 20.1396 109.292 20.0599 109.69C19.5576 112.023 19.5667 115.726 17.6278 117.374C17.0458 117.876 16.718 118.53 16.6629 119.34C16.185 126.181 16.1299 133.419 16.5036 141.064C16.5342 141.829 17.0948 142.483 17.8606 142.664C19.8394 143.135 18.706 145.26 20.55 146.327L19.7934 146.902L6.9834 146.847L7.07836 109.139C7.07836 108.861 7.31115 108.638 7.5899 108.638H12.8952C13.1832 108.638 13.4129 108.405 13.4129 108.121V95.9133C13.4129 95.739 13.5569 95.6014 13.7315 95.6106L19.5698 95.8828C19.8087 95.898 20.0078 95.7085 20.017 95.4699L20.0722 90.149L26.9336 90.2194H26.9305Z" fill="#FFC900"/>
<path d="M30.9314 90.409C33.9945 91.1734 37.2904 91.1826 40.8069 90.4243C40.7518 90.6719 40.9907 90.8463 41.5421 90.9502C41.9648 91.1398 42.1088 91.412 41.9893 91.7545C41.9495 91.8646 41.879 91.9532 41.7749 92.0083C40.5864 92.6933 40.7058 94.207 40.4669 96.1641C40.4118 96.6014 40.0687 96.9439 39.6368 97.0081L37.3241 97.3506C36.8371 97.4209 36.4481 97.797 36.3501 98.2832C35.4005 103.124 34.5551 108.316 33.8291 113.861C33.7005 114.809 33.2961 115.628 32.6161 116.328C31.6022 117.371 31.1642 118.389 31.0294 120.062C30.5516 125.964 30.3678 132.175 30.4719 138.697C30.4964 140.385 28.8209 140.896 28.3185 142.44C28.2542 142.639 28.2236 142.838 28.2236 143.046V146.804C28.2726 146.685 28.0796 146.694 27.6569 146.829L20.5504 146.327C18.7064 145.26 19.8398 143.135 17.861 142.664C17.0952 142.48 16.5377 141.829 16.504 141.064C16.1303 133.419 16.1855 126.181 16.6633 119.34C16.7184 118.527 17.0462 117.876 17.6282 117.374C19.5672 115.726 19.558 112.023 20.0603 109.69C20.14 109.292 20.3329 108.925 20.5933 108.622L21.8369 107.197C21.9962 107.014 22.1096 106.791 22.1494 106.552L23.9137 96.6228C23.9781 96.2894 24.266 96.0418 24.6091 96.0418H27.4639C27.8774 96.0418 28.2603 95.8185 28.4778 95.4607C29.3876 93.892 28.8699 92.1398 26.9309 90.2194C28.7749 89.987 30.1043 90.0512 30.9344 90.412L30.9314 90.409Z" fill="#DFFEFF"/>
<path d="M150.693 90.3998C150.127 92.3752 149.6 94.3323 149.122 96.2833C148.953 96.9683 148.669 97.3903 148.252 97.5585C147.789 97.742 147.247 97.7328 146.632 97.534L146.169 90.5435C146.154 90.36 146.304 90.2102 146.488 90.2163L150.69 90.3998H150.693Z" fill="#DFFEFF"/>
<path d="M113.558 90.9349L113.429 94.5739C113.414 95.0846 113.827 95.5066 114.339 95.4883L117.984 95.3935C118.263 95.3843 118.495 95.6075 118.502 95.8858L118.814 107.989C118.829 108.451 119.221 108.803 119.684 108.769C120.872 108.68 121.742 108.705 122.3 108.858C122.603 108.937 122.827 109.209 122.842 109.518C123.369 118.191 123.458 127.563 123.115 137.646C123.099 138.052 122.772 138.379 122.364 138.379H119.794C119.243 138.379 118.814 138.841 118.845 139.392L119.292 146.63L28.2188 146.804V143.046C28.2188 142.838 28.2494 142.639 28.3137 142.44C28.8161 140.896 30.4916 140.385 30.4671 138.697C30.3629 132.175 30.5467 125.964 31.0246 120.062C31.1594 118.389 31.5974 117.371 32.6113 116.328C33.2882 115.628 33.6956 114.809 33.8243 113.861C34.5502 108.316 35.3957 103.127 36.3452 98.2832C36.4402 97.797 36.8323 97.4239 37.3193 97.3506L39.632 97.0081C40.0639 96.9438 40.407 96.6014 40.4621 96.1641C40.701 94.2039 40.5816 92.6933 41.77 92.0083C41.8742 91.9532 41.9446 91.8645 41.9845 91.7545C42.1039 91.412 41.96 91.1398 41.5373 90.9502L113.551 90.9349M74.7171 143.709H77.7649C78.1172 143.709 78.3959 143.416 78.3867 143.064L78.3316 140.755C78.3224 140.404 78.6103 140.11 78.9626 140.11H83.3827C83.6706 140.11 83.9004 139.878 83.9004 139.593V136.655C83.9004 136.257 84.2189 135.93 84.6171 135.921L90.2165 135.777C90.4953 135.768 90.7495 135.594 90.8537 135.34C91.0926 134.743 91.2213 134.297 91.2274 133.994C91.2978 131.835 93.828 132.728 94.3947 131.001C95.1513 128.667 95.6383 127.273 95.8466 126.82C95.9906 126.508 96.205 126.23 96.4684 126.025L97.8499 124.927C98.1439 124.695 98.3614 124.386 98.4656 124.028C99.4856 120.619 98.9281 117.704 96.7839 115.286C95.3412 113.647 94.5264 112.212 94.3426 110.977C94.1527 109.696 93.537 109.313 92.4526 109.001C92.1984 108.931 91.9656 108.778 91.8063 108.564C91.4142 108.072 91.1508 107.466 91.0099 106.757C90.8598 106.017 90.2135 105.476 89.4538 105.436L84.7244 105.213C84.3568 105.197 84.0535 104.925 83.9984 104.558L83.6798 102.424C83.6247 102.026 83.2877 101.714 82.8834 101.699L79.661 101.54C79.1831 101.516 78.8003 101.127 78.7911 100.647L78.7359 98.4331C78.7206 97.9805 78.3438 97.6135 77.8905 97.6135H74.3158C73.8135 97.6135 73.4061 98.005 73.3816 98.5065L73.2713 100.831C73.2468 101.332 72.8394 101.73 72.3309 101.739L68.8206 101.834C68.2876 101.849 67.8404 102.24 67.7515 102.766L67.3932 104.91C67.3135 105.381 66.9306 105.745 66.4528 105.803C66.3639 105.818 65.2888 105.986 63.2395 106.295C62.5044 106.405 61.9561 107.029 61.9316 107.769C61.9071 108.732 61.1903 109.289 59.7782 109.457C59.1625 109.527 58.7092 110.093 58.7337 110.763C58.8439 113.965 56.8744 113.796 55.9033 116.01C55.4408 117.053 54.5219 117.867 53.1435 118.454C52.8494 118.573 52.6105 118.805 52.4726 119.084C51.4924 121.074 52.0009 122.836 54.0134 124.301C55.7839 125.591 57.0673 127.303 57.8729 129.444C58.654 131.523 60.0815 132.661 60.5838 134.86C60.688 135.321 61.0862 135.655 61.564 135.679L68.0027 135.982C68.3305 135.997 68.5939 136.269 68.6 136.597L68.6705 139.407C68.6797 139.759 68.9737 140.037 69.326 140.028L73.3877 139.924C73.7798 139.915 74.0892 140.236 74.0738 140.618L73.9636 142.911C73.9391 143.349 74.2913 143.716 74.7294 143.716L74.7171 143.709Z" fill="#FFC900"/>
<path d="M27.6547 146.832L27.6945 154C27.3024 154.232 26.9134 154.232 26.5213 153.984C25.9792 153.642 25.6208 153.452 25.4523 153.409C24.0555 153.122 22.7016 153.299 21.3691 153.926L20.1316 153.752L19.7886 146.902L20.5452 146.327L27.6516 146.829L27.6547 146.832Z" fill="#B8FFFF"/>
<path d="M19.794 146.902L20.1371 153.752L12.9326 153.618L7.77123 153.41C7.27807 153.394 6.88599 152.978 6.89518 152.486L6.98401 146.847L19.794 146.902Z" fill="#845423"/>
<path d="M28.222 146.807L119.295 146.633C120.15 146.767 120.333 146.822 119.837 146.792C119.127 148.886 119.062 151.25 119.653 153.886L117.898 153.966L29.7137 154.036L27.6951 153.996L27.6553 146.828C28.078 146.694 28.271 146.685 28.222 146.804V146.807Z" fill="#845423"/>
<path d="M146.91 146.847C147.124 148.287 147.173 150.192 147.054 152.556C147.014 153.36 146.68 153.773 146.049 153.798H140.738L119.654 153.886C119.063 151.25 119.127 148.887 119.838 146.792L140.554 146.697C140.777 146.697 140.992 146.746 141.2 146.832C141.543 146.966 141.822 147.021 142.03 146.991C143.547 146.758 145.173 146.712 146.913 146.847H146.91Z" fill="#71451C"/>
<path d="M27.6968 153.996L29.7154 154.036C29.547 156.752 29.9053 159.357 30.7936 161.84C30.8733 162.072 30.8488 162.271 30.714 162.421L23.0255 162.277C22.8356 159.547 22.8111 156.305 21.3745 153.923C22.707 153.293 24.0639 153.119 25.4577 153.406C25.6261 153.446 25.9845 153.639 26.5267 153.981C26.9188 154.229 27.3078 154.229 27.6999 153.996H27.6968Z" fill="#DFFEFF"/>
<path d="M146.049 153.798C146.502 153.838 146.919 154.052 147.292 154.458L147.253 168.452C147.253 168.699 147.044 168.904 146.799 168.904H141.43C141.206 168.904 141.022 169.088 141.022 169.317V178.341C141.022 178.573 140.832 178.763 140.59 178.754L134.544 178.61L134.439 169.054L139.8 169.118C140.367 169.127 140.829 168.672 140.829 168.106L140.814 162.213L140.734 153.795H146.046L146.049 153.798Z" fill="#061031"/>
<path d="M20.1322 153.752L21.3697 153.926C22.8063 156.308 22.8308 159.55 23.0207 162.281C23.0054 162.336 22.9901 162.391 22.9717 162.449L18.1687 162.498L12.8726 162.507L12.9277 153.62L20.1322 153.755V153.752Z" fill="#DFFEFF"/>
<path d="M117.902 153.966C118.181 153.917 118.356 153.996 118.414 154.214C118.518 154.596 118.285 154.978 117.902 155.073C116.585 155.385 115.829 156.235 115.636 157.638C115.323 159.956 115.581 161.485 116.411 162.241L115.152 162.17L31.666 162.623L30.7165 162.424C30.8512 162.274 30.8757 162.073 30.7961 161.843C29.9109 159.36 29.5525 156.755 29.7179 154.039L117.902 153.969V153.966Z" fill="#DFFEFF"/>
<path d="M119.658 153.886L140.742 153.798L140.821 162.216L116.411 162.241C115.581 161.485 115.327 159.956 115.636 157.638C115.826 156.238 116.586 155.385 117.903 155.073C118.286 154.978 118.519 154.596 118.415 154.213C118.36 153.999 118.182 153.92 117.903 153.966L119.658 153.886Z" fill="#C98519"/>
<path d="M30.7106 162.424L31.6602 162.623L31.7245 167.727C31.7337 168.302 31.2712 168.77 30.7045 168.77H25.3838C24.9519 168.77 24.6027 168.427 24.6027 167.996V163.137C24.6027 162.825 24.4189 162.556 24.131 162.443C23.7726 162.299 23.3897 162.299 22.9731 162.443C22.9885 162.388 23.0038 162.333 23.0222 162.274L30.7106 162.418V162.424Z" fill="#B8FFFF"/>
<path d="M115.143 162.167C114.377 165.235 114.521 167.51 115.575 169.017C114.043 169.384 112.248 169.424 110.199 169.127C85.3907 169.192 60.6222 169.137 35.9028 168.959C35.8323 168.959 33.8596 169.048 29.9848 169.213C26.1405 169.381 23.0223 168.473 18.7308 169.085C18.4919 168.852 18.3387 168.39 18.2683 167.715L18.1733 162.492L22.9763 162.443C23.3899 162.299 23.7727 162.299 24.1342 162.443C24.4221 162.553 24.6059 162.825 24.6059 163.137V167.996C24.6059 168.427 24.9582 168.77 25.387 168.77H30.7077C31.2744 168.77 31.7369 168.299 31.7277 167.727L31.6634 162.623L115.149 162.171L115.143 162.167Z" fill="#845423"/>
<path d="M140.815 162.216L140.831 168.109C140.831 168.675 140.368 169.127 139.801 169.121L134.441 169.057L115.575 169.017C114.521 167.513 114.377 165.235 115.143 162.167L116.402 162.238L140.812 162.213L140.815 162.216Z" fill="#71451C"/>
<path d="M18.1686 162.495L18.2636 167.718L14.2264 167.384C13.5556 167.329 12.9981 166.867 12.8051 166.222C12.4528 165.02 12.4773 163.779 12.8694 162.504L18.1656 162.495H18.1686Z" fill="#0B1836"/>
<path d="M110.202 169.128L109.779 178.014C109.764 178.302 109.525 178.525 109.237 178.525H105.472C105.16 178.525 104.915 178.773 104.915 179.081V188.806C104.915 189.124 104.661 189.381 104.342 189.381H100.02C99.6219 189.381 99.3033 189.708 99.3095 190.105L99.4289 196.653L46.7339 196.701C44.4671 196.16 42.3321 196.185 40.3135 196.781L38.2 196.796C36.9165 196.653 34.9622 196.622 32.3463 196.692C31.5897 196.717 31.2222 196.98 31.2283 197.487C31.2528 197.24 31.2038 197.035 31.0782 196.882L31.0935 189.188C31.0935 188.925 30.8791 188.711 30.6157 188.711H25.3991C25.0806 188.711 24.8171 188.448 24.8171 188.121V178.436C24.8171 178.204 24.6272 178.023 24.3944 178.023H19.1136C18.8502 178.023 18.6357 177.809 18.6357 177.537L18.7399 169.088C23.0313 168.473 26.1496 169.382 29.9938 169.216C33.8718 169.048 35.8414 168.963 35.9118 168.963C60.6313 169.137 85.3998 169.195 110.208 169.131M31.3477 177.473L34.3312 177.036C34.5303 177.005 34.7049 176.892 34.8091 176.718C35.3451 175.834 35.5749 174.598 35.5044 172.999C35.4891 172.687 35.2104 172.458 34.8979 172.498L31.3569 173.024C31.118 173.054 30.9097 173.222 30.8239 173.455C30.4012 174.522 30.3522 175.708 30.68 177.023C30.7504 177.326 31.0476 177.525 31.3508 177.476M39.0025 180.513C38.9964 179.785 38.3991 179.204 37.6731 179.213L36.3345 179.228C35.6086 179.237 35.0266 179.828 35.0327 180.555L35.0541 182.656C35.0603 183.384 35.6576 183.965 36.3835 183.956L37.7252 183.941C38.4511 183.931 39.0331 183.341 39.027 182.613L39.0056 180.513H39.0025Z" fill="#FFC900"/>
<path d="M134.443 169.057L134.548 178.614C134.508 178.788 134.483 178.797 134.477 178.629L128.44 178.589C128.146 178.58 127.897 178.828 127.897 179.121V188.845C127.897 189.035 127.747 189.188 127.554 189.188H121.771C121.538 189.188 121.358 189.371 121.358 189.601C121.342 193.439 121.342 195.463 121.358 195.668C121.477 197.047 121.039 197.5 120.041 197.013C119.563 196.799 118.981 196.686 118.295 196.68C111.96 196.585 105.674 196.576 99.4287 196.649L99.3093 190.102C99.3001 189.705 99.6217 189.378 100.02 189.378H104.342C104.661 189.378 104.915 189.124 104.915 188.803V179.078C104.915 178.766 105.163 178.522 105.472 178.522H109.237C109.525 178.522 109.764 178.299 109.779 178.011L110.202 169.125C112.251 169.418 114.046 169.378 115.578 169.015L134.443 169.054V169.057Z" fill="#C98519"/>
<path d="M134.474 178.629L134.523 188.94C134.532 189.194 134.324 189.402 134.069 189.402H128.565C128.332 189.402 128.151 189.591 128.151 189.824V196.983C128.151 197.19 127.983 197.356 127.778 197.356H122.393C122.243 197.356 122.12 197.475 122.129 197.628L122.417 208.872C122.426 209.04 122.282 209.184 122.114 209.184H115.972C115.758 209.184 115.59 209.352 115.59 209.566V214.902C115.59 215.092 115.439 215.245 115.246 215.245H37.9544C37.7859 215.245 37.6512 215.11 37.6512 214.933V209.805C37.6512 209.493 37.3969 209.239 37.0845 209.239H31.5402C31.3013 209.239 31.1083 209.049 31.1175 208.808L31.2217 197.484C31.2125 196.973 31.58 196.71 32.3397 196.689C34.9556 196.619 36.9099 196.649 38.1933 196.793C37.8258 198.903 37.8104 200.949 38.1382 202.939L38.0984 208.315C38.0892 208.563 38.2914 208.768 38.5364 208.768H114.796C115.029 208.768 115.228 208.594 115.268 208.361C115.531 206.539 115.491 204.738 115.164 202.979C115.96 202.462 117.127 202.31 118.659 202.533C118.993 202.582 119.29 202.319 119.281 201.982C119.241 200.126 119.495 198.472 120.037 197.013C121.036 197.499 121.474 197.044 121.354 195.668C121.339 195.46 121.339 193.438 121.354 189.601C121.354 189.368 121.538 189.188 121.768 189.188H127.551C127.741 189.188 127.894 189.038 127.894 188.845V179.121C127.894 178.827 128.142 178.58 128.436 178.589L134.474 178.629Z" fill="#061031"/>
<path d="M46.7294 196.698C46.2424 197.472 46.3159 198.178 46.953 198.833C47.0633 198.943 47.2164 199.001 47.4002 199.007C47.5993 199.007 47.7678 199.038 47.9179 199.111C48.0527 199.175 48.1017 199.414 48.0619 199.836C47.9669 200.927 48.1017 201.97 48.4601 202.949L41.7763 203.019C41.9448 200.75 41.4578 198.671 40.3091 196.775C42.3277 196.178 44.4658 196.154 46.7294 196.695V196.698Z" fill="#B8FFFF"/>
<path d="M40.3098 196.778C41.4584 198.674 41.9455 200.75 41.777 203.022L38.1411 202.942C37.8133 200.952 37.8286 198.906 38.1962 196.796L40.3098 196.781V196.778Z" fill="#6E462D"/>
<path d="M99.4214 196.649C105.667 196.578 111.953 196.585 118.287 196.679C118.973 196.689 119.555 196.799 120.033 197.013C119.491 198.471 119.237 200.126 119.277 201.982C119.286 202.315 118.989 202.578 118.655 202.532C117.123 202.309 115.959 202.462 115.16 202.979L48.457 202.948C48.0986 201.97 47.9638 200.927 48.0588 199.835C48.0986 199.413 48.0496 199.175 47.9148 199.11C47.7647 199.04 47.5962 199.007 47.3971 199.007C47.2133 198.997 47.0632 198.942 46.9499 198.832C46.3128 198.178 46.2393 197.471 46.7263 196.698L99.4214 196.649Z" fill="#091731"/>
<path d="M41.7767 203.022L48.4604 202.951L115.163 202.982C115.491 204.743 115.531 206.542 115.267 208.364C115.228 208.596 115.028 208.771 114.796 208.771H38.5389C38.2908 208.771 38.0917 208.563 38.1009 208.318L38.1407 202.942L41.7767 203.022Z" fill="#C98519"/>
<path d="M111.873 6.98414C111.297 8.87092 111.297 10.8372 111.882 12.8769L105.03 12.8065L48.6165 13.0206C48.3929 13.0206 48.2183 13.1949 48.2091 13.412L48.0897 18.5739C47.428 18.9806 46.5673 19.1794 45.5044 19.1549C42.2268 19.0998 38.9861 19.1151 35.782 19.2191L35.4389 13.6933C35.4236 13.4395 35.2061 13.2408 34.9519 13.2561L28.0997 13.6077L28.0047 7.20432C27.9955 6.98109 28.1793 6.79761 28.4029 6.79761L111.873 6.9872V6.98414Z" fill="#DFFEFF"/>
<path d="M124.833 12.9812L111.879 12.8772C111.297 10.8375 111.297 8.87124 111.87 6.98447L124.45 6.81628C124.683 6.81628 124.873 6.99976 124.864 7.22911L124.833 12.9781V12.9812Z" fill="#C98519"/>
<path d="M105.021 12.8041L105.891 18.6815L48.0835 18.5714L48.203 13.4096C48.2121 13.1955 48.3867 13.0181 48.6104 13.0181L105.024 12.8041H105.021Z" fill="#845423"/>
<path d="M111.874 12.8775L124.828 12.9814C125.202 14.6052 125.291 16.1831 125.092 17.703C125.061 17.9415 124.883 18.1402 124.644 18.2045L122.356 18.7702L105.892 18.6815L105.022 12.8041L111.874 12.8744V12.8775Z" fill="#71451C"/>
<path d="M35.7803 19.2161C33.6177 18.5403 31.7278 18.3569 30.1074 18.6657C28.2021 18.6657 27.5313 16.9777 28.098 13.6017L34.9502 13.25C35.2044 13.2347 35.4219 13.4335 35.4372 13.6873L35.7803 19.2131V19.2161Z" fill="#845423"/>
<path d="M35.7738 19.2162C38.9809 19.1122 42.2186 19.0969 45.4962 19.1519C46.556 19.1764 47.4198 18.9776 48.0815 18.5709L105.889 18.681L122.353 18.7697L122.313 23.7634C122.313 24.1059 122.041 24.3841 121.698 24.3841H30.395C30.2204 24.3841 30.0825 24.2404 30.0825 24.0661L30.0978 18.6657C31.7182 18.3538 33.6082 18.5373 35.7708 19.2162H35.7738Z" fill="#C98519"/>
<path d="M144.607 57.5603C144.861 57.5359 145.078 57.7285 145.094 57.9823L145.229 60.0373C145.284 60.8324 144.79 61.5173 144.12 61.5663L143.219 61.6213C142.548 61.6702 141.975 61.0556 141.92 60.2605L141.786 58.1994C141.77 57.9517 141.954 57.7377 142.208 57.7224L144.61 57.5634L144.607 57.5603Z" fill="#C98519"/>
<path d="M74.7142 143.709C74.2761 143.709 73.9239 143.342 73.9484 142.905L74.0587 140.612C74.074 140.229 73.7646 139.911 73.3725 139.918L69.3108 140.021C68.9585 140.031 68.6645 139.749 68.6553 139.401L68.5848 136.59C68.5757 136.263 68.3122 135.994 67.9875 135.976L61.5488 135.673C61.071 135.649 60.6728 135.315 60.5686 134.854C60.0663 132.655 58.6388 131.517 57.8577 129.438C57.0521 127.294 55.7687 125.585 53.9982 124.294C51.9888 122.83 51.4772 121.068 52.4574 119.077C52.5922 118.799 52.8312 118.567 53.1283 118.447C54.5097 117.857 55.4256 117.047 55.8882 116.004C56.8622 113.79 58.8318 113.958 58.7185 110.757C58.694 110.087 59.1504 109.521 59.763 109.451C61.1751 109.283 61.8919 108.726 61.9164 107.763C61.9409 107.023 62.4923 106.402 63.2244 106.289C65.2736 105.977 66.3518 105.812 66.4376 105.797C66.9154 105.742 67.2983 105.375 67.378 104.904L67.7364 102.76C67.8252 102.234 68.2693 101.846 68.8054 101.827L72.3157 101.733C72.8273 101.723 73.2316 101.326 73.2561 100.824L73.3664 98.5003C73.3909 97.9988 73.7983 97.6074 74.3006 97.6074H77.8753C78.3287 97.6074 78.7054 97.9743 78.7207 98.4269L78.7759 100.641C78.7851 101.118 79.168 101.509 79.6458 101.534L82.8682 101.693C83.2756 101.708 83.6095 102.02 83.6646 102.418L83.9832 104.552C84.0383 104.919 84.3416 105.188 84.7092 105.206L89.4386 105.43C90.1952 105.469 90.8416 106.011 90.9947 106.751C91.1387 107.46 91.4021 108.066 91.7911 108.558C91.9504 108.772 92.1832 108.925 92.4375 108.995C93.5218 109.307 94.1375 109.689 94.3274 110.971C94.5112 112.206 95.326 113.637 96.7687 115.279C98.916 117.701 99.4735 120.616 98.4504 124.022C98.3462 124.38 98.1318 124.692 97.8347 124.921L96.4532 126.019C96.1898 126.227 95.9754 126.505 95.8314 126.814C95.6231 127.267 95.1361 128.661 94.3795 130.994C93.8128 132.722 91.2857 131.829 91.2122 133.988C91.203 134.291 91.0774 134.737 90.8385 135.334C90.7344 135.587 90.4801 135.765 90.2014 135.771L84.602 135.915C84.2038 135.924 83.8852 136.248 83.8852 136.649V139.587C83.8852 139.875 83.6524 140.104 83.3675 140.104H78.9474C78.5952 140.104 78.3103 140.398 78.3164 140.749L78.3715 143.058C78.3807 143.41 78.0989 143.703 77.7497 143.703H74.7019M78.6319 108.121C78.5615 108.13 78.4879 108.145 78.4175 108.151C77.0299 107.69 75.9119 107.619 75.0603 107.943C73.2653 108.637 71.2865 109.105 69.1178 109.353C68.1131 109.463 67.2279 110.069 66.7561 110.952C65.9107 112.546 64.7774 113.851 63.3653 114.864C62.3115 115.619 61.267 117.062 60.5257 117.906C60.3511 118.105 60.2378 118.353 60.2133 118.622C59.9254 121.6 60.3174 124.475 61.3865 127.254C61.6346 127.909 62.2625 128.352 62.9671 128.371C65.1358 128.441 67.1544 129.007 69.0229 130.068C71.5591 131.508 73.2653 135.26 75.8996 135.792C80.7976 136.78 82.761 133.41 85.0002 129.786C85.4382 129.086 85.9804 128.456 86.6114 127.915C88.7494 126.108 91.3102 123.949 91.589 121.79C91.932 119.145 92.2108 117.362 92.4436 116.429C92.5079 116.166 92.3639 115.888 92.1097 115.799L87.1719 114.072C87.0617 114.032 86.9575 113.968 86.8687 113.882C86.5164 113.539 86.207 113.062 85.9436 112.442C84.605 109.329 82.1239 107.735 78.638 108.118L78.6319 108.121Z" fill="#845423"/>
<path d="M78.4187 108.151C74.7889 107.362 72.6845 108.478 72.1087 111.487C71.9892 112.069 71.542 112.524 70.96 112.643C69.6918 112.906 68.4237 113.432 67.1403 114.221C66.9258 114.356 66.7666 114.555 66.6869 114.796C66.0712 116.484 65.0451 117.551 63.5993 117.998C62.2178 118.429 61.3969 118.857 61.1518 119.295C60.3554 120.704 61.0967 123.236 62.9162 123.618C64.5917 123.976 65.6516 124.741 66.0896 125.912C67.0392 128.444 68.4758 129.089 70.7149 129.575C71.6155 129.765 72.3353 130.41 72.5743 131.248C73.3308 133.854 75.0309 134.927 77.6805 134.474C78.5351 134.331 79.1967 133.63 79.2917 132.771L79.5643 130.288C79.6287 129.713 80.082 129.27 80.6579 129.205C83.2983 128.933 85.3322 128.673 86.1776 126.196C86.3124 125.799 86.5054 125.362 86.7596 124.875C86.8148 124.771 86.9036 124.692 87.0139 124.643L90.5395 123.025C90.6682 122.97 90.7784 122.875 90.852 122.753C91.7219 121.423 91.7525 120.077 90.9408 118.717C90.852 118.567 90.7172 118.454 90.5487 118.399L87.556 117.356C86.974 117.148 86.5666 116.631 86.5023 116.026C86.3584 114.68 85.7764 113.662 84.7625 112.968C84.6675 112.897 84.548 112.857 84.4286 112.839L80.7834 112.442C80.0881 112.362 79.5153 111.851 79.356 111.176L78.6393 108.127C82.1251 107.745 84.6062 109.338 85.9448 112.451C86.2083 113.072 86.5207 113.549 86.8699 113.891C86.9587 113.98 87.0629 114.041 87.1731 114.081L92.1109 115.808C92.3652 115.897 92.5091 116.175 92.4448 116.438C92.212 117.371 91.9332 119.154 91.5902 121.799C91.3114 123.958 88.7507 126.114 86.6126 127.924C85.9816 128.465 85.4394 129.095 85.0014 129.796C82.7592 133.419 80.7988 136.786 75.9008 135.801C73.2696 135.269 71.5604 131.517 69.0241 130.077C67.1586 129.019 65.14 128.453 62.9683 128.38C62.2668 128.364 61.6358 127.918 61.3877 127.264C60.3187 124.484 59.9266 121.609 60.2145 118.631C60.239 118.359 60.3493 118.114 60.527 117.915C61.2682 117.071 62.3128 115.631 63.3665 114.873C64.7786 113.86 65.9119 112.555 66.7574 110.962C67.2291 110.078 68.1143 109.472 69.119 109.362C71.2877 109.115 73.2665 108.647 75.0615 107.952C75.9161 107.625 77.0311 107.699 78.4187 108.16V108.151Z" fill="#71451C"/>
<path d="M78.4204 108.152C78.4909 108.142 78.5644 108.127 78.6349 108.121L79.3516 111.17C79.5109 111.846 80.0868 112.356 80.779 112.436L84.4242 112.833C84.5436 112.849 84.6631 112.888 84.7581 112.962C85.772 113.656 86.354 114.674 86.4979 116.02C86.5622 116.625 86.9696 117.142 87.5516 117.35L90.5443 118.393C90.7128 118.448 90.8476 118.561 90.9364 118.711C91.7512 120.072 91.7175 121.417 90.8476 122.747C90.7771 122.867 90.6638 122.961 90.5351 123.019L87.0095 124.637C86.8992 124.686 86.8104 124.766 86.7552 124.869C86.501 125.356 86.308 125.793 86.1732 126.191C85.3278 128.668 83.2939 128.93 80.6535 129.2C80.0807 129.264 79.6242 129.71 79.5599 130.282L79.2873 132.765C79.1923 133.624 78.5307 134.325 77.6761 134.468C75.0265 134.921 73.3295 133.848 72.5699 131.242C72.3309 130.407 71.6142 129.762 70.7105 129.57C68.4683 129.083 67.0348 128.438 66.0852 125.906C65.6472 124.735 64.5843 123.97 62.9118 123.613C61.0923 123.23 60.351 120.698 61.1474 119.289C61.3956 118.851 62.2165 118.42 63.5949 117.992C65.0376 117.546 66.0668 116.478 66.6825 114.79C66.7622 114.552 66.9214 114.353 67.1359 114.216C68.4193 113.427 69.6874 112.901 70.9556 112.638C71.5376 112.518 71.9848 112.066 72.1043 111.482C72.6771 108.473 74.7845 107.356 78.4143 108.145L78.4204 108.152Z" fill="#FCB900"/>
<path d="M30.6838 177.02C30.3561 175.705 30.4051 174.519 30.8278 173.451C30.9166 173.219 31.1218 173.054 31.3608 173.02L34.9018 172.494C35.2142 172.455 35.4929 172.684 35.5083 172.996C35.5787 174.595 35.349 175.831 34.8129 176.714C34.7088 176.889 34.5342 177.002 34.3351 177.032L31.3516 177.47C31.0483 177.519 30.7543 177.32 30.6808 177.017L30.6838 177.02Z" fill="#DFFEFF"/>
<path d="M39.0281 182.613C39.0342 183.344 38.4522 183.931 37.7262 183.94L36.3846 183.955C35.6586 183.964 35.0582 183.383 35.0552 182.656L35.0337 180.555C35.0276 179.824 35.6096 179.237 36.3356 179.228L37.6742 179.212C38.4001 179.203 39.0005 179.784 39.0036 180.512L39.025 182.613H39.0281Z" fill="#DFFEFF"/>
</svg>
